<?xml version="1.0" standalone="no"?>
<!DOCTYPE svg PUBLIC "-//W3C//DTD SVG 1.1//EN" "http://www.w3.org/Graphics/SVG/1.1/DTD/svg11.dtd" >
<svg xmlns="http://www.w3.org/2000/svg">
<metadata></metadata>
<defs>
<font id="captain_kidd_demoregular" horiz-adv-x="2048" >
<font-face units-per-em="2048" ascent="1638" descent="-410" />
<missing-glyph horiz-adv-x="500" />
<glyph horiz-adv-x="0" />
<glyph unicode="&#xd;" />
<glyph unicode=" " />
<glyph unicode="!" />
<glyph unicode="&#x22;" />
<glyph unicode="#" />
<glyph unicode="$" />
<glyph unicode="%" />
<glyph unicode="&#x26;" />
<glyph unicode="'" />
<glyph unicode="(" />
<glyph unicode=")" />
<glyph unicode="*" />
<glyph unicode="+" />
<glyph unicode="," />
<glyph unicode="-" />
<glyph unicode="." />
<glyph unicode="/" />
<glyph unicode="0" />
<glyph unicode="1" />
<glyph unicode="2" />
<glyph unicode="3" />
<glyph unicode="4" />
<glyph unicode="5" />
<glyph unicode="6" />
<glyph unicode="7" />
<glyph unicode="8" />
<glyph unicode="9" />
<glyph unicode=":" />
<glyph unicode=";" />
<glyph unicode="&#x3c;" />
<glyph unicode="=" />
<glyph unicode="&#x3e;" />
<glyph unicode="?" />
<glyph unicode="A" horiz-adv-x="1232" d="M-608 -346q8 2 39 24q85 -79 210 -79h3q229 0 356 297q-4 2 -12 8q133 281 186 415q76 197 123 400q-10 10 -76.5 25.5t-79.5 15.5q-6 0 -28.5 -7.5t-28.5 -7.5h-35q0 2 -2 6.5t-2 10.5q0 86 170 86q4 0 34 -2t36 -2q74 0 104 51q18 31 30.5 110.5t26.5 108.5 q43 94 142 293q46 82 46 121q0 5 -1 8q-55 37 -279 86q-203 43 -225 82v20q16 10 33 11q4 0 26 -9q125 -47 224 -69q23 -4 178 -21.5t174 -17.5q68 0 358 18v-20q0 -27 -47 -37q-41 -47 -47 -137q-1 -10 -1 -30q0 -39 3 -114v-16q0 -114 -53 -162q0 -6 21.5 -51t21.5 -49 v-160q0 -12 -5 -113.5t-5 -121.5q0 -76 24 -285q23 -219 39 -248q16 -35 94 -61q14 -10 43 -29v-20q-16 -6 -45 -7l-274 39q-10 0 -32.5 -7t-29.5 -7h-149q0 2 -2 10t-2 17q31 8 66.5 18t56.5 43q30 40 30 331v19q0 186 -19 234.5t-97 48.5q-18 0 -89 -4t-124 -4 q-61 0 -68 -21q-80 -328 -280 -694q-258 -475 -484 -475h-129q-27 0 -84 45q-66 49 -63 86zM483 868q0 -23 18.5 -42t45.5 -19h121q90 0 112 14q39 20 39 105q0 51 -9 79.5t-9 36.5q0 6 11 41t11 41q0 8 -13 31t-13 27v151q0 109 -13 172q-8 43 -32 43q-23 0 -90 -184 q-78 -211 -150 -283v-32q0 -72 -14.5 -128.5t-14.5 -52.5z" />
<glyph unicode="B" horiz-adv-x="1161" d="M6 1655q25 0 85.5 -4t62.5 -4l286 4q6 0 39 -9.5t39 -9.5t8 6.5t2 8.5h183q27 0 47 -13q43 -31 125 -63q68 -8 123 -133q47 -104 47 -168q0 -111 -54 -201q-66 -111 -192 -145q33 -8 58.5 -31t45.5 -29q109 -25 168 -129q43 -75 43 -148q0 -14 -2 -28q17 -65 17 -96 q0 -8 -8.5 -24.5t-8.5 -22.5q0 -10 13 -15q-37 -113 -195 -249q-138 -119 -186 -119h-4q-4 2 -18.5 -8.5t-22.5 -12.5q-84 -14 -183 -14q-4 0 -84 7t-86 7q-135 0 -224 -14q-82 -13 -82 -14h1q-31 0 -35 22q6 2 131 33q88 23 101 70q8 115 26 407q0 29 2 57q2 37 15 48 q-12 53 -13 96q8 217 9 223q2 55 2 66q10 47 53 79q-4 10 -30.5 29t-26.5 29q0 8 16 16q-20 29 -27 76l-8 78q-2 53 -6 108q-4 72 -31 109q-16 27 -88 61q-78 39 -127 41q-6 6 -6 23zM471 457q0 -8 5 -16.5t5 -12.5v-162q0 -4 11 -80q10 -82 12 -114h57q139 0 252 147 q100 131 100 256q0 61 -18 107q0 14 8 22q-45 90 -123 162q-88 82 -159 82q-29 0 -61 6t-34 6q-4 0 -19 -8t-22 -8q10 -18 11 -82q0 -70 -12.5 -190.5t-12.5 -114.5zM489 934h50q117 0 200 117q76 106 76 219q0 88 -61 149l-66 70q-55 49 -84 57q-8 2 -29.5 11.5t-27.5 9.5 h-23q-12 -12 -24 -111q-10 -70 -11 -139v-383z" />
<glyph unicode="C" horiz-adv-x="1161" d="M35 819q0 106 41 264q31 113 63 226q31 -8 43 34q25 80 27 82q94 164 190 199q150 53 260 53q113 0 189 -51q45 -33 86 -96q33 -53 43 -53q27 0 91.5 93t96.5 93h19v-25q2 -4 -25 -53q-33 -57 -43 -74.5t-35 -66.5q-41 -139 -125 -393h-22q2 21 2 42q0 117 -55 263 q-88 229 -260 229q-66 0 -93 -18q-61 -45 -106 -154q-16 -31 -51 -145q-76 -324 -76 -480q0 -565 264 -731q119 20 176 45q104 43 154 134q54 100 74 100h2q10 -27 10 -45q0 -25 -27 -82q-47 -100 -170 -176q-113 -70 -203 -70q-96 0 -180 41q-98 45 -119 123 q-94 35 -163 209q-63 156 -64 297q0 4 9.5 38t9.5 38q0 6 -16.5 55t-16.5 55z" />
<glyph unicode="D" horiz-adv-x="1361" d="M31 1640q0 20 6 31h51q33 0 123 -14q10 -2 39 -11.5t37 -9.5l518 -16q209 0 371 -254q135 -213 135 -405v-21l10 -30q10 -31 10 -76q0 -150 -45 -308q-57 -203 -153 -237q10 -51 6 -60q-25 -45 -103 -110q-86 -72 -149 -86q-193 -39 -295 -39q-401 0 -510 -10 q20 33 78 51q76 25 90 35q45 29 47 90q8 33 16 63q16 68 17 99v292q0 51 2 132t2 137q0 37 -15 96q-16 76 -18 98q-4 37 -4 100q0 32 1 70q1 49 1 86q0 49 -2 76q0 31 -8 80q-27 90 -148 115q-82 16 -110 36zM516 449q0 -6 9.5 -23.5t11.5 -22.5q6 -27 6 -139v-141 q0 -8 14 -29.5t29 -21.5q150 0 281.5 123.5t160.5 298.5q8 8 19 26q36 236 36 254q0 59 -12 179t-12 124q12 27 24 53q0 14 -22.5 25.5t-24.5 13.5q-29 29 -51 84q-27 66 -45 97q2 45 -102.5 129t-173.5 84q-84 0 -107 -54q-14 -33 -14 -145v-172q0 -4 -13.5 -35t-13.5 -37 q0 -27 14 -47l13 -20v-172q0 -25 -7.5 -89.5t-7.5 -89.5v-143q0 -4 -6 -54t-6 -56z" />
<glyph unicode="E" horiz-adv-x="1236" d="M31 1640l69 7q10 -10 15 -11h370q6 0 25.5 -7t28.5 -7q6 0 25.5 7t25.5 7t53 -9t53 -9q305 0 305 12l117 27l51 -17q0 -8 -26 -53q-33 -59 -45 -82q-6 -31 -15 -67q-12 -10 -28 -37q-41 -186 -92 -346q-25 18 -25 84q0 31 6 92t6 82q0 258 -272 258q-117 0 -146 -66 q-20 -49 -20 -131v-432q8 -6 27 -12h39q6 0 45 6q102 20 139 41q31 18 61 37q14 -10 15 -37q0 -12 -27 -76q-31 -74 -37 -92q-8 -70 -35 -178q-18 18 -22 89t-15 93q-6 12 -49 41q-10 6 -28 6q-6 0 -13.5 -10t-13.5 -10q-4 0 -23.5 5t-25.5 5q-2 0 -21 -4q-14 -4 -22 0 q-12 -57 -12 -160v-166q0 -8 -2.5 -37.5t-2.5 -33.5q0 -254 13 -297q10 -18 20 -43q33 -14 82 -41q10 -5 80 -5h25l127 7q20 6 51 28q27 0 67 103q37 90 37 106q0 4 -9 107.5t-9 109.5v-1q1 0 16 116l4 3t11 3q16 0 20 -20q12 -49 31 -146q18 -76 45 -217q12 -70 68.5 -166 t56.5 -90v-41q-4 0 -120 17.5t-122 17.5t-117 -2h-121q-6 0 -9 -5t-9 -5t-13 7t-14 7h-352q-145 0 -174 -2q-43 -8 -121 -20q-10 10 -10 16q0 14 59 27q41 6 82 14q98 23 99 125q0 18 -4.5 57t-4.5 57q0 25 7 41q10 30 10 52t-10 37h32q0 2 -5 8t-5 12t25.5 25.5t25.5 25.5 q0 -4 -27.5 35t-27.5 84q0 53 2 55l16 99q0 8 -2 37.5t-2 64.5q-4 2 -133 2q-12 -2 -30 14v19q66 43 172 63q-10 14 -11 43q0 10 8 76q3 26 3 47.5t-3 38.5q-29 72 -36 150q-10 113 -17 139v37q-2 27 -15 44t-56 36q-53 23 -58 26q-37 10 -106 53z" />
<glyph unicode="F" horiz-adv-x="1185" d="M41 1634l70 6q8 -10 14 -10h362q4 0 27 -6t29 -6t25.5 6t25.5 6t53 -9t53 -9t7 14h297q37 0 81.5 16.5t53.5 16.5q28 -1 28 -21q0 -12 -22 -55q-35 -63 -43 -78q-8 -31 -19 -71q-14 -10 -30 -35q-39 -186 -90 -344q-23 16 -23 88q0 31 5 95.5t5 86.5q0 242 -268 242 q-102 0 -133 -61.5t-31 -133.5v-223q0 -2 -12 -17.5t-12 -23.5q0 -12 24 -37v-129q12 -12 64 -12q45 0 118 22q84 25 113 56h21q6 -4 6 -17q0 -18 -23 -73q-31 -70 -41 -105q-6 -66 -35 -178q-16 31 -28 153q-8 74 -82 74q-6 0 -14.5 -9t-14.5 -9q-4 0 -22.5 4t-24.5 4 t-23.5 -4t-27.5 -4q8 -8 8 -17l-16 -176v-96q-2 -92 -2 -96q0 -6 2 -31v-29l6 -151q0 -29 28 -101q0 -63 82 -100q123 -53 131 -59q-33 -6 -69 -6q4 0 -87 15t-210 15q-154 0 -314 -22q-12 10 -12 16q0 2 178 53q53 16 54 78v16.5v14.5q0 43 22 61l6 179q6 8 0 20 q-6 18 -6 16v162q8 4 19 15q-14 47 -15 41q0 6 19 79l-4 35q-5 35 -5 78q-4 2 -126 2q-2 0 -35 14q-2 16 65 43q53 20 107 39v105l-51 397q2 61 -82 109q-78 35 -156 71z" />
<glyph unicode="G" horiz-adv-x="1062" d="M27 846q0 104 43 268q29 104 57 211q37 -12 41 16q25 201 203 289q16 10 102 31q96 25 133 25q53 0 168 -36t113 -36q25 0 129 96q22 -17 22 -29q0 -6 -7 -25.5t-7 -25.5q-20 -2 -20 -16q0 -23 2 -23q-14 -8 -39 -41q-12 -35 -23 -104q-6 -49 -14 -100q-25 -133 -25 -136 q-14 -57 -43 -80q-10 111 -53 314q-6 18 -74 86q-74 76 -98 76q-156 0 -201 -76q-51 -86 -82 -197q-86 -311 -86 -528q0 -252 29 -381q55 -242 221 -348q39 4 76 8q45 4 94 31q41 23 45 71q2 31 2 64q2 6 14.5 21.5t12.5 21.5v135q0 29 -23.5 151.5t-29.5 129.5 q-16 20 -55 37q-31 15 -53 15q-5 0 -9 -1l10 28h258q4 0 19.5 -5t21.5 -5t53 7.5t54 7.5q4 0 14 -3.5t16 -3.5v-45q0 -2 -24.5 -21.5t-30.5 -35.5q-23 -53 -23 -135q0 -20 1 -41q-12 8 -31 -18.5t-21 -45.5q14 -16 33 -12q16 -31 -8 -47l-4 -74l4 -80q18 -18 31 -79 q12 -72 53 -125v-27h-25q4 0 -78 41q-18 8 -57 9t-41 11q-37 -4 -98 -16q-18 -8 -86 -41q-31 -14 -90 -14q-88 0 -168 39q-86 45 -117 118q-35 14 -96 76q-47 86 -86 216t-39 214q0 4 9 35t9 39q0 2 -14 46t-14 73z" />
<glyph unicode="H" horiz-adv-x="1470" d="M-8 1647h414q6 0 42.5 -7.5t40.5 -7.5l17 10q18 9 35 9q6 0 52 -9.5t50 -9.5q8 0 9 6.5t1 8.5h23q-2 -29 4 -54q-133 -4 -178 -55q-37 -43 -37 -149l-2 -189q0 -4 -10.5 -38t-10.5 -42q0 -4 12.5 -16t14.5 -21q0 -37 6 -116q27 0 82 2t57 2q8 0 36 -4t42 -4q4 0 40 2 t42 2h223q4 0 22.5 -11.5t24.5 -11.5q59 0 60 103q0 20 -31 165q-27 118 -27 205q0 14 1 27v5q0 64 -46 99q-27 23 -97 46.5t-91 41.5l414 6q6 0 41 -7t39 -7q6 0 25.5 7t25.5 7q4 0 16 -5t17 -5q6 0 12 3t12 3q25 0 51 -14q2 6 15 16h18q-4 -12 2 -57q-147 -10 -176 -31 q-35 -25 -35 -139l-18 -207q0 -4 -4 -44t-4 -46t13 -22.5t13 -24.5q6 -176 6 -180q0 -25 -12 -39q6 -12 6 -21q0 -4 -11 -28.5t-13 -67.5q0 -6 24 -223q0 -8 -8 -26.5t-8 -22.5q0 -53 26 -303q8 -63 93 -103q108 -49 120 -63q-37 2 -180 14q-109 8 -170 8q-90 0 -179 -13 t-87 -13h-47q-2 4 -10 14q20 23 129 37q74 8 92 70q6 53 12 108q14 6 14 41q0 14 -2 33l7 119l12 4q-13 10 -13 35q0 18 7 43q2 6 -5.5 38.5t-7.5 36.5q0 41 19 58v125q0 12 -4 44.5t-4 55.5q-12 0 -47 13.5t-39 13.5h-131q-6 0 -20.5 2t-18.5 2h-164q-16 0 -43 11t-33 11 q-8 0 -55 -13t-62 -24q-6 -4 -16 -16q-9 -19 -9 -56q0 -33 7 -79q-6 -45 -8 -142q0 -10 -2 -57t-2 -49q0 -131 28 -299q10 -68 92 -105q106 -47 121 -61q-12 -6 -45 -6q-6 0 -148.5 13.5t-148.5 13.5q-100 1 -208 -15q-98 -14 -98 -16h1q-10 0 -29 16q66 18 134 39 q88 31 96 80v59q0 33 18 60l4 172q8 8 6 49t-10 59v95q8 0 17 8v131q0 10 -4.5 34.5t-4.5 69.5q-2 2 -129 2q-16 0 -30 17q0 18 20 24q49 23 150 56v110q0 37 -33 189q-27 125 -27 178v12q1 7 1 13q0 52 -44 87q-29 23 -101.5 49.5t-88.5 45.5zM1098 965z" />
<glyph unicode="I" horiz-adv-x="802" d="M25 1636q0 6 3 11.5t3 6.5l331 -57q322 44 322 48h-2h92v-23q-29 -25 -133 -55q-121 -35 -121 -197v-32.5v-32.5q0 -37 -4 -56q-12 -51 -21.5 -74.5t-9.5 -25.5q0 10 14.5 -31t14.5 -125q0 -27 -2 -110q-6 -23 -10 -70q-1 -16 -1 -35q0 -39 3 -92q4 -88 4 -111 q0 -8 -20.5 -49t-20.5 -47q0 -14 19.5 -33.5t23.5 -33.5q6 -29 14 -162q6 -102 33 -162q18 -39 111.5 -54.5t105.5 -31.5q-4 -6 -21.5 -18.5t-23.5 -12.5q-2 0 -60.5 12.5t-72.5 12.5h-164q-6 0 -51 16.5t-49 16.5q-6 0 -20.5 -12.5t-20.5 -14.5t-119 -2q-47 0 -51 2 q16 18 78 45q53 20 57 45l39 230l4 622q0 4 12.5 32t12.5 34q0 4 -14.5 34.5t-18.5 47.5q-18 109 -31 327q2 8 0 15q-4 55 -119.5 130.5t-115.5 71.5z" />
<glyph unicode="J" horiz-adv-x="1286" d="M47 557v39q-4 2 35 2h272q4 0 18.5 -5t20.5 -5q8 0 66 6q68 6 119 10l2 -43q-31 -10 -80 -41q-27 -35 -38 -103.5t-24 -80.5q4 -72 56 -158q66 -111 67 -115q18 0 62 -4q8 6 10 19q2 4 22 4q12 -18 17 -19q78 0 147 179q53 137 53 182q27 -2 27 8q0 4 -7 34t-7 34v391 l4 63q4 62 4 93q0 76 -14 215q-10 45 -11 155q-2 86 -22 121q-33 49 -129 59v35q20 10 47 10q6 0 47 -11t47 -11q18 0 119.5 8t109.5 8q66 0 109 14.5t53 14.5h-2q0 -1 64 -8l2 -19q-25 -8 -76 -30q-18 -12 -57 -27q-57 -2 -74 -74q-8 -41 -10 -102q0 -41 4 -100.5t4 -61.5 v-141q0 -18 -33 -38t-35 -26q4 -6 37 -32q25 -16 25 -48q0 -12 -4 -48t-4 -52q0 -25 6 -37l12 -71q-12 -12 -12 -13v-192q0 -16 -10 -85q-6 -49 -6 -80q0 -14 1 -24q-8 2 -19 -6t-11 -18q-2 -37 -45 -117q-111 -199 -385 -246q-2 -1 -7 -1q-9 0 -26 2q-29 3 -39 3 q0 14 -29 19q-59 8 -80.5 13t-59.5 36t-54 29q0 14 -23 32q-2 6 5 21.5t7 19.5q0 8 -8 17q-2 0 -7 -4t-11 -4q-2 2 -41 47q-4 25 -28.5 74t-29.5 71q-2 16 -2 80v10q0 42 -16 70q-8 14 -49 35q-37 20 -62 20q-8 0 -14 -2z" />
<glyph unicode="K" horiz-adv-x="1372" d="M20 1620v16q8 12 48 13q4 0 140 -14.5t154 -14.5l338 47q8 0 29 -10q-14 -35 -101 -66.5t-108 -77.5q0 -2 -8 -75q-6 -90 -27 -271q0 -2 -14 -24.5t-14 -30.5q0 -78 8 -147q4 -29 27 -29q51 0 143 111q49 63 96 127q121 162 137 178q2 2 74 49q18 109 197 219 q166 106 280 106q139 0 133 -2v-28q-16 4 -34 4q-106 0 -222 -101q-66 -55 -198 -215q-125 -147 -193 -200q2 -18 -16 -60q-61 -61 -117 -100q-74 -51 -170 -96q-66 -31 -65 -41q0 -29 24 -31q123 -10 293 -158q182 -158 182 -292q0 -33 -16 -56.5t-16 -38.5q0 -4 10 -21.5 t12 -25.5q80 -233 231 -321q70 -39 152 -60q-2 -8 -17.5 -16t-23.5 -8q-14 0 -129 41q-139 47 -260 245q-74 145 -148 291q-57 104 -208 279q-82 92 -123 92q-39 0 -39 -51q0 2 10 -164q2 -127 12 -307q4 -39 9 -78q10 -61 32.5 -96t91.5 -52q106 -27 168 -55q2 -8 -8 -29 q-80 2 -258 15q-133 10 -260 10q-102 0 -156 -12v28q74 6 126 60q43 44 44 99q0 12 -2 24q27 121 27 143q0 6 -4 10t-4 10v379q0 4 -4 13.5t-4 15.5q0 16 15 68.5t15 54.5q0 4 -13 26.5t-15 34.5q0 41 -4 123q-16 115 -33 348q-2 82 -76 129q-29 18 -150 66z" />
<glyph unicode="L" horiz-adv-x="1216" d="M-23 1632q16 16 41 17q6 0 46 -5.5t47 -5.5q6 0 64 5.5t65 5.5q6 0 55 -5.5t55 -5.5q4 0 30 5.5t32 5.5q4 0 37.5 -9.5t39.5 -9.5q25 18 46 19q6 0 53 -9.5t53 -9.5q10 0 10 12h25v-53q-47 -6 -94 -10q-70 -14 -99 -53q-14 -18 -32 -74q6 -43 10 -109l4 -491q-4 -4 -6 -4 h-2q4 -37 4 -127q0 -2 -5 -9t-5 -14v-163q0 -6 7 -15.5t7 -15.5t-9.5 -24.5t-9.5 -22.5q0 -6 7.5 -26.5t7.5 -24.5v-119q0 -92 12 -131q25 -80 107 -80q53 0 70.5 -4t56.5 -4q31 0 83 13t56 30q47 18 110 217q9 35 9 91v11q-3 60 -3 88q0 14 1 19q10 10 16 10q-4 0 12 -6 q4 -18 13 -45q10 -63 55 -195q-4 -16 -2 -49q53 -141 125 -225v-45q-4 0 -130 18t-132 18h-142q-6 0 -46 -9t-46 -9q-4 0 -18.5 7t-20.5 7q-4 0 -102.5 -7t-104.5 -7t-49 4t-47 4q-6 0 -24.5 -4t-24.5 -4h-111q-6 0 -62 -11.5t-63 -11.5h-41q-2 6 -10 17q18 31 94 37 q147 8 148 149q0 23 -5 75t-5 77q0 47 14 78q16 -4 20 0q-12 12 -12 22q0 4 26.5 23.5t26.5 25.5q0 -6 -28.5 35t-28.5 84q0 8 18 16v136q0 2 -5 38.5t-5 63.5q-6 2 -22 10v84q18 0 30 6q-4 7 -4 20q0 20 9 54q0 2 -5.5 37t-5.5 55q0 23 6 37q-57 134 -57 273v18v6 q0 59 -41 90q-43 20 -84 41q-18 25 -45 55q-10 4 -20 5q-10 0 -25.5 -8.5t-24.5 -4.5z" />
<glyph unicode="M" horiz-adv-x="1470" d="M-338 35v45q14 -5 37 -19l-6 -26h-31zM-279 1882q0 6 3 10l2 4q20 2 65 13q39 8 45 8q76 0 117 -35q49 -39 108 -49q25 -35 93 -80q74 -51 110 -92q88 -100 86 -166q18 -20 53 -31.5t53.5 -38t19.5 -52t3 -48.5q4 -4 43 -25q14 -51 115 -229q109 -195 129 -244 q2 -4 10 -47q4 -31 23 -47q4 2 12 -5t12 -7q4 16 37 63t45 84q76 211 137 359q2 2 2 67h21q4 2 4 21q53 84 107 170q94 141 153 141h25v-22q-29 -6 -56 -86q-23 -72 -22 -115v-135q0 -39 -14.5 -128t-14.5 -112q0 -4 7.5 -22.5t7.5 -22.5v-131q-10 -215 -11 -236 q0 -6 5.5 -17t5.5 -17v-121q0 -16 32 -328q6 -55 105 -90q14 -10 43 -29v-24h-86h-2q-14 0 -104 14q-102 16 -105 16q-6 0 -81 -7t-81 -7q-20 0 -49 10v23q139 14 139 145v148q0 10 -4 33q-2 16 0 36q4 29 16 78l-4 328q-16 18 -26 12q6 12 12 35v115q29 39 29 69 q0 23 -9 35q-31 -16 -47 -59q-27 -68 -32 -78q0 2 22 2q-12 -29 -20.5 -75t-20.5 -77q-69 -168 -69 -247q0 -33 8 -60q-41 -49 -62 -153q-25 -133 -41 -172q-10 8 -32 26q-4 43 -136 352q-113 265 -113 322q0 5 1 8q-68 23 -162 223q-88 190 -109 191q-23 0 -22 -45 q0 -236 18 -402l-12 -184l8 -254q-14 -61 -17 -61q-1 0 -1 4q0 8 20 -48q15 -43 14 -88q0 -14 -1 -28q-6 -39 18 -57q29 -25 100 -45q117 -35 123 -39v-31q-83 9 -121 9q-13 0 -20 -1q-45 -8 -41 -8q-6 0 -23.5 9t-23.5 9t-37 -7t-37 -7t-39 5t-37 5q-6 0 -49 -12t-47 -12 q-2 0 -21.5 4t-29.5 2q-8 6 -8 16q0 16 62.5 45t70.5 39q43 53 43 117q0 20 -5 52t-5 40q0 10 2 16q18 31 18 46v122q0 6 4 13.5t4 11.5v193q0 37 7.5 52t7.5 31l-13 74q-14 74 -14 125v365q0 43 -12 123q-27 84 -133 206q-155 181 -283 181h-4q-16 -2 -17 20z" />
<glyph unicode="N" horiz-adv-x="1363" d="M-127 1878h115l16 -14q16 -13 37 -17q23 6 70 6q23 -6 36 -34.5t25 -55.5q6 -10 55 -16t66 -21q61 -78 203 -247q20 -8 53 -31q31 -39 31 -96q0 -15 -2 -31q20 -8 61 -29q57 -133 164 -301q154 -244 178 -286q29 18 29 110v203q-33 33 -33 129v141q0 2 -4 94 q-2 66 -19 101q-20 45 -100 73q-74 23 -147 43h-4q-30 0 -50 29q20 20 90 21q63 0 267 -29q-2 0 71.5 11t153.5 11h92v-28q-8 -10 -14 -33q-23 -2 -80 -14q-96 -25 -125 -84q-16 -37 -16 -127q-6 -47 -13 -139v-63q0 -84 -4 -105q0 4 4 -68q6 -115 6 -199q0 -74 -8 -110.5 t-8 -32.5q0 -18 9 -70.5t9 -89.5l-14 -461q-6 -4 -18 -4q-16 0 -43 76q-31 90 -35 96q-111 162 -172 295q-68 147 -135 297q-2 25 -4 76q-29 8 -78 41q-27 37 -119 225q-74 147 -102 148q-20 0 -25 -37q2 -102 2 -154.5t-2 -54.5q18 -68 18 -170l-16 -168l16 -299 q-23 -29 -22 -53q0 -4 20 -35q14 -20 15 -76q2 -63 6 -82q12 -43 74 -61q55 -14 108 -27q27 -6 78 -20v-27q-81 5 -123 5q-32 0 -41 -3q-33 -6 -35 -6q-6 0 -31.5 9t-29.5 9q-6 0 -34 -9t-34 -9t-46 7t-44 7q-6 0 -53 -11t-53 -11q-63 0 -62 0v28q0 14 39 23q23 4 43 8 q109 45 109 176q0 12 -3 37t-3 37q0 25 9 39t9 25v129q0 6 5 8t5 6v170q0 55 10 78l9 22q0 -12 -16.5 28t-16.5 122v461q-14 174 -379 489z" />
<glyph unicode="O" horiz-adv-x="1165" d="M31 827q0 164 96 476q12 2 25.5 6t15.5 14q80 354 502 354q63 0 141 -39q96 -49 100 -112q94 -31 158 -201q55 -143 55 -270q0 -6 -2 -52.5t-2 -50.5l16 -47q17 -47 17 -74q0 -102 -35 -247q-29 -113 -57 -224q-20 -2 -41 -20q-16 -139 -191 -277q-31 -23 -122 -51 q-99 -32 -173 -32h-4h-34q-55 0 -135 52t-91 101q-4 18 -22 19q-27 2 -29 4q-18 12 -43 49q-41 55 -86 202.5t-45 227.5q0 4 8 35.5t8 38.5l-15 47t-15 71zM272 795q0 -207 56 -424q27 -96 84 -185q25 -37 75 -82q42 -38 50 -38q4 0 45 11t45 11q6 0 14 -7t12 -7 q115 0 199 383q63 287 63 420q0 41 -18 188q-23 174 -45.5 252t-81.5 158q-47 43 -115 118q-16 -2 -55 -12t-45 -10q-4 0 -11 7t-14 7q-117 0 -198 -385q-59 -279 -60 -405z" />
<glyph unicode="P" horiz-adv-x="1146" d="M31 1622v18q18 6 57 2q29 -4 57 -8q27 0 81.5 4t52.5 4q6 0 40.5 -4t40.5 -4q4 0 39 2t39 2q6 0 49 -9t50 -9q-6 0 45 14.5t112 14.5q8 0 27 2q7 1 15 1t18 -1q27 -4 75 -19q8 -2 29 -25.5t39 -25.5q113 -18 172 -172q45 -115 45 -248q0 -80 -29 -164q-35 -102 -98 -143 q-20 0 -53 -12q-39 -33 -111 -78q-12 -6 -91 -20.5t-89 -14.5q-4 0 -51 7t-53 7q-43 0 -47 -20q-5 -40 -5 -70v-10q2 -32 2 -59q0 -53 -8 -84q-12 -55 -12 -41q0 -70 12 -199q12 -143 25 -164q18 -31 82 -53q84 -31 102 -41v-31q-8 4 -150.5 17.5t-185.5 13.5l-192 -8 q-39 0 -60 10q6 6 91 45q66 31 67 68v162q0 6 7 37.5t7 35.5v113q0 57 11.5 328.5t11.5 300.5q0 240 -47 397q-12 41 -86 82t-133 49zM492 846q0 -25 38 -25q4 0 50.5 11.5t50.5 11.5q6 0 11 -3t9 -3q88 0 168 112q70 98 70 170v152q0 4 7 8t7 10q0 10 -21.5 34t-23.5 28 q-33 84 -108.5 147.5t-149.5 63.5q-109 0 -109 -157q0 -17 1 -36v-524z" />
<glyph unicode="Q" horiz-adv-x="1146" d="M27 834q0 160 92 458q18 2 41 21q78 344 485 344q63 0 139 -43q86 -47 95 -107q0 -10 18 -12q12 -2 27 -4q27 -10 51 -55q51 -96 88 -224q35 -119 35 -188q0 -4 -9.5 -33.5t-9.5 -36.5l15 -42q16 -42 16 -72q0 -80 -35 -244q-33 -145 -57 -217q-16 0 -62 -94 q-55 -113 -118 -168q182 -275 432 -289q-41 -18 -62 -18h-86q-90 0 -231 77q-125 70 -211 156q-27 -10 -86 -23q-74 -4 -123 -4q-45 0 -123 47q-86 51 -90 101q-2 16 -20 18q-27 2 -29 4q-18 12 -43 47q-39 53 -83 199t-44 217q0 4 9 35t9 35q0 2 -15 47t-15 68zM260 807 q0 -123 39 -371q16 -102 92 -217q23 -37 74 -82q43 -39 49 -39t45 10.5t43 10.5q6 0 14.5 -6.5t12.5 -6.5q111 0 190 371q62 279 62 406q0 41 -19 192q-23 172 -43 234q-25 78 -78 151q-41 39 -112 115q-14 -2 -52 -12.5t-42 -10.5q-6 0 -13.5 6.5t-11.5 6.5q-57 0 -84 -35 q-8 -12 -51 -129q-51 -137 -88 -371q-27 -172 -27 -223z" />
<glyph unicode="R" horiz-adv-x="1142" d="M0 1616q14 14 41 16q18 2 54 -1t44 -3l271 4q4 0 46 -9t48 -9l178 26q74 0 113 -14q18 -25 67 -51q109 -10 170 -166q47 -119 47 -250q0 -78 -28 -162q-37 -106 -99 -151q-20 0 -53 -10q-31 -27 -60.5 -52.5t-70.5 -35.5q-33 -2 -102 -13q133 -43 270 -184 q147 -150 147 -264q0 -37 -17 -59.5t-17 -39.5q0 -61 97 -219.5t130 -158.5q4 0 6 2q4 2 25 -13q29 -16 36 -18q39 -14 80 -27q48 -19 52 -33q-27 -10 -43 -10q-6 0 -39 13l-33 14q-180 33 -324 252q-98 182 -198 362q-61 100 -144 201q-127 158 -186 158l-4 24q-10 2 -17 2 q-33 0 -33 -77v-20q1 -27 2 -51q0 -61 -8 -97q-12 -52 -12 -37q0 -6 4 -10.5t4 -10.5v-149q0 -139 37 -193q41 -63 174 -94v-25l-90 27h-237l-199 -10q-37 0 -57 12q47 23 94 45q61 31 63 68v159q0 -2 15 82l12 635q-2 18 3 59l5 40q0 260 -45 399q-12 35 -91 80t-128 47z M459 840q0 -27 39 -27q4 0 47 11.5t49 11.5q4 0 9 -2.5t11 -2.5q84 0 166 109q74 98 74 172v154q0 6 7 10t7 10l-61 111q-27 49 -101.5 106.5t-121.5 57.5q-78 0 -107 -62q-18 -41 -18 -135v-524z" />
<glyph unicode="S" horiz-adv-x="1083" d="M45 -10v-1q4 1 46 109q46 122 50 219q6 14 15 45q10 113 45 148q4 -4 20 -6q4 -31 4 -96q12 -31 17 -41q-2 -13 -2 -25q0 -83 68 -177q78 -108 155 -108q6 0 20.5 2t20.5 2q8 0 37.5 -6t48.5 -6q4 0 34.5 -2t34.5 -2q217 72 218 238q0 61 -95 170q-37 76 -168 155 q-143 86 -165 117q-12 16 -72 35q-68 20 -92 37q-14 10 -40 46t-36 38q-12 29 -51 159q-41 139 -41 156q0 55 35 113q8 27 16 55q12 37 35 53q8 84 18 84q6 0 12 -26l72 100q149 84 271 84h6q41 2 82 2q51 -2 77 -14l101 -41l71 43q10 14 41 49h27q0 -2 2 -9.5t2 -13.5 q0 -12 -20.5 -47t-28.5 -41q-20 -82 -66 -309q-18 -100 -55 -135q-10 82 -22 164q-12 92 -39 145q-37 82 -138 141q-4 -2 -4 -12q-16 12 -80 12q-86 0 -153 -116q-57 -100 -57 -185q0 -86 22 -125q12 -25 70 -71q72 -57 127 -125q121 -29 299 -156q217 -158 217 -289 q0 -6 -8.5 -22.5t-8.5 -20.5q0 -6 8.5 -25.5t8.5 -25.5q0 -61 -51 -174q-49 -104 -76 -121q-43 -25 -43 -39q0 -3 2 -6q-63 -41 -168 -92q-14 -4 -115 -18q-82 -10 -84 -11q-55 0 -104 17q-8 12 -53 16q-61 6 -74 10q-23 10 -45 21q-41 18 -56 18q-27 0 -71 -43 q-23 -20 -43 -43h-27q0 2 -2 9.5t-2 13.5z" />
<glyph unicode="T" horiz-adv-x="1228" d="M37 954q2 29 33 232q29 193 28 203q0 51 -21.5 128.5t-21.5 92.5q0 4 5.5 18t5.5 19h63q-4 0 80 -16.5t162 -16.5h118q4 0 33 -14.5t41 -14.5q-2 0 43 14.5t92 14.5h332q35 0 87 16.5t59 16.5q32 0 32 -23t-39 -111q-25 -49 -47 -98q-14 -10 -30 -37q-25 -115 -86 -348 q-4 -2 -9.5 -5t-9.5 -5q-8 27 -8 61q0 27 8 90.5t8 100.5q0 72 -24 135q-23 51 -78 94q-63 45 -127 45q-43 0 -57.5 -20.5t-14.5 -55.5l2 -59q-13 -143 -14 -143v2v-129q0 -84 -9 -125l-9 -41v-129q0 4 -4.5 -35t-4.5 -76q0 -12 7 -65q4 -39 0 -56q-18 -16 -60 -57 q14 -14 51 -37q18 -12 19 -39v-319q0 -61 86 -103q70 -31 137 -63q-27 -10 -74 -10q-4 0 -67.5 11t-69.5 11l-72 15l-186 -9q-14 0 -68 -8q-43 -6 -72 -6h-14q2 27 54 39q61 14 94 74q16 29 16 65v205q0 -2 6.5 54.5t6.5 174.5q0 94 -5 230q0 8 12.5 32.5t12.5 28.5 q0 6 -16.5 33t-16.5 31v135v-1l2 77q1 42 1 79t-1 70q0 92 -4 141q-4 41 -53 41q-35 0 -41 -4q-31 -23 -76 -92q-35 -59 -69 -117q-8 -43 -27 -118q-45 -115 -47 -123q-35 -80 -62 -101h-22z" />
<glyph unicode="U" horiz-adv-x="1490" d="M41 1599l4 27h383q72 2 209 21q6 -8 6 -17q0 -31 -22 -31h-10q-79 0 -115 -63t-36 -133q0 -21 3 -43q-23 -18 -25 -87t-41 -110l4 -20l15 4q-17 -32 -17 -63v-9q4 -46 4 -71q0 -17 -2 -25q-8 -25 -8 -21q0 -14 13 -208q14 -201 16 -238q4 -6 18 -4q16 -96 33 -191 q27 -127 131 -213q20 0 60 -2q74 -14 71 -41q35 -4 25 -4q27 0 69 35q-4 4 -16 4q2 0 10 -2h15q4 0 17 10.5t19 12.5q51 8 87 73q32 57 32 121q0 20 -2 35q-2 12 11.5 45t13.5 49q2 8 -2 43q-4 47 -4 127v285q0 61 8 82.5t53 58.5q-29 14 -65 56q-2 61 -7 190 q-4 147 -15 199.5t-42 68.5q-6 4 -88 31v45q6 0 22.5 3t22.5 3t47 -12t47 -12q88 0 219 16q109 12 136 21q9 2 21 2q28 0 69 -13q-16 -27 -62 -43q-33 -10 -67 -22q-63 -25 -80 -117q-4 -23 -4 -127v-213l-25 -55l27 -92l-2 -211q0 -6 -7.5 -9.5t-7.5 -7.5v-180 q0 -6 -2 -23.5t-2 -23.5v-203q0 -37 23 -129q27 -115 55 -121q53 -12 105 -37q65 -28 61 -53h-33q-147 0 -299 35q-4 0 -41 24.5t-73 24.5q-4 0 -14.5 -5t-14.5 -7q-9 1 -20 1q-23 0 -56 -3q-4 -2 -18.5 -12.5t-20.5 -10.5h-139q-4 0 -22.5 -7t-24.5 -7h-70 q-57 0 -165.5 55.5t-108.5 96.5q0 18 18 28q-80 39 -124 150.5t-66 126.5q4 39 43 67q-27 31 -29 110t-14 103q39 0 39 78q0 23 -5.5 89.5t-5.5 94.5v127q0 4 -9 52.5t-9 54.5q0 4 9 75.5t9 77.5q0 106 -20 148q-29 61 -125 65z" />
<glyph unicode="V" horiz-adv-x="1323" d="M-141 1778v28h116q43 0 84 -49q20 -27 39 -51q109 -33 197 -184q63 -131 129 -262q12 -12 37 -41q12 -20 8 -58q-6 -68 -6 -65q16 -12 45 -33q14 -100 39 -182q100 -328 119 -394q2 0 5 2.5t9 2.5q18 0 70 186q70 250 75 268q35 94 88 264q20 68 50 111q-4 12 -9 57 q2 43 23 90q-47 61 -115 84q-66 16 -129 35q-27 -4 -49 21q13 24 79 24h5q100 0 176 -13l76 -13q6 0 103.5 13t103.5 13q47 0 90 -14v-19q2 -29 -37 -36q-29 -4 -57 -9q-90 -27 -131 -106q-23 -41 -43 -137q-12 -12 -33 -39q-35 -111 -109 -328q-12 -8 -26 -33 q-4 -96 -54 -262q-86 -289 -98 -334q-55 -217 -119 -481h-2q-6 0 -20 8q0 53 -17 158q-68 203 -84 276q-10 68 -22 136q-25 137 -25 204q0 29 4 48q-78 66 -106 237q-29 164 -84 197l2 8t2 12q-16 8 -25 8q12 61 13 66q0 10 -21 16q0 8 8 47q-10 2 -26 9q-90 356 -260 491 q-18 14 -41 17q-31 0 -47 6z" />
<glyph unicode="W" horiz-adv-x="2121" d="M-135 1798q0 10 4 17h115q45 0 84 -50q20 -27 41 -51q20 -2 55 -12q80 -63 162 -205q12 -23 112 -221q8 -14 27 -45q10 -16 8 -55q-4 -68 -4 -66q14 -12 43 -33q6 -82 43 -192q70 -221 111 -375q2 -2 4 2t8 4q41 0 53 143q0 -8 4 -12l156 500q31 96 67 180q2 5 1 63v5 q0 54 18 84q-41 59 -150 92q-123 35 -141 51q16 18 82 18q84 0 252 -24q-2 0 66.5 10t142.5 10h86v-30q0 -23 -41 -29q-47 -8 -53 -12q-25 -14 -76 -43q-29 -20 -53 -62l-15 -121q0 -2 -8 -13t-8 -19q0 -25 25.5 -46.5t27.5 -29.5q14 -59 14 -84q-2 -41 -2 -33 q23 -23 48 -37q18 -96 90 -270q113 -270 125 -301q2 -12 -7 -60q-2 2 29 3q-5 -33 -5 -61q0 -21 3 -40q6 27 47 154q33 96 33 157q0 -8 4 -12q16 47 117 391q61 207 112 295l-6 31q-3 13 -3 26q0 40 22 89q-41 59 -140 90q-74 23 -145 43v28h77h54q6 0 98.5 -12t98.5 -12 t105 10t106 10q49 0 69 -6q7 -2 15 -8q-2 -29 -70 -55q-51 -20 -105 -41q-8 -16 -26 -43q-43 -45 -51 -94q-10 -57 -15 -66q-43 -68 -90 -211q-12 -55 -49 -151q-8 -6 -18 -25q-2 -39 -13 -119q-14 -63 -51 -168q-45 -125 -59 -170q-27 -90 -94 -373q-59 -247 -64 -247 q-4 0 -10 2t-8 2q-2 20 -9.5 65t-7.5 72q0 29 6 53q-4 4 -16 4q8 27 6 37q-27 -12 -26 -12q-23 0 -23 20v117q-14 16 -29 14q-33 145 -73 275q-29 86 -29 121q0 20 4 47q-41 8 -98 147q-43 106 -84 211q-55 -12 -90 -108q3 -13 3 -35q0 -29 -5 -74q-12 -49 -52 -164 q-74 -211 -122 -417q-45 -186 -91 -375q-8 -2 -22 8q0 53 -17 156q-72 221 -84 284.5t-20 124.5q-29 141 -29 199q0 31 7 49q-76 66 -105 236q-29 162 -82 194l2 8t2 13q-16 8 -26 8q12 61 12 63q0 10 -21 17q0 8 9 47q-10 2 -25 8q-102 424 -340 508q-10 0 -10 14z" />
<glyph unicode="X" horiz-adv-x="1585" d="M-98 1647v14q295 -57 340 -57q2 0 156.5 24.5t183.5 24.5q35 0 30 -35q-29 -8 -96 -45q-51 -37 -51 -74q0 -12 74.5 -153.5t74.5 -176.5q-2 -8 23 -28q29 -27 39 -41q2 -2 104 -180q39 63 152 254h1q11 0 48 55q57 80 72 96q2 20 9 59t48 93q-23 61 -117 92 q-70 23 -137 45q10 28 134 28h9q6 0 97.5 -12t97.5 -12q4 0 110.5 10t112.5 10h80v-24q-12 -10 -29 -35q-102 0 -161 -41q-104 -70 -172 -221q-16 -14 -45 -45q-61 -88 -172 -268q-29 -39 -64 -123q0 2 -6 8q-23 -25 -23 -60q0 -4 81 -129t85 -194q0 -27 37 -53 q47 -35 55 -45q102 -150 240 -324q43 -37 133 -49t115 -37q-2 -20 -29 -21q-6 0 -69.5 11.5t-69.5 11.5h-176q-4 0 -43 15.5t-45 15.5q-12 0 -29 -25q-16 0 -56 -3t-44 -3q-51 0 -64 18q2 6 44 22.5t42 41.5q0 49 -143 313q-121 225 -158 277q-37 -59 -115 -154q4 -4 9 -4 q-63 -106 -152 -201q-6 -47 -37 -125q-18 -27 -18 -26q0 -45 100 -84l156 -58q-10 -24 -62 -24h-4q-117 0 -199.5 13.5t-78.5 13.5q-4 0 -108.5 -11.5t-110.5 -11.5q-57 0 -78 10q-6 12 26 49q78 14 109 25q61 25 108 74q68 76 237 325.5t169 272.5q0 10 -55.5 119.5 t-79.5 144.5q-121 166 -299 416q-23 31 -68 80q-63 47 -180 92q-98 37 -98 39z" />
<glyph unicode="Y" horiz-adv-x="1161" d="M-123 1765q0 6 2 11.5t2 9.5q18 -2 57 1l39 3q37 0 70 -18q25 -14 57 -56q37 -49 50 -59q4 -4 55 -17q12 -2 51 -49q16 -25 47 -57q125 -207 199 -434q8 -18 24 -33q18 -49 50 -184q16 -6 28 18q8 18 54 156q39 119 69 162q-1 15 -1 31.5t1 35.5q18 104 18.5 104.5 t9.5 36t19 43.5q-43 61 -141 91q-72 23 -145 45v26q7 1 22 1q43 0 152 -9q160 -14 157 -14q4 0 103.5 10t105.5 10q64 0 84 -14q0 -2 -16 -43q-152 -8 -223 -148q4 -2 -5.5 -22.5t-5.5 -20.5q-2 -8 -6 -26q-78 -215 -233 -647q8 -8 18 -9q20 2 21 2q-16 -27 -48 -77 q4 -2 13 -9q-4 -55 -4 -170q-12 -8 -25.5 -29.5t-13.5 -29.5q0 -12 15 -23.5t22 -29.5q0 -2 14 -117q12 -104 35 -141q16 -29 84 -39q106 -18 114 -21v-16q-25 -16 -38 -16q-4 0 -34 7t-57 9q-37 -3 -121 -3q-42 0 -96 1q-10 0 -37.5 9t-31.5 9q10 0 -52.5 -14t-121.5 -14 q-4 0 -14.5 3t-14.5 3q10 14 74 39q55 20 59 47q14 82 41 262l4 223q0 4 -10 12.5t-10 12.5v18q0 39 -6 105q-12 12 -25 35v126q-8 80 -53 95q4 2 -7.5 29.5t-11.5 31.5q0 16 -20 21q0 23 8 55q-14 8 -25 8q-8 119 -135 377q-59 123 -119 190q-72 78 -141 84z" />
<glyph unicode="Z" horiz-adv-x="1251" d="M18 10q109 45 142 68q84 51 88 110h33q2 4 2 21q16 2 47 8q-8 10 -8 16q0 16 30.5 42t32.5 34q49 127 117 295q57 143 180 436q84 172 86 291v152v6q0 41 -49 65q-41 20 -92 27q-19 2 -37 2q-164 0 -215 -168q-20 -62 -20 -136q0 -43 7 -91q2 0 -12 -88q-14 8 -22.5 38.5 t-16.5 57.5q-14 39 -37 158q-16 92 -32 104q0 6 -34 86t-34 94q0 29 29 29q2 0 53 -15.5t68 -15.5h274l12 -12q6 0 51.5 9t51.5 9q4 0 24.5 -7t24.5 -7q6 0 39 7t39 7l393 3q-78 -33 -156 -68q-77 -38 -77 -100q0 -8 1 -17q-18 0 -48.5 -16.5t-41.5 -34.5q2 -2 21 -2 q-55 -80 -103.5 -193.5t-48.5 -177.5q-2 -8 -35 -61q-16 -27 -22 -70q-6 -51 -8 -59q-31 -66 -64 -170q-29 0 -43 -29q-16 -37 -30 -74q8 -4 16 -4l6 -16q4 -12 0 -16q-39 -35 -45 -56q-6 -39 -14.5 -77.5t-34.5 -77.5l-25 -39v-105q0 -49 41 -81.5t88 -32.5q4 0 20.5 4 t22.5 4t49 -6.5t50 -6.5q29 0 71 11q55 14 64 30q113 96 137 414q10 2 31 0q10 -96 45 -278q16 -66 106 -217v-37q-61 2 -139 12q-66 8 -154 8q-4 0 -43 -2t-43 -2t-14 7t-16 7q-4 0 -33 -10t-35 -8q-35 16 -78 16q-18 0 -55 -4t-55 -4q-6 0 -24.5 7t-22.5 7q-6 0 -42 -7 t-40 -7q-6 0 -96.5 5t-96.5 5q-68 0 -78 -4q-70 -29 -118 -43q4 8 12 27q-6 2 -17 14z" />
<glyph unicode="[" horiz-adv-x="1433" />
<glyph unicode="\" horiz-adv-x="1433" />
<glyph unicode="]" horiz-adv-x="1433" />
<glyph unicode="^" horiz-adv-x="1433" />
<glyph unicode="_" horiz-adv-x="1433" />
<glyph unicode="`" horiz-adv-x="1433" />
<glyph unicode="a" horiz-adv-x="1097" d="M-549 -303q10 4 41 24q81 -71 188 -71h3q199 0 311 258q-4 2 -10 8q215 459 276 731q-12 6 -67.5 19.5t-65.5 13.5q-2 0 -22.5 -6t-28.5 -6h-29l-6 6h-2q-4 6 -4 14q0 84 160 84q4 0 30.5 -2t32.5 -2q61 0 88 43q16 27 26.5 97.5t24.5 97.5q37 86 125 264q43 78 41 108 q-49 33 -246 74q-182 39 -206 80v22q20 12 34 13q6 0 27 -8q113 -41 201 -62q18 -4 157.5 -19.5t155.5 -15.5q61 0 328 17v-25q0 -29 -45 -39q-38 -47 -38 -191q0 -26 1 -55v-17q0 -104 -47 -146q2 -8 19.5 -44t17.5 -44v-144q0 -10 -4.5 -101t-4.5 -110q0 -78 13 -254 q14 -197 24.5 -218t46.5 -40q51 -23 57.5 -28t22.5 -15v-26q-20 -6 -49 -7l-244 33q-10 0 -28.5 -6t-26.5 -6h-141v8l-2 6q-2 8 -2 21q31 8 62.5 17t49.5 36q14 20 29 147q12 113 12 166q0 215 -41 238q-17 9 -57 9q-13 0 -29 -1q-137 -6 -161 -6q-49 0 -54 -14 q-72 -293 -252 -625q-233 -428 -438 -428h-117q-25 0 -82 44t-55 83zM440 782q0 -49 52 -49h108q78 0 98 12q31 16 31 89q0 27 -8 60.5t-8 43.5q0 4 18 61q2 10 2 13q0 6 -12 26.5t-12 26.5v133q0 98 -11 156q-6 32 -21 32h-1q-16 0 -76 -161q-70 -188 -133 -254v-27 q0 -76 -23 -145q-4 -12 -4 -17z" />
<glyph unicode="b" horiz-adv-x="1038" d="M6 1479q25 0 80 -3t57 -3l252 4q6 0 70 -19v4q2 6 6 11h162q27 0 47 -13q37 -27 106 -55q63 -8 113 -121q43 -94 43 -154q0 -94 -43 -174q-55 -96 -160 -131q18 -8 35 -24l8 -6q12 -12 31 -17q96 -20 152 -116q38 -66 38 -130q0 -15 -2 -30q14 -59 15 -84q0 -6 -12 -35 q-4 -12 10 -16q-35 -106 -176 -230q-122 -108 -167 -108h-5q-2 2 -14.5 -7.5t-20.5 -9.5q-74 -14 -162 -14q-4 0 -73.5 6t-76.5 6q-119 0 -197 -12q-71 -11 -72 -12h1q-35 0 -39 28q10 6 121 33q74 18 84 55q4 18 10 134l13 229q0 37 14 92q-8 39 -8 71v13q2 43 6 199v12v12 q0 66 47 105q0 2 -29 22q-20 16 -20 29q0 8 12 16q-20 33 -26 111q-4 59 -7.5 119.5t-25.5 93.5q-14 20 -79 53t-110 35q-8 8 -8 31zM428 412q0 -6 4 -13.5t4 -13.5v-143q0 -2 10 -66q8 -70 11 -100h45q121 0 217 129q88 115 88 223q0 49 -14 86v4q-2 4 2 4h-4q0 14 6 21 q-41 78 -109 139q-74 70 -133 70q-27 0 -54.5 5t-29.5 5q10 0 -27 -12q6 -20 6 -65t-6 -116q-4 -43 -10 -104q-6 -51 -6 -53zM444 840h37q100 0 174 102q66 90 66 188q0 79 -53 132q-59 61 -62 61q-45 43 -67 49q-68 16 -50 17h-16q-12 -29 -20.5 -89.5t-8.5 -125.5v-334z " />
<glyph unicode="c" horiz-adv-x="1048" d="M31 739q0 96 35 226q31 111 59 221q29 -8 43 33q10 33 18 67q86 150 174 180q135 49 234 50q162 0 244 -127q35 -53 41 -54q18 0 76.5 83t91.5 83h22v-28q0 -4 -27 -56q-30 -61 -32 -63q-6 -14 -17 -29q-23 -31 -67 -182q-61 -203 -62 -203h-30q1 18 1 37q0 109 -49 240 q-76 202 -224 202h-1q-57 0 -78 -16q-55 -39 -94 -133q-14 -29 -45 -129q-68 -289 -68 -428q0 -500 230 -650q111 18 164 43q82 39 125 115q48 91 72 91q2 0 5 -1q10 -27 11 -45q0 -25 -25 -76q-43 -92 -153 -159q-102 -63 -185 -64q-86 0 -162 35q-90 41 -110 115 q-86 33 -148 188q-57 141 -57 266q0 10 9 37t9 33q0 4 -15 48t-15 50z" />
<glyph unicode="d" horiz-adv-x="1230" d="M29 1473q0 23 6 36h51q33 0 111 -14q27 -8 67 -16l463 -17q190 -6 336 -231q121 -191 121 -362v-21l10 -25q8 -31 8 -69q0 -133 -39 -275q-49 -182 -137 -217q12 -39 4 -53q-23 -41 -92 -100q-80 -66 -137 -78q-172 -37 -264 -37q-358 0 -467 -10q20 35 54 48t66 25 q45 14 58 33q4 8 18 66l4 12q25 92 25 127v262q0 45 2 116.5t2 123.5q0 33 -10 84q-16 68 -19 86q-4 34 -4 91q0 28 1 62q1 44 1 78q0 44 -2 70q0 25 -6 69q-25 78 -129 99q-74 14 -102 37zM475 408q0 -4 8.5 -19.5t8.5 -19.5q6 -25 6 -127v-127q0 -4 12 -21.5t20 -17.5 q131 0 248 109.5t142 263.5q2 6 4 10l4 2l2 4q8 8 23.5 108.5t15.5 124.5q0 53 -11.5 161t-11.5 112q4 8 12 26l9 17q2 4 2 6q0 8 -18.5 16t-22.5 13q-16 16 -62 118q-12 25 -26 45q4 39 -87 113t-153 74q-76 0 -94 -53q-8 -25 -8 -117v-154q0 -8 -11.5 -34.5t-11.5 -30.5 q0 -23 11.5 -41.5t11.5 -20.5v-153q0 -23 -6.5 -80.5t-6.5 -79.5v-127q0 -6 -5 -50t-5 -50z" />
<glyph unicode="e" horiz-adv-x="1116" d="M20 1481l78 6q4 -4 6 -8h5h331q8 0 23.5 -6.5t23.5 -6.5q4 0 21.5 6.5t23.5 6.5q16 0 48 -8.5t49 -8.5q266 0 266 11l109 22l53 -14q0 -12 -29 -64q-16 -33 -35 -65q-8 -18 -12 -52q-2 -12 -14.5 -23t-14.5 -17q-35 -168 -84 -320q-31 24 -31 92q0 10 1 21q2 18 6 67 q4 43 4 62q0 225 -236 225q-100 0 -125 -55q-16 -43 -16 -115v-383q14 -10 35 -10q18 0 55 6q102 20 148 51q14 10 32 19q20 -12 21 -37q0 -16 -25 -74q-31 -70 -33 -77t-4 -27q-6 -53 -32 -144q-25 25 -27 82q-4 70 -14 90q-2 6 -41 31q-6 6 -23 6q-2 0 -6 -6l-2 -4 q-6 -8 -14 -8q-6 0 -21.5 5t-21.5 5q-4 -2 -9 -2l-10 -2q-8 -2 -16 -2q-10 -55 -10 -135v-148q0 -8 -2 -34.5t-2 -30.5q0 -184 6 -232q4 -33 20 -61l2 -6q29 -14 72 -37q5 -3 44 -3q19 0 46 1l113 4q35 12 43 26q25 0 59 88q33 78 33 93q0 4 -9.5 96t-9.5 98v-1q1 0 15 106 l6 6h-2h2q6 4 14 4q18 0 25 -23q10 -45 26 -131q16 -68 41 -194q10 -74 95 -203l12 -16q4 -8 4 -13v-41q-10 0 -43 4l-72 11q-104 16 -108 16t-105 -2h-106q-2 0 -6 -4t-11 -4q-8 0 -14 6t-8 6h-316q-129 0 -155 -2q-39 -8 -111 -18l-4 4h-2l-2 2q-4 4 -4 14q0 16 57 29 q37 6 74 14q84 20 84 105q0 10 -6 73q-1 15 -1 28q0 26 5 42q6 20 6 38q0 26 -14 46h30q-4 4 -4 10q0 8 23.5 26.5t23.5 20.5q-2 0 -6 6q-45 45 -45 101q0 47 2 51l15 86q0 8 -2 33.5t-2 54.5h-15h1h-97q-14 -2 -35 16v21q61 39 152 59q-2 4 -2 25q0 31 4 100q2 31 0 51 q-41 100 -49 293q-2 41 -60 68q-20 6 -53 24q-12 8 -46 19.5t-59 38.5z" />
<glyph unicode="f" horiz-adv-x="1071" d="M23 1475l83 6q4 -4 6.5 -6t4.5 -2h323q8 0 26.5 -6.5t25.5 -6.5q6 0 21 6.5t24 6.5q6 0 47 -9q4 0 49 -8q-2 6 -2 12h270q29 0 98 25q14 4 23 4q33 0 33 -24q0 -12 -20.5 -48t-49.5 -110q-2 -8 -6 -27q-12 -10 -27 -31q-35 -168 -84 -317q-29 21 -29 87q0 13 1 28 q0 20 4 73q4 45 4 64q0 211 -234 211q-88 0 -113.5 -52.5t-25.5 -115.5v-201q0 -4 -10 -17t-10 -20q0 -8 20 -28v-115q8 -8 51 -8q39 0 105 20q74 23 100 49h23q8 -8 8 -22q0 -16 -25 -78q-29 -72 -32 -82t-5 -33q-6 -47 -32 -139q-23 41 -27 84l-8 86q-10 41 -64 41 q-2 0 -10 -9t-14 -9q-8 0 -22.5 4t-20.5 4h-8l-13 -2q-4 -2 -12 -2q2 -4 2 -10l-16 -158v-228l4 -133q2 -29 26 -90q2 -53 72 -84q41 -14 127 -63q-43 -10 -76 -10q4 0 -77.5 15t-188.5 15q-135 0 -281 -22q-4 4 -6 4l-2 2l-2 2q-4 4 -4 14q0 6 162 54q45 14 45 67v11 q0 54 18 69l4 162q6 6 3 14l-7 14v148q4 4 7 6l10 6q-12 33 -13 35q0 8 9 41l6 23q2 4 2 8l-4 30q-4 29 -4 66l-13 2h1h-95q-4 -2 -37 14q-2 20 66 49q43 16 86 33v88l-45 355q2 53 -68 92q-49 20 -157 76z" />
<glyph unicode="g" horiz-adv-x="960" d="M25 764q0 94 30 221q31 106 62 215q31 -10 33 8q23 182 184 265q16 8 97 28.5t116 20.5q59 0 219 -54q14 -6 31 -10q29 0 114 88l13 -10q14 -10 14 -25q0 -6 -7 -23.5t-7 -27.5q-18 -2 -17 -10q2 -16 0 -20q-14 -8 -33 -37q-12 -61 -32 -183q-8 -45 -23 -120 q-14 -53 -49 -82q-6 29 -20 145q-10 98 -29 145q-6 14 -64 74q-63 66 -84 66q-135 0 -174 -64q-45 -76 -71 -176q-76 -276 -76 -471q0 -225 27 -340q47 -213 190 -307q2 0 74 8q35 4 75 26q37 22 37 86v7q-2 27 15 47q10 12 10 14v123q0 23 -23 135q-20 106 -24 111 q-14 16 -48 30.5t-61 12.5l15 39h233q6 0 18.5 -4t18.5 -4q4 0 47 6l29 4q14 2 18 2q2 0 23 -4q4 -2 12 -2v-45q0 -8 -21.5 -23.5t-25.5 -23.5q-23 -45 -23 -126q0 -23 2 -48q-6 2 -10 2q-27 0 -37 -47q10 -8 25 -7q18 -33 -4 -51l-2 -63l2 -70q18 -16 28.5 -75.5 t47.5 -106.5v-33h-29q2 0 -72 37q-23 12 -55 10h-10q-16 -2 -23 6q-29 -2 -82 -12q-4 -2 -76 -35q-31 -14 -84 -14q-80 0 -151 35q-80 41 -109 110q0 2 -34.5 20.5t-49.5 47.5q-43 76 -77.5 193.5t-34.5 191.5q0 6 8 33.5t8 33.5l-12 40t-12 67z" />
<glyph unicode="h" horiz-adv-x="1392" d="M-14 1487h383q8 0 39 -6l24 -4q8 -2 12 -2q84 0 82 0q23 12 90 12q-2 -33 7 -60q-121 -4 -162 -49q-31 -35 -31 -127l-4 -170q0 -6 -2 -14l-6 -20q-8 -31 -8 -37q0 -2 2 -4l2 -2l4 -5q16 -18 18 -57v-63q25 0 71 2t48 2q8 0 32.5 -4.5t37.5 -4.5q4 0 36.5 2.5t36.5 2.5 h199q6 0 23.5 -10.5t21.5 -10.5q45 0 45 86q-1 18 -27 144q-25 117 -24 198v15q0 59 -76 98q-63 23 -129 45q-8 2 -8 6l2 4t2 6q0 8 -10 17l387 6q4 0 37 -6l22 -4q8 -2 13 -3q6 0 22 6.5t23 6.5q6 0 16 -4t14 -4t10.5 2t10.5 2q20 -1 45 -11v2q4 8 12 13l19 -25 q-18 -12 -34 -21.5t-46 -13.5q-37 -6 -74 -32q-27 -20 -27 -119l-16 -187q-8 -76 -8 -79q0 -2 12 -17.5t12 -23.5l7 -162q0 -12 -9 -33l-4 -4q8 -18 -2 -37q-12 -27 -14 -67v-8q0 -24 8 -85l12 -106q2 -8 -6 -24.5t-8 -18.5q0 -76 23 -264q4 -45 53 -74q43 -18 86 -39 q0 -8 22 -43q-51 2 -155 12q-84 8 -136 8q-82 0 -161.5 -12t-77.5 -12h-45q-4 4 -4 6l-2 4q-2 2 -9 10q23 25 123 37q61 8 78 60q6 49 12 100q18 6 13 41q0 6 -2 18l2 -18l8 2q-7 10 -7 55q0 18 1 41q4 76 10 97q0 2 -8 51q-4 10 -4 14q0 31 18 53v111q0 10 -4 37.5t-4 46.5 q-4 0 -59 20q-6 0 -13 2h-116q-6 0 -18.5 2t-16.5 2h-148q-14 0 -37.5 10.5t-29.5 10.5q-14 0 -60.5 -16.5t-53.5 -29.5q-5 -10 -5 -44v-21q4 -63 4 -73q-8 -90 -8 -105q2 -8 0 -49l-2 -45q0 -119 24 -268q8 -47 54 -76l86 -37q33 -14 55 -39q-18 -10 -51 -10q-4 0 -132 12 t-132 12q-90 0 -186 -14q-89 -13 -90 -14h1q-10 0 -22 10l-13 12q16 8 109.5 35t99.5 72q0 29 1 56.5t16 49.5l4 158q6 4 4 39q0 35 -8 53v90q10 0 16 4v115q0 8 -4 30.5t-4 59.5h-15h-96q-16 0 -33 17q-2 25 23 32q41 18 129 47v97q0 31 -29 166q-25 108 -25 158q0 9 1 16 q1 6 1 11q0 49 -50 81q-14 8 -103 43q-41 16 -63 43z" />
<glyph unicode="i" horiz-adv-x="550" d="M18 -4v37q59 4 74 8q37 12 55 47q14 29 23 318l6 305q0 4 4 13t4 17q0 4 -8 76t-8 78v147q0 2 -9 30t-9 44v-3l4 134q1 24 1 44q0 76 -12 104q-8 14 -41 32q-34 17 -60 17h-7v31q25 12 45 12l219 -4q27 -8 39 -8q4 0 36 6t38 6h120v-27q-2 -14 -28 -20q-33 -7 -41 -13 q-63 -51 -64 -106v-125q0 -27 -14 -158q-33 -20 -51 -39q10 -12 28 -36q6 -12 5 -41q-4 -33 -13 -43q6 -27 6 -58v-35l7 -301q0 -10 -19 -69l-14 -51q0 -2 -2 -5q0 -10 12 -22l6 -6q16 -16 19 -62q2 -76 4 -90q4 -55 18 -88q39 -31 96 -74q-4 -4 -8 -10v-2q-4 -6 -14 -6 q-6 0 -93 8t-91 8q-6 0 -24.5 -6t-25.5 -6h-116q-4 0 -16.5 -4t-18.5 -4h-62z" />
<glyph unicode="j" horiz-adv-x="1161" d="M41 498v51q20 -6 31 -2h6h244q6 0 17 -4t17 -4q8 0 60 6q61 6 110 8l4 -47q-31 -10 -73 -37q-23 -31 -33 -90.5t-21 -75.5q4 -63 84 -190q16 -27 25 -45q14 2 49 -2q4 4 5 12t30 8q8 -12 10 -16q70 2 127 157q45 121 45 166l15 -2q10 0 10 2q0 8 -6 29.5t-6 32.5v350 q0 -2 3 54t3 85q0 66 -13 191q-8 43 -8 108q-2 100 -16 129q-25 49 -119 60v38q23 12 47 13q10 0 43 -10.5t41 -10.5q18 0 108.5 7.5t96.5 7.5q33 0 81 13t64 13q-10 0 60 -6l4 -29q-25 -8 -72 -28q-16 -12 -55 -25q-45 0 -60 -61q-7 -34 -7 -88q0 -22 1 -47q0 -25 2 -59 t2 -40v-129q0 -16 -22 -33q-35 -23 -37 -22q4 -4 20 -16q35 -27 35 -60q-4 -31 -6 -61q-4 -39 4 -56l13 -67q-14 -12 -15 -10v-172q0 -14 -7 -76q-5 -48 -5 -83v-18q-27 6 -27 -14q-2 -35 -41 -106q-98 -182 -348 -226q-3 -1 -10 -1q-9 0 -27 2q-28 3 -35 3q0 14 -20 17 q-49 6 -53 8q-31 6 -51 20q-58 41 -69 41h-1q-2 12 -25 31q-2 12 4.5 25.5t6.5 17.5v6h-2q-8 -6 -19 -6q-2 4 -39 45q-20 45 -51 133q-1 6 -1 23.5t1 46.5q0 45 -16 70q-6 12 -45 31q-30 15 -54 15q-7 0 -14 -1z" />
<glyph unicode="k" horiz-adv-x="1239" d="M18 1452v21q10 16 48 16q4 0 125.5 -13.5t138.5 -13.5l301 43q10 0 37 -12q-16 -39 -94 -67.5t-95 -65.5q-2 0 -8 -68q-4 -80 -25 -241q0 -4 -13 -22.5t-13 -24.5q0 -72 10 -134q2 -20 16 -20q43 0 123 98q41 51 86 113l84 110q18 27 66 70q10 6 39 23q18 100 180 200 q150 94 254 95q12 0 53 -3q15 -1 27 -1q30 0 45 4v-39q-18 2 -35 2q-106 0 -231 -117q-23 -25 -181 -207q-80 -94 -137 -137q2 0 2 -2q0 -37 -14 -49q-104 -104 -258 -179q-55 -27 -55 -30q0 -20 14 -23q113 -10 268 -143q164 -143 164 -266q0 -31 -16 -54l-4 -8 q-10 -12 -11 -22l17 -27q37 -84 76.5 -164t132.5 -135q61 -35 139 -53q-2 -14 -18.5 -23.5t-24.5 -9.5q-14 0 -117 35q-127 45 -225 207q-72 139 -146 278q-49 94 -184 248q-72 82 -106 82q-29 0 -29 -39q0 2 10 -147q2 -113 10 -275q4 -41 11 -80q8 -45 25.5 -72.5 t66.5 -41.5q39 -10 81 -21.5t87 -34.5q2 -10 -10 -37q-74 4 -236 15q-117 10 -231 10q-92 0 -146 -14v41q68 4 114 50q38 38 38 86q0 10 -2 21q24 102 24 125q0 4 -3 9.5t-3 11.5v340q0 2 -4 10t-4 14q0 18 12 64l10 33q4 12 5 14q-2 6 -11 20q-14 20 -16 35q0 37 -2 111 q-14 102 -31 311q0 92 -127 143q-23 8 -74 27z" />
<glyph unicode="l" horiz-adv-x="1097" d="M-25 1464q23 25 48 25q4 0 40.5 -4t40.5 -4q6 0 58.5 4t56.5 4q6 0 50 -4t48 -4h11l16 4q25 4 29 4q8 0 34.5 -8t32.5 -8q12 16 43 16q6 0 48 -8t47 -8q4 0 4 2v8h34v-58l-94 -12q-55 -12 -80 -43q-26 -33 -26 -79q0 -17 4 -36q4 -35 4 -47l4 -440q-10 -12 -16 -8h-2 q2 6 4 6q6 4 6 0v-4q4 -25 4 -111q0 -4 -2 -6l-4 -6q-2 -4 -2 -8v-146q0 -4 6 -13t6 -15t-8 -22.5t-8 -20.5q0 -6 6 -22.5t6 -22.5v-107q0 -84 10 -117q23 -63 90 -63q47 0 63.5 -4t49.5 -4q29 0 68 8q47 12 51 29q43 16 98 190q7 25 7 61q0 14 -1 31q-2 82 -2 96 q12 12 23 13q10 0 15 -7.5t7 -23.5l2 -12q8 -29 20.5 -86.5t30.5 -93.5q-2 -16 0 -46q47 -125 111 -202v-47q-8 0 -45 6l-78 10q-113 16 -117 16h-127q-4 0 -39.5 -8t-42.5 -8q-6 0 -18 6t-16 6t-92.5 -6t-92.5 -6t-43 4t-45 4t-20.5 -4t-20.5 -4h-100q-4 0 -54 -10t-57 -10 h-39q-4 4 -4 6l-4 4q0 2 -6 8q20 37 90 41q127 8 127 127q0 23 -4 66.5t-4 66.5q0 49 14 82q5 0 9 -2q-4 6 -5 12q0 8 25 25.5t25 19.5h-2l-7 6q-45 51 -45 103q0 10 15 16l2 2v115q0 4 -4 35.5t-4 54.5h-5l-6 2q-2 2 -10 6v84q16 0 27 4q-3 7 -3 19q0 18 7 45l-6 47 q-3 19 -3 34q0 20 5 33q-49 120 -49 242v23q0 65 -72 96q-16 8 -31.5 16t-30.5 29q-6 10 -16 20q-16 8 -31 0l-6 -4q-14 -8 -33 0z" />
<glyph unicode="m" horiz-adv-x="1327" d="M-305 31v57q16 -6 45 -25l-6 -32h-39zM-252 1694q0 8 4 12v2l6 6q27 4 82 15q12 2 17 2q57 0 82 -15q31 -20 59 -41q25 -12 63 -20q20 -29 64 -58q35 -27 70 -51q61 -47 98 -106q31 -47 31 -90q14 -14 45.5 -26.5t48 -35t20.5 -92.5q4 -2 39 -20q20 -74 103 -211 q92 -158 116 -215q0 -29 25 -80q6 0 14 -6l2 -2q6 14 31 49q45 68 92 194q68 195 72 203t4 25q-2 35 -2 38h20v3v14q10 10 39 57q135 225 201 225h29v-30q-25 -6 -49 -76q-20 -61 -21 -100v-121q0 -35 -12.5 -115t-12.5 -100q0 -4 6.5 -19.5t6.5 -21.5v-117q-8 -193 -8 -211 q0 -4 4 -15.5t4 -15.5v-108q0 -14 28 -293q6 -47 91 -78q14 -8 40 -26v-33h-81q-4 0 -97 14l-61 10q-27 4 -33 4q-4 0 -71.5 -6t-71.5 -6q-20 0 -49 10v31q123 12 122 125v131q0 10 -2 22.5t-2 20.5q0 29 17 92l-4 289q-10 10 -31 0q18 39 18 45v105q25 35 25 59q0 16 -2 22 q-23 -12 -35 -44.5t-24 -61.5h2h18q-16 -33 -23.5 -74t-19.5 -69q-61 -150 -61 -222q0 -29 8 -53q-31 -39 -47 -102q-10 -55 -23 -113q-8 -45 -27 -86q-2 2 -36 31q-4 41 -123 315q-104 250 -101 295q-61 27 -143 203q-78 166 -92 166t-14 -33q0 -221 16 -358l-12 -168 l8 -228q-16 -68 -17 -51q0 -2 7 -12q26 -55 26 -107q0 -14 -2 -28q-4 -31 12 -45q27 -23 99 -43q53 -16 106 -33v-39q-80 9 -115 9q-12 0 -18 -1q-41 -8 -39 -8q-6 0 -21.5 8t-19.5 8t-31.5 -6t-33.5 -6q-4 0 -34 4t-34 4q-14 0 -44 -10t-44 -10l-20 4q-14 2 -27 0l-6 4 q-4 4 -4 16q0 18 53 43q61 29 68 37q35 45 35 101q0 10 -1 20q-2 16 -8 45q-2 25 4 35q14 27 15 39v110q0 6 4 12.5t4 8.5v174q0 35 6 47l2 6q4 6 4 21q0 4 -4 22q-20 104 -20 156v328v18q0 56 -11 90q-23 72 -119 182q-137 160 -248 160h-3q-20 -2 -21 25z" />
<glyph unicode="n" horiz-adv-x="1230" d="M-125 1696h119q4 0 18 -13q23 -16 41 -14q43 6 51 4q23 -4 37 -35q12 -23 23 -47q4 -6 48 -13t58 -19q35 -29 95 -107q78 -102 90 -117q16 -6 45 -26q29 -38 29 -92q0 -11 -1 -23q18 -8 54 -25q47 -111 143 -266q145 -229 160 -256q18 23 18 90v178q-31 33 -31 117v129 v11q0 58 -18 159q-18 41 -98 70q-59 16 -121 33h-4q-30 0 -49 32q25 23 90 23q55 0 237 -25q-2 0 63.5 10.5t137.5 10.5h88v-33q0 -2 -2 -6l-4 -8q-6 -10 -8 -21q-20 -2 -74 -12q-84 -23 -106 -72q-15 -31 -15 -103v-9q-6 -41 -12 -125q0 -31 1 -56q0 -75 -5 -96q0 4 4 -57 q6 -104 6 -178q0 -68 -7 -101t-7 -28q0 -16 8 -62q6 -37 6 -69v-15l-12 -414q-8 -8 -21 -8q-20 0 -63 125q-8 27 -13 33q-74 106 -147 260q-66 135 -129 270q-2 27 -4 68q-25 6 -68 37q-25 35 -108 203q-63 129 -84 129q-14 0 -17 -29q2 -87 2 -133.5t-2 -52.5 q16 -72 17 -152l-15 -149l15 -271q-20 -27 -21 -47q0 -2 19 -27q12 -20 12 -69q2 -59 6 -76q10 -35 70 -51q45 -12 90 -23q23 -4 74 -18v-35q-79 4 -118 4q-26 0 -34 -2q-31 -6 -35 -6q-6 0 -26.5 8t-26.5 8q-4 0 -29.5 -8t-31.5 -8q-12 0 -41 6t-39 6q-4 0 -47 -10 q-37 -2 -109 -12v35q0 23 66 30l8 2q53 6 80 74q17 41 17 80q0 15 -3 31q-3 19 -3 34q0 20 6 32q11 22 11 24v117q0 4 7 14v151q0 51 10 72q2 6 6 16l-2 5q-25 33 -25 131v413q0 92 -121 228q-70 80 -229 217z" />
<glyph unicode="o" horiz-adv-x="1052" d="M29 748q0 147 86 430q16 2 35 14q74 324 454 324q55 0 127 -35q86 -43 94 -105q84 -31 142 -182q49 -129 49 -244q0 -4 -2 -45v-47q6 -18 12 -39q14 -43 14 -67q0 -92 -28 -215q-27 -107 -54 -211q-6 -4 -24 -11q-6 0 -12 -6q-14 -127 -172 -250q-29 -23 -111 -49 q-89 -28 -154 -28h-4h-32q-51 0 -125 48t-82 95q-2 10 -20.5 11t-22.5 5q-16 10 -41 45q-37 51 -78 183.5t-41 205.5q0 8 8 33t8 33l-13 42t-13 65zM256 719q0 -186 49 -379q23 -86 74 -164q23 -33 61.5 -69.5t44.5 -36.5q8 0 40 10t40 10t15.5 -6t9.5 -6q96 0 170 338 q57 258 57 375q0 37 -16 167q-20 158 -40 225.5t-73 139.5q-35 33 -100 102q-23 -4 -70 -16q-12 -2 -16 -2q-6 0 -15 8l-2 2h-2l-2 2q-100 0 -174 -340q-51 -248 -51 -360z" />
<glyph unicode="p" horiz-adv-x="1036" d="M29 1452v29q20 6 53 2q27 -2 55 -6q25 0 72 4l47 4q4 0 36 -4t36 -4t34.5 2t34.5 2q6 0 45 -8.5t43 -8.5q2 0 11 2q63 23 131 23h18q10 2 17 4q25 0 86 -18q10 -4 27.5 -24.5t31.5 -23.5q104 -16 158 -157q43 -104 43 -223q0 -74 -27 -150q-33 -94 -90 -131 q-18 -2 -49 -10q-33 -31 -99 -72q-12 -6 -82.5 -18.5t-80.5 -12.5q-6 0 -19 2l-29 4q-41 6 -45 7q-35 0 -34 -13q-5 -32 -5 -56q0 -8 1 -15q1 -24 1 -44q0 -73 -16 -112q-4 -6 -4 -8q0 -63 10 -178q12 -127 23 -144q14 -25 117 -63q29 -10 47 -23v-39q-12 6 -139 19 q-110 12 -154 12h-12l-172 -8h-7q-29 0 -55 14q12 12 88 47q55 27 57 58q0 -2 0 143q0 4 6.5 32.5t6.5 33.5v100q0 53 9 296t9 267q0 213 -41 354q-10 35 -74.5 71t-119.5 42zM451 764q0 -16 28 -16q14 0 45 10t45 10q4 0 10.5 -2t8.5 -2q74 0 143 96q61 88 62 150v135 q0 6 6 11l6 5q-1 9 -17 27q-10 10 -22 26q-29 74 -95.5 129.5t-129.5 55.5q-59 0 -80 -58q-10 -33 -10 -108v-469z" />
<glyph unicode="q" horiz-adv-x="1036" d="M25 752q0 145 84 417q14 2 32 15q72 311 443 311q55 0 127 -39q80 -43 86 -98q0 -6 24 -8q33 -4 62 -56q47 -86 80 -200q30 -103 30 -166q0 -10 -8 -37t-8 -31q0 2 13.5 -37t13.5 -65q0 -74 -31 -219q-29 -133 -53 -201q-12 0 -25 -21q-29 -55 -55 -110q-35 -61 -76 -98 q160 -238 401 -252q-60 -29 -80 -29h-75q-84 0 -209 70q-111 61 -189 137q-25 -8 -73 -19q-68 -4 -111 -4t-113 43q-80 49 -84 97q-2 10 -19 11t-24 3q-16 12 -38 43q-35 49 -75 180t-40 197q0 8 8 32.5t8 30.5l-13 41t-13 62zM244 727q0 -109 37 -330q14 -92 79 -192 q31 -47 105 -107q4 0 39 10.5t41 10.5t13 -6.5t9 -6.5q98 0 168 330q51 244 51 361q0 37 -16 170q-21 154 -39 211q-20 68 -67 131q-33 33 -99 100q-23 -6 -67 -16q-10 -2 -15 -2q-8 0 -16 8l-2 2l-2 2q-49 0 -70 -31q-8 -10 -47 -112q-45 -123 -78 -332q-25 -156 -24 -201z " />
<glyph unicode="r" horiz-adv-x="1294" d="M-94 1413v27q14 1 30 1q32 0 72 -5q25 -2 62 2q45 6 59 6q12 0 35.5 -4t34.5 -4q6 0 35.5 2t33.5 2t41 -8q16 -4 41 -9q150 23 152 23q12 0 114 -43q25 -10 46 -14q109 -23 159 -164q35 -96 35 -203q0 -102 -20 -145q-12 -27 -60 -64q-55 -43 -94 -94q-12 -18 -25 -27 q-59 -35 -155 -47q-31 -2 -47 -6q268 -156 274 -274q16 -8 47 -29q37 -37 86 -109q61 -88 84 -114q49 -66 101.5 -133.5t126.5 -118.5q16 -10 65 -35q59 -31 78 -31q35 0 78 -8q-31 -31 -70 -31h-88q-123 0 -275.5 106.5t-209.5 221.5q6 16 6 37q-61 25 -121 108 q-47 70 -92 142q-96 145 -99 147q-66 88 -131 115q-2 -70 -2 -66q2 -26 2 -48q0 -67 -14 -101q-2 -4 -4 -10q0 -2 4 -6.5t4 -10.5v-135q0 -115 31 -162q37 -53 153 -78v-32h-59l-90 12q-77 10 -127 10h-16l-172 -8h-7l-55 14q8 6 90 49q51 27 51 52v139q0 4 7 33l4 20 q2 8 2 10v99q0 31 8 86l4 374q-2 16 3 46t5 41q0 225 -41 346q-10 29 -74.5 64.5t-115.5 41.5zM317 743q0 -16 27 -16q14 0 42 9t42 9q4 0 10 -2h8q66 0 136 88q68 82 67 150v133q0 6 5 12l5 7q-22 43 -51 92q-23 43 -86 91t-102 48q-102 0 -103 -164v-457z" />
<glyph unicode="s" horiz-adv-x="978" d="M41 -4q0 4 4 12l8 19q70 147 74 264q6 14 12 41q10 102 47 139q6 -6 23 -8q6 -33 6 -92q4 -12 14 -35q-1 -11 -1 -22q0 -74 58 -156q66 -94 134 -95q4 0 17.5 2.5t17.5 2.5q12 0 37.5 -6.5t39.5 -6.5h29q27 -2 33 -2q188 61 188 207q0 53 -84 148q-33 70 -147 137 q-125 72 -150 108q-6 6 -104 41q-45 16 -78 66q-10 12 -31 31q-12 27 -48 148.5t-36 137.5q0 49 33 103q6 27 15.5 55.5t27.5 42.5q8 80 23 80q6 0 14 -17l57 82q137 76 250 76h14q51 0 132 -12l86 -35l61 37q4 2 25 29l12 16h33v-8l2 -4q2 -8 2 -15q0 -35 -45 -84 q-18 -72 -58 -274q-18 -90 -59 -133q-8 57 -22 160q-12 92 -41 143q-33 59 -107 106v-16q-23 18 -78 18q-74 0 -131 -102q-51 -88 -51 -162q0 -94 64.5 -157.5t128.5 -122.5q113 -29 270 -144q192 -140 192 -261q0 -7 -8 -21.5t-8 -18.5t8 -21.5t8 -23.5q0 -57 -45 -155.5 t-71 -114.5q-33 -18 -33 -31q0 -2 2 -4q-57 -39 -156 -88q-12 -4 -102 -16l-53 -7q-20 -4 -25 -4q-49 0 -96 17q-6 10 -43 14q-25 0 -68 8q-2 0 -16 6q-57 29 -72 29q-27 0 -86 -61q-6 -6 -14 -15h-31v6l-2 7q-2 6 -2 12z" />
<glyph unicode="t" horiz-adv-x="1110" d="M33 854q2 35 28 215l19 121q8 53 8 59q0 37 -33 162q-6 23 -6 37q0 2 8 27q2 4 2 12h62q6 0 26 -4q106 -25 191 -25h104q6 0 31 -13t37 -13q-4 0 36 13t85 13h295q29 0 106 25q16 4 25 4q35 0 35 -27q-1 -24 -64 -155q-12 -27 -14 -33q-12 -10 -27 -33q-23 -102 -78 -313 q-4 -4 -8 -6t-16 -13q-7 24 -7 66.5t7 101.5q3 31 3 59q0 73 -22 130q-18 45 -69.5 83.5t-106.5 38.5q-37 0 -47 -17t-10 -48l2 -51q-13 -128 -14 -128v1v-115q0 -76 -8.5 -112.5t-8.5 -34.5v-117q0 4 -3 -32t-3 -68q0 -8 4 -56q4 -37 0 -53q0 -6 -39 -39q-6 -6 -12 -10 q12 -10 41 -29q20 -12 20 -39v-286q0 -51 74 -86q45 -16 133 -64q-37 -16 -78 -16q-20 0 -62 11t-63 11l-63 12l-166 -8q-16 -2 -72 -8q-31 -4 -56 -4h-17q4 35 55 47t78 62q14 25 14 57v184q0 8 3 27.5t5 48.5q4 48 4 131.5t-4 202.5q0 8 10.5 29.5t10.5 25.5t-14.5 27.5 t-14.5 27.5v123q0 313 -2 328q-2 31 -41 31q-29 0 -33 -4q-29 -18 -69 -86q-29 -49 -60 -99q-2 -4 -10 -43q-6 -45 -12 -61q-41 -106 -41 -109q-33 -76 -60 -96h-28z" />
<glyph unicode="u" horiz-adv-x="1347" d="M35 1434l8 34h346q57 0 189 19l4 -6q6 -4 6 -17q0 -33 -27 -30h-5q-70 0 -101 -56q-31 -54 -31 -113q0 -20 4 -42q-20 -18 -22 -76q-2 -63 -37 -100l2 -11l20 6q-22 -40 -22 -67v-6q4 -39 4 -63t-4 -32q-4 -6 -4 -10q0 -12 12 -182q10 -178 12 -215h14q18 -49 26.5 -128 t25.5 -116q27 -61 96 -119q2 -2 35 0q10 0 16 -2q51 -8 68 -36h2l4 -3h10q16 0 49 23v12h8q6 -2 13 -2q2 0 4 2l4 2l2 4q14 10 22 13q41 6 71 60t30 110q0 14 -2 26q-2 14 11 49t11 54q-6 80 -6 135v256q0 53 7.5 74.5t43.5 52.5q-23 12 -53 47q-4 10 -6 70q0 131 -2 170 q-8 117 -27 149q-10 18 -102 47v51q10 0 25.5 2.5t21.5 2.5q8 0 41 -10.5t43 -10.5q199 0 315 33q8 2 18 2q27 0 72 -12q-18 -31 -53 -44.5t-67 -25.5q-72 -27 -72 -164v-25.5v-23.5v-193l-21 -47l23 -80l-2 -88v-102q0 -8 -6 -12l-6 -4v-162q0 -4 -2 -19.5t-2 -21.5v-182 q0 -33 18 -113q23 -98 47 -105q49 -10 96 -36q59 -31 56 -56h-35q-135 0 -268 29q-4 2 -41 27q-29 20 -60 20q-4 0 -13 -6t-13 -6q-8 1 -18 1q-20 0 -48 -3q-4 -2 -16.5 -11.5t-20.5 -9.5h-125q-4 0 -19.5 -6t-23.5 -6h-61q-68 0 -176 63q-76 43 -76 80q0 14 12 25 q-55 29 -86 86q-23 57 -45 113q-14 33 -35 45q4 37 35 65q-16 25 -20 70q-2 37 -2 76q-2 25 -17 49q39 0 39 65q0 18 -5 77.5t-5 86.5v113q0 4 -8 47l-4 31q-4 12 -4 18q0 4 8 68.5t8 70.5q0 94 -16 127q-27 51 -115 58z" />
<glyph unicode="v" horiz-adv-x="1193" d="M-127 1595v35h109q43 0 79 -43q16 -25 35 -47q98 -29 180 -170q55 -117 113 -233q12 -10 33 -35q12 -20 10 -55q-4 -29 -6 -58q12 -10 39 -26q14 -94 36.5 -167t102.5 -345q4 2 8 2q12 0 58 161q25 96 67 242l54 172q33 109 71 164q0 2 -4 14q-6 16 -6 35q0 35 20 80 q-41 51 -98 68.5t-115 31.5q-27 -2 -51 25q18 29 84 29q90 0 158 -11l68 -12q4 0 92 11.5t92 11.5q43 0 88 -15v-20q0 -35 -80 -46.5t-123 -93.5q-20 -37 -39 -120q-12 -12 -28 -37q-31 -98 -97 -293q-12 -8 -24 -29q-2 -90 -56 -266q-41 -133 -79 -268q-49 -195 -107 -434 q-3 -1 -8 -1q-10 0 -25 7q0 49 -14 143q-57 176 -94 373q-24 123 -24 186q0 23 3 37q-51 45 -76 125q-2 6 -28 143q-18 92 -66 119q0 6 1 9t3 10q-10 6 -22 6q12 61 12 63q0 4 -18 10q-2 14 6 43l-8 2q-10 2 -15 7q-80 319 -231 440q-12 8 -51 12q-12 2 -29 8z" />
<glyph unicode="w" horiz-adv-x="1916" d="M-123 1618q0 12 10 20h105q41 0 78 -45q16 -23 34 -45q4 -2 11 -2l12 -2q20 0 29 -8q74 -55 143 -178q14 -27 104 -207q12 -18 23.5 -37.5t9.5 -54.5q-2 -18 -4 -55q12 -12 39 -29q6 -74 39 -178q27 -88 55 -176q20 -70 41 -148q4 2 8 2q31 0 41 123l7 -2l137 440 q29 86 61 162v53q0 51 14 80q-29 41 -92 64q-53 16 -108 32q-39 12 -62 31q20 25 82 25q80 0 228 -23q29 4 59 10q61 8 127 9h82v-35q0 -25 -37 -31q-45 -8 -47 -10q-25 -12 -70 -39q-25 -18 -45 -51q-8 -14 -10 -61.5t-6 -53.5l-4 -8q-6 -8 -6 -14q0 -18 22.5 -37t24.5 -29 q12 -53 12 -76q-2 -41 -2 -28q20 -16 43 -29q18 -104 84 -260q104 -244 108 -256q2 -14 -4 -49q12 2 25 2q-4 -33 -4 -56q20 59 39 117q23 72 22 121h6q47 158 93 313q61 207 110 293q-2 12 -6 25q-2 11 -2 22q0 37 20 82q-41 53 -190 94q-41 10 -66 23v35h75h50 q29 0 87.5 -11.5t89.5 -11.5q4 0 94 9.5t94 9.5q45 0 65 -6q4 0 17 -11q-4 -37 -117 -76q-29 -10 -41 -16q-6 -14 -24 -39q-39 -41 -45 -82q-6 -49 -15 -61q-37 -59 -78 -189q-12 -41 -24 -79q-18 -59 -35 -72v-2h-2q-2 -4 -2 -38t-8 -71q-35 -100 -101 -303 q-23 -82 -84 -334l-39 -157q-12 -55 -22 -70q-4 0 -16 4h-9q-2 23 -8 65t-6 64q0 23 4 45h-16q4 10 4 12l2 3q6 6 4 14l-4 -2q-8 -4 -16 -4q-25 0 -25 22v103q-12 10 -25 10q-29 100 -59 201q-34 120 -34 176q0 11 1 20q-37 14 -86 135q-27 70 -74 185q-27 -8 -50 -43 q-21 -32 -21 -61q0 -6 2 -25q4 -35 -2 -62q-12 -43 -47 -147q-66 -188 -111 -375l-82 -336q-12 -6 -31 6q0 49 -14 142q-61 193 -94 367q-24 127 -24 187q0 22 3 35q-51 45 -73 125q-2 4 -31 142q-16 90 -64 116v11q2 2 5 10q-10 4 -25 4q12 61 12 63q0 4 -18 11q0 12 6 43 h-6q-10 2 -14 8q-92 377 -302 452q-14 0 -14 19z" />
<glyph unicode="x" horiz-adv-x="1431" d="M-88 1481v20q270 -51 309 -51q10 0 47 6l94 14q137 20 164 21q39 0 33 -41q-55 -18 -88 -41q-43 -31 -43 -59q0 -10 66.5 -137.5t66.5 -159.5q0 -4 19 -21q35 -33 125 -190q31 53 131 221q10 0 45 47q20 31 63 88q4 4 4 19v14q-2 37 45 98q-23 51 -102 76 q-121 41 -127 45q14 35 137 35q29 0 87.5 -12.5t84.5 -12.5q6 0 101.5 10.5t99.5 10.5q20 0 78 -2v-29q-4 -6 -9 -10l-6 -8q-8 -8 -12 -17q-94 -2 -145 -37q-92 -61 -152 -196q-16 -12 -41 -41q-55 -78 -156 -240q-10 -16 -30.5 -50t-30.5 -87l-6 24q-14 -27 -14 -38 q0 -6 22 -39q68 -100 80 -121q45 -78 47 -131q0 -18 57 -62q12 -10 148 -194q72 -102 90 -117q37 -33 117 -43q45 -6 57 -10q33 -8 51 -27q-4 -26 -31 -26h-2q-4 0 -22 4l-41 6q-57 10 -61 10h-158q-6 0 -41 13.5t-37 13.5q-8 0 -22 -23q-16 0 -53.5 -2t-41.5 -2 q-49 0 -63 23q2 10 45 26q33 12 33 31q0 41 -117 258q-90 168 -148 258q-27 -43 -90 -123h6q-61 -106 -141 -190q0 -2 -8 -45q-12 -55 -26.5 -68.5t-14.5 -17.5q0 -37 86 -70q51 -16 145 -55q-12 -31 -65 -31q-106 0 -180 11t-70 11q-4 0 -97 -9t-100 -9q-51 0 -75 10 q-2 4 -2 8q0 14 28 45q74 14 105 27q49 18 88 62q61 68 211.5 290t150.5 242q0 6 -49 103.5t-72 127.5q-106 150 -268 373q-18 27 -59 70q-61 47 -221 104q-25 10 -29 19z" />
<glyph unicode="y" horiz-adv-x="1048" d="M-111 1587q0 4 5 17v10q20 -2 55 0q39 4 35 4q66 0 118 -70q14 -18 43 -53q4 -2 50 -12q10 -2 47 -47q14 -20 41 -50q113 -186 178 -387q4 -2 11 -16t11 -12q18 -53 45 -168q14 4 37 74q18 59 37 116q27 74 51 109q2 2 0 24l-2 21v5q0 24 15 79q2 6 2 22l6 2q-2 0 -4 2 q4 23 22 68q-41 53 -190 92q-39 12 -64 25v31q10 2 30 2q42 0 132 -9l139 -12q4 0 93.5 9.5t95.5 9.5q57 0 82 -15q-2 -8 -19 -49q-135 -6 -198 -129l-11 -31h-2l4 -6q-2 -4 -1 -7t-5 -17q-68 -190 -207 -576q4 -4 19 -2q6 0 20 -2q-16 -23 -45 -72h2l6 -6q-4 -53 -4 -160 q-10 -6 -21 -24.5t-11 -22.5q0 -8 6 -12l4 -4q23 -18 28 -72q8 -78 11 -98q10 -63 24.5 -89t124.5 -42q31 -4 53 -10v-23q-25 -18 -38 -18q-6 0 -33 6t-49 8q-33 -3 -108 -3q-37 0 -85 1q-10 0 -33.5 8t-27.5 8h-2l-11 -2q-69 -24 -138 -24h-5q-4 0 -14 4l-6 2h-17 q14 25 74 47q47 18 51 37q12 74 35 235l4 199q0 2 -10 10l-4 2q-6 8 -9 45q2 25 3 52q-2 12 -5 22q-10 10 -20 33q1 12 1 29q0 34 -3 86q-6 66 -51 79q6 8 -2 27q-10 29 -11 33q0 2 2 6q-2 2 -20 6q0 25 6 51q-8 4 -20 4q-6 111 -119 342q-53 109 -107 168q-61 70 -118 74 h-2q-4 0 0 6h-7z" />
<glyph unicode="z" horiz-adv-x="1130" d="M14 18q45 18 131 62q74 45 78 102h29v2q2 0 2 15q10 4 25 4l10 2q-2 4 -2 10q0 18 27.5 41t29.5 29q45 115 105 264q51 129 161 391q76 168 76 258v137q4 68 -121 80q-17 2 -33 2q-142 0 -186 -145q-16 -50 -16 -111q0 -43 8 -90q0 -10 -4 -37q-2 -14 -8 -53 q-25 12 -33 43q-8 25 -14 51q-12 37 -33 144q-14 78 -31 90q0 6 -8 28q-51 131 -51 138q0 30 28 30h2q8 0 21 -4l31 -10q43 -12 59 -12h246q12 -12 8 -13q6 0 16 2l58 13q12 2 18 2t22.5 -6.5t20.5 -6.5q10 0 34.5 6.5t35.5 6.5l372 2q-41 -25 -86 -43q-76 -29 -96 -43 q-39 -29 -39 -73q0 -9 2 -19q-45 0 -78 -35h21q-55 -76 -98 -179.5t-45 -158.5q-2 -8 -33 -57q-12 -23 -17 -60q-4 -43 -8 -55q-27 -53 -59 -158q-27 2 -39 -25.5t-23 -54.5q4 -2 13 -2q0 -6 2 -10l2 -8q6 -16 -2 -23q-37 -33 -41 -71q-12 -78 -55 -140q-2 -2 -7 -6v-94 q0 -41 34 -68.5t75 -27.5q6 0 19.5 3t19.5 3q12 0 43 -5t45 -5q96 0 115 32q100 86 122 375q8 -2 13 0h6q8 2 18 -2q12 -90 41 -254q16 -59 82 -172l10 -14l5 -10v2v-39q-39 0 -134 10q-86 8 -135 8q-4 0 -37.5 -2t-38.5 -2q-6 0 -15 6t-13 6q-2 0 -8 -4l-19 -6 q-27 -8 -35 -6q-25 12 -55 14q-20 2 -57 -2t-54 -4q-6 0 -21 6t-22 6q-4 0 -34 -6l-23 -4q-12 -2 -16 -2t-85 4t-85 4h-49q-61 -20 -140 -47q4 10 17 33l-4 2q-6 4 -13 16z" />
<glyph unicode="&#xa0;" />
<glyph unicode="&#xa2;" />
<glyph unicode="&#xa3;" />
<glyph unicode="&#xa4;" />
<glyph unicode="&#xa5;" />
<glyph unicode="&#xa6;" />
<glyph unicode="&#xa7;" />
<glyph unicode="&#xa8;" />
<glyph unicode="&#xa9;" />
<glyph unicode="&#xaa;" />
<glyph unicode="&#xab;" />
<glyph unicode="&#xad;" />
<glyph unicode="&#xae;" />
<glyph unicode="&#xaf;" />
<glyph unicode="&#xb0;" />
<glyph unicode="&#xb1;" />
<glyph unicode="&#xb2;" />
<glyph unicode="&#xb3;" />
<glyph unicode="&#xb4;" />
<glyph unicode="&#xb6;" />
<glyph unicode="&#xb7;" />
<glyph unicode="&#xb8;" />
<glyph unicode="&#xb9;" />
<glyph unicode="&#xba;" />
<glyph unicode="&#xbb;" />
<glyph unicode="&#xbc;" />
<glyph unicode="&#xbd;" />
<glyph unicode="&#xbe;" />
<glyph unicode="&#xc0;" />
<glyph unicode="&#xc1;" />
<glyph unicode="&#xc2;" />
<glyph unicode="&#xc3;" />
<glyph unicode="&#xc6;" />
<glyph unicode="&#xc8;" />
<glyph unicode="&#xca;" />
<glyph unicode="&#xcb;" />
<glyph unicode="&#xcc;" />
<glyph unicode="&#xcd;" />
<glyph unicode="&#xce;" />
<glyph unicode="&#xcf;" />
<glyph unicode="&#xd2;" />
<glyph unicode="&#xd3;" />
<glyph unicode="&#xd4;" />
<glyph unicode="&#xd5;" />
<glyph unicode="&#xd7;" />
<glyph unicode="&#xd8;" />
<glyph unicode="&#xd9;" />
<glyph unicode="&#xda;" />
<glyph unicode="&#xdb;" />
<glyph unicode="&#xdf;" />
<glyph unicode="&#xe5;" />
<glyph unicode="&#xe7;" />
<glyph unicode="&#xe8;" />
<glyph unicode="&#xe9;" />
<glyph unicode="&#xea;" />
<glyph unicode="&#xeb;" />
<glyph unicode="&#xec;" />
<glyph unicode="&#xed;" />
<glyph unicode="&#xee;" />
<glyph unicode="&#xef;" />
<glyph unicode="&#xf1;" />
<glyph unicode="&#xf2;" />
<glyph unicode="&#xf3;" />
<glyph unicode="&#xf4;" />
<glyph unicode="&#xf5;" />
<glyph unicode="&#xf6;" />
<glyph unicode="&#xf7;" />
<glyph unicode="&#xf9;" />
<glyph unicode="&#xfa;" />
<glyph unicode="&#xfb;" />
<glyph unicode="&#xfc;" />
<glyph unicode="&#xff;" />
<glyph unicode="&#x152;" />
<glyph unicode="&#x153;" />
<glyph unicode="&#x178;" />
<glyph unicode="&#x2c6;" />
<glyph unicode="&#x2dc;" />
<glyph unicode="&#x2000;" horiz-adv-x="958" />
<glyph unicode="&#x2001;" horiz-adv-x="1917" />
<glyph unicode="&#x2002;" horiz-adv-x="958" />
<glyph unicode="&#x2003;" horiz-adv-x="1917" />
<glyph unicode="&#x2004;" horiz-adv-x="639" />
<glyph unicode="&#x2005;" horiz-adv-x="479" />
<glyph unicode="&#x2006;" horiz-adv-x="319" />
<glyph unicode="&#x2007;" horiz-adv-x="319" />
<glyph unicode="&#x2008;" horiz-adv-x="239" />
<glyph unicode="&#x2009;" horiz-adv-x="383" />
<glyph unicode="&#x200a;" horiz-adv-x="106" />
<glyph unicode="&#x2010;" />
<glyph unicode="&#x2011;" />
<glyph unicode="&#x2012;" />
<glyph unicode="&#x2013;" />
<glyph unicode="&#x2014;" />
<glyph unicode="&#x2018;" />
<glyph unicode="&#x2019;" />
<glyph unicode="&#x201a;" />
<glyph unicode="&#x201c;" />
<glyph unicode="&#x201d;" />
<glyph unicode="&#x201e;" />
<glyph unicode="&#x2022;" />
<glyph unicode="&#x2026;" />
<glyph unicode="&#x202f;" horiz-adv-x="383" />
<glyph unicode="&#x2039;" />
<glyph unicode="&#x203a;" />
<glyph unicode="&#x205f;" horiz-adv-x="479" />
<glyph unicode="&#x2122;" />
<glyph unicode="&#x25fc;" horiz-adv-x="1505" d="M0 0v1505h1505v-1505h-1505z" />
</font>
</defs>
</svg>
