<?xml version="1.0" encoding="utf-8"?>
<!-- Generator: Adobe Illustrator 19.1.1, SVG Export Plug-In . SVG Version: 6.00 Build 0)  -->
<svg version="1.1" id="Layer_1" xmlns="http://www.w3.org/2000/svg" xmlns:xlink="http://www.w3.org/1999/xlink" x="0px" y="0px"
	 viewBox="0 0 100 100" style="enable-background:new 0 0 100 100;" xml:space="preserve">
<style type="text/css">
	.st0{fill:url(#SVGID_1_);stroke:#3A3A3A;stroke-width:0.2;stroke-miterlimit:10;}
	.st1{fill:url(#SVGID_2_);stroke:#3A3A3A;stroke-width:0.2;stroke-miterlimit:10;}
	.st2{fill:url(#SVGID_3_);stroke:#FFFFFF;stroke-width:0.2;stroke-miterlimit:10;}
	.st3{fill:url(#SVGID_4_);stroke:#3A3A3A;stroke-width:0.2;stroke-miterlimit:10;}
	.st4{fill:url(#SVGID_5_);stroke:#3A3A3A;stroke-width:0.2;stroke-miterlimit:10;}
	.st5{fill-rule:evenodd;clip-rule:evenodd;fill:#FFEFCF;}
	.st6{fill-rule:evenodd;clip-rule:evenodd;fill:#E6C49D;}
	.st7{fill-rule:evenodd;clip-rule:evenodd;fill:#FFFFFF;}
	.st8{fill-rule:evenodd;clip-rule:evenodd;}
	.st9{fill-rule:evenodd;clip-rule:evenodd;fill:#EC1A3B;}
	.st10{fill-rule:evenodd;clip-rule:evenodd;fill:#B72841;}
</style>
<g>
	<g>
		<g>
			
				<radialGradient id="SVGID_1_" cx="52.065" cy="50.585" r="29.7793" gradientTransform="matrix(0.8829 0.4695 -0.446 0.8388 28.6551 -16.2887)" gradientUnits="userSpaceOnUse">
				<stop  offset="0" style="stop-color:#919191"/>
				<stop  offset="1" style="stop-color:#525252"/>
			</radialGradient>
			<path class="st0" d="M34.1,81.8c0.1,0.1,0.2,0.3,0.3,0.4c0.3,0.5,0.7,0.9,1.1,1.4C35,83,34.5,82.4,34.1,81.8z M35.5,83.6
				c0.1,0.1,0.1,0.1,0.2,0.2c0.1,0.1,0.2,0.2,0.3,0.3C35.8,83.9,35.6,83.8,35.5,83.6z M46.4,88.7L46.4,88.7c0.3,0,0.6,0,0.8,0
				C46.9,88.7,46.7,88.7,46.4,88.7z M50.3,88.4c0.1,0,0.2,0,0.3,0s0.2,0,0.3-0.1C50.7,88.3,50.5,88.3,50.3,88.4z M50.9,86.3
				L50.9,86.3c0.2,0,0.3-0.1,0.3-0.1C51.1,86.2,51,86.3,50.9,86.3z M56.4,15.4c0.1-0.8,0.4-1.5,0.8-2.2
				C56.8,13.9,56.5,14.6,56.4,15.4z M59.9,16.3v0.2C59.9,16.3,59.9,16.3,59.9,16.3C59.9,16.2,59.9,16.2,59.9,16.3z M62.1,26.2
				c0-0.1-0.1-0.1-0.1-0.2c0.1,0.1,0.1,0.2,0.2,0.3C62.2,26.3,62.2,26.2,62.1,26.2z M59.7,83.3c2.7-2.9,4.2-6.3,4.4-10.3
				C63.8,76.9,62.3,80.5,59.7,83.3z M64,25.7c0,0,0-0.1-0.1-0.1c0,0.1,0.1,0.2,0.1,0.3C64.1,25.8,64,25.7,64,25.7z M64.1,72.7
				C64.1,72.6,64.1,72.6,64.1,72.7v-0.4C64.1,72.4,64.1,72.5,64.1,72.7z M64.7,25.1c0,0,0-0.1-0.1-0.1c0,0.1,0.1,0.2,0.1,0.3
				C64.8,25.3,64.7,25.2,64.7,25.1z M64.8,25.3c0.3,0.7,0.4,1.6,0.5,2.4C65.2,26.9,65.1,26.1,64.8,25.3z M65.2,27.7
				c0,0.1,0,0.2,0,0.4v-0.2C65.3,27.8,65.3,27.8,65.2,27.7z M69.4,12.5c0.2,0.3,0.4,0.7,0.6,1.1C69.9,13.2,69.7,12.8,69.4,12.5z"/>
			
				<radialGradient id="SVGID_2_" cx="49.095" cy="54.835" r="23.2611" gradientTransform="matrix(0.8829 0.4695 -0.446 0.8388 30.203 -14.2093)" gradientUnits="userSpaceOnUse">
				<stop  offset="0" style="stop-color:#919191"/>
				<stop  offset="1" style="stop-color:#525252"/>
			</radialGradient>
			<path class="st1" d="M34.1,81.8c0.1,0.1,0.2,0.3,0.3,0.4c0.3,0.5,0.7,0.9,1.1,1.4C35,83,34.5,82.4,34.1,81.8z M35.5,83.6
				c0.1,0.1,0.1,0.1,0.2,0.2c0.1,0.1,0.2,0.2,0.3,0.3C35.8,83.9,35.6,83.8,35.5,83.6z M62.1,26.2c0-0.1-0.1-0.1-0.1-0.2
				c0.1,0.1,0.1,0.2,0.2,0.3C62.2,26.3,62.2,26.2,62.1,26.2z M64,25.7c0,0,0-0.1-0.1-0.1c0,0.1,0.1,0.2,0.1,0.3
				C64.1,25.8,64,25.7,64,25.7z"/>
			
				<radialGradient id="SVGID_3_" cx="50.087" cy="49.5319" r="31.7698" gradientTransform="matrix(0.8829 0.4695 -0.4262 0.8016 26.9821 -13.6839)" gradientUnits="userSpaceOnUse">
				<stop  offset="0" style="stop-color:#919191"/>
				<stop  offset="1" style="stop-color:#525252"/>
			</radialGradient>
			<path class="st2" d="M69.4,12.4c-0.1-0.2-0.3-0.3-0.4-0.5c-0.1-0.1-0.2-0.2-0.3-0.3c-0.1-0.1-0.2-0.2-0.3-0.3
				c-0.8-0.7-1.7-1.2-1.8-1.2c-1.3-0.6-2.6-0.6-4-0.4c-2,0.3-3.6,1.2-4.9,2.7c-0.2,0.3-0.4,0.5-0.5,0.8c-0.4,0.7-0.7,1.4-0.8,2.2
				l0,0c0,0.1,0,0.3,0,0.4l0,0c-0.1,1.4,0.2,2.7,0.8,4c0.4,1,1,1.9,1.6,2.7c0.6,0.8,1.2,1.6,1.8,2.5c0.2,0.2,0.3,0.5,0.5,0.8
				s0.4,0.8,0.4,0.8l0.1,0.2c0,0,0.1,0.3,0.1,0.5l0,0c0,0.1,0,0.2,0,0.2v0.2c0,0.4,0,0.9,0,1.3c0,4.5-0.1,9-0.1,13.5
				s-0.1,9-0.1,13.5c0,5.2-0.1,10.5-0.1,15.7c0,0.8-0.1,1.6-0.2,2.4c-0.2,1.4-0.7,2.8-1.3,4.1c-0.2,0.4-0.4,0.7-0.6,1l-0.1,0.1
				c-0.2,0.3-0.3,0.5-0.5,0.8c0,0.1-0.1,0.1-0.1,0.2c-0.1,0.2-0.3,0.4-0.5,0.6c-0.1,0.1-0.2,0.3-0.4,0.4c-0.1,0.1-0.2,0.3-0.4,0.4
				c-0.1,0.1-0.3,0.3-0.4,0.4c-0.1,0.1-0.2,0.2-0.3,0.3c-0.2,0.2-0.4,0.3-0.5,0.4c-0.2,0.2-0.4,0.3-0.5,0.4c-0.1,0-0.1,0.1-0.2,0.1
				c-0.3,0.2-0.5,0.4-0.8,0.5c-0.1,0-0.1,0.1-0.2,0.1c-0.3,0.2-0.6,0.3-1,0.5l0,0c-0.2,0.1-0.5,0.2-0.7,0.3
				c-0.3,0.1-0.5,0.2-0.8,0.3c-0.2,0.1-0.4,0.2-0.6,0.2c-0.1,0-0.2,0.1-0.3,0.1c-0.2,0.1-0.4,0.1-0.6,0.1c-0.2,0.1-0.4,0.1-0.6,0.1
				c-0.1,0-0.1,0-0.1,0c-0.3,0.1-0.7,0.1-1,0.1c-0.2,0-0.3,0-0.5,0c-1.6,0.1-3.2,0-4.7-0.5c-2.6-0.8-4.8-2.2-6.5-4.4
				c-1.3-1.6-2.1-3.3-2.7-5.2c0,0,0-0.1,0-0.2c0.1,0.1,0.2,0.1,0.3,0.2c1.3,0.7,2.6,1.1,4,1.3c0.1,0,0.1-0.1,0.1-0.1
				s-6.5-15.8-7.4-17.9l0,0l0,0v-0.1l0,0c-0.2,0-0.3,0.1-0.4,0.3c0,0,0,0,0,0.1c-0.7,2.4-1.1,4.8-1.2,7.3c-0.1,1.6,0,3.2,0.2,4.8
				c0.2,1.3,0.4,2.7,0.7,4c0.5,2.1,1.3,4.2,2.4,6c1,1.8,2.3,3.3,4,4.6c2.8,2.2,6,3.3,9.6,3.5c2,0.1,4-0.2,6-0.8
				c3.5-1.1,6.5-3,8.8-5.9c2.4-3,3.6-6.4,3.8-10.3c0-0.7,0-1.4,0-2c0-4.5,0.1-9,0.1-13.5c0.1-9.6,0.1-19.2,0.2-28.9v-0.1
				c0-0.1,0-0.2,0-0.4c0-0.7,0.1-1.4-0.2-2.1c0-0.1-0.5-0.9-0.5-0.9c-0.1-0.1-0.9-1.5-1.2-1.9c-0.6-0.8-1.2-1.7-1.9-2.5
				c-0.1-0.2-0.3-0.4-0.4-0.6c-0.1-0.1-0.7-1.1-0.7-1.3c0,0-1.4-2.5,1.3-4.7l0,0c0.9-0.4,1.9-0.6,2.9-0.4c1.4,0.3,2.5,1.4,2.5,2.8
				c0,1.1-0.3,2-1.1,2.7c-0.3,0.3-0.6,0.5-1,0.6c-0.8,0.3-1.3,1.2-1.1,2.1c0.2,1,1.5,1.7,2.5,1.2c0.8-0.4,1.6-0.9,2.3-1.6
				c0.7-0.7,1.3-1.5,1.6-2.4c0.2-0.5,0.3-1.1,0.4-1.7C71,14.3,69.6,12.7,69.4,12.4z"/>
			
				<radialGradient id="SVGID_4_" cx="62.0195" cy="26.0096" r="0" gradientTransform="matrix(0.8829 0.4695 -0.446 0.8388 18.8433 -24.935)" gradientUnits="userSpaceOnUse">
				<stop  offset="0" style="stop-color:#919191"/>
				<stop  offset="1" style="stop-color:#525252"/>
			</radialGradient>
			<path class="st3" d="M62,26"/>
			
				<radialGradient id="SVGID_5_" cx="63.976" cy="25.4904" r="0" gradientTransform="matrix(0.8829 0.4695 -0.446 0.8388 18.8843 -25.9181)" gradientUnits="userSpaceOnUse">
				<stop  offset="0" style="stop-color:#919191"/>
				<stop  offset="1" style="stop-color:#525252"/>
			</radialGradient>
			<path class="st4" d="M64,25.5"/>
		</g>
	</g>
</g>
<g>
	<g>
		<path class="st5" d="M62.9,15.4C62.9,15.5,62.8,15.5,62.9,15.4C62.9,15.5,62.9,15.5,62.9,15.4c0,0.1,0,0.1,0,0.2c0,0,0,0,0,0
			c0,0,0,0,0,0.1c0,0,0,0,0,0c0,0,0,0,0,0c0,0,0,0,0,0c0,0,0,0,0,0.1c0,0,0,0,0,0c0,0,0,0.1,0,0.1c0,0,0-0.1,0-0.2
			C62.9,15.7,62.9,15.6,62.9,15.4c-0.1-0.1-0.1-0.4,0-0.5c0-0.1,0.1-0.2,0.2-0.3c0-0.1,0.1-0.1,0.2-0.1c0,0,0,0,0-0.1
			c0,0,0.1,0,0.1,0c0,0,0.1,0,0.1,0c0.1,0,0.2,0,0.3-0.1c0.1,0,0.1-0.1,0.2,0c0,0,0,0,0.1,0c0,0,0.1,0,0.1,0c0.1,0,0.2,0,0.3,0.1
			c0,0,0.1,0,0.1,0c0.1,0,0.1,0.1,0.2,0.1c0.1,0.1,0.2,0.3,0.2,0.4c0,0.1,0,0.1,0,0.2c0,0.1,0,0.2,0,0.3c0,0,0,0.1,0,0.1
			c0,0.1-0.1,0.1-0.1,0.2c0,0,0-0.1,0.1-0.1c0,0,0,0-0.1,0c0,0,0,0,0.1-0.1c0,0,0,0,0,0c0,0,0,0,0,0c0,0,0,0,0,0
			c-0.1,0-0.1,0.2-0.1,0.4c0,0,0,0.1,0,0.1c0,0,0.1,0,0.1,0c0,0,0,0.1,0,0.1c-0.1,0.1-0.1,0.2-0.2,0.2c-0.1,0-0.1,0-0.2,0
			c0-0.1-0.2-0.1-0.2,0c0,0,0.1,0,0.1,0c0,0,0,0.1,0,0.1c0,0,0,0,0,0c0,0.1,0,0.1,0,0.2c0,0,0,0,0,0c0,0-0.1,0-0.1,0c0,0,0,0,0,0
			c0,0,0,0-0.1,0c0,0,0,0,0,0c0,0,0,0-0.1,0c0-0.1-0.1-0.1-0.1,0c0,0,0,0-0.1,0c0,0-0.1,0-0.1,0c0,0,0,0,0,0c0,0-0.1,0-0.1,0
			c0,0,0,0-0.1-0.1c0,0,0,0-0.1,0c0,0,0,0,0,0c0,0,0.1-0.1,0.1-0.1c0,0,0,0,0-0.1c0,0,0,0,0,0c0,0,0,0,0,0c0,0-0.1,0-0.1,0.1
			c0,0,0,0,0,0c0,0,0,0,0,0.1c0,0,0,0,0,0c0,0,0,0,0,0c0,0,0,0,0,0c0,0,0,0,0,0c0,0,0,0,0,0c0,0,0.1,0,0.1-0.1c0,0-0.1,0-0.1,0
			c0,0,0.1,0,0.1-0.1c0,0,0,0,0,0c0,0-0.1,0-0.1,0c0,0,0,0,0,0c0,0-0.1,0-0.1,0c0,0,0,0,0.1-0.1c0,0,0,0,0,0c0,0,0,0,0,0
			c-0.1-0.1-0.2,0.1-0.3,0.1c-0.1,0-0.1,0-0.2-0.1c0,0-0.1-0.1,0-0.2c0,0,0,0,0.1,0c0,0,0,0.1,0,0.1c0,0,0,0,0,0c0,0,0,0,0.1,0
			c0,0,0,0,0,0c0,0,0,0,0,0c0,0,0,0,0,0c0,0,0,0,0,0c0,0,0,0,0,0c0,0,0,0,0,0c0,0,0-0.1,0,0c0,0,0,0,0.1,0c0,0,0,0-0.1,0
			c0,0,0.1-0.1,0-0.1c0,0,0,0,0.1,0c0,0-0.1,0-0.1,0c0-0.1,0.2-0.1,0.1-0.1c-0.1,0-0.1,0-0.1,0c0-0.1,0.1-0.1,0.1-0.1
			C63.1,15.3,63,15.4,62.9,15.4c0.1-0.1,0.2-0.1,0.2-0.1c0,0,0,0,0,0c-0.1,0-0.1,0-0.1,0c0-0.1,0.1-0.1,0.2-0.1c0-0.1-0.1,0-0.2,0
			c0-0.1,0.1-0.1,0.1-0.1c0,0-0.1,0-0.1,0c0,0,0.1,0,0.1-0.1c0,0,0,0-0.1,0c-0.1,0-0.1,0-0.1,0.1c0,0,0,0,0,0c0,0-0.1,0-0.1,0.1
			c0,0,0,0,0,0c0,0,0,0,0,0c0,0-0.1,0-0.1,0.1c0,0,0,0,0,0C62.8,15.3,62.8,15.3,62.9,15.4c0-0.1,0-0.1,0-0.1
			C62.9,15.4,62.9,15.4,62.9,15.4C62.8,15.4,62.8,15.5,62.9,15.4C62.9,15.5,62.9,15.5,62.9,15.4z"/>
		<path class="st5" d="M63.8,14.3C63.7,14.3,63.8,14.3,63.8,14.3C63.8,14.3,63.8,14.3,63.8,14.3c0,0.1,0.1,0,0.1,0
			C63.9,14.2,63.8,14.3,63.8,14.3z"/>
		<path class="st5" d="M63.7,14.3C63.7,14.3,63.6,14.3,63.7,14.3C63.7,14.4,63.7,14.3,63.7,14.3z"/>
		<path class="st5" d="M63.7,14.4C63.8,14.4,63.8,14.4,63.7,14.4C63.8,14.3,63.7,14.4,63.7,14.4z"/>
		<path class="st5" d="M63.2,14.5C63.2,14.5,63.3,14.5,63.2,14.5C63.3,14.5,63.2,14.5,63.2,14.5z"/>
		<path class="st5" d="M63.1,14.6C63.1,14.6,63.1,14.6,63.1,14.6C63.2,14.6,63.2,14.6,63.1,14.6C63.1,14.6,63.1,14.6,63.1,14.6z"/>
		<path class="st5" d="M63,14.7C63,14.8,63.1,14.7,63,14.7C63.1,14.7,63.1,14.7,63,14.7C63,14.7,63,14.7,63,14.7z"/>
		<path class="st5" d="M63,14.8C63,14.8,63.1,14.8,63,14.8C63.1,14.8,63.1,14.8,63,14.8C63.1,14.8,63,14.8,63,14.8z"/>
		<path class="st5" d="M62.9,14.8C62.9,14.9,62.9,14.9,62.9,14.8C63,14.9,63,14.8,62.9,14.8c0.1,0,0.1,0,0.1-0.1
			C63,14.8,62.9,14.8,62.9,14.8z"/>
		<path class="st5" d="M63,14.9C62.9,14.9,62.9,14.9,63,14.9c-0.1,0.1-0.1,0.1-0.1,0.1c0,0,0,0,0,0c0,0,0,0,0,0C63,15,63,15,63,14.9
			C63,15,63.1,14.9,63,14.9C63,14.9,63,14.9,63,14.9C63,14.9,63,14.9,63,14.9C63,14.8,63,14.9,63,14.9z"/>
		<path class="st5" d="M63.9,15.3C63.9,15.3,64,15.3,63.9,15.3C64,15.2,63.9,15.2,63.9,15.3z"/>
		<path class="st5" d="M63.9,15.4C63.9,15.4,63.9,15.4,63.9,15.4C63.9,15.4,63.9,15.4,63.9,15.4C63.9,15.4,63.9,15.4,63.9,15.4
			C63.9,15.5,64,15.4,63.9,15.4c0.1,0,0.1,0,0.1-0.1C64,15.3,63.9,15.3,63.9,15.4z"/>
		<path class="st5" d="M64.6,15.4c0,0-0.1,0-0.1,0c0,0,0,0,0,0c0,0-0.1,0.1-0.1,0.1c0,0,0,0,0,0c0,0-0.1,0.1-0.1,0.1c0,0,0,0,0,0
			c0,0,0,0-0.1,0c0,0,0,0,0,0c0,0,0,0,0,0c0,0,0,0,0,0c0,0,0-0.1,0-0.1c0,0,0,0,0,0c0,0,0,0,0,0c0,0,0,0,0,0c0,0,0,0-0.1,0
			c0,0,0,0.1,0,0.1c0,0,0,0.1,0.1,0.1c0,0.1,0,0.1,0,0.1c0,0,0,0,0.1,0.1c0,0,0,0,0.1,0.1c0.1,0,0.1,0,0.2,0c0,0,0.1,0,0.1,0
			c0,0,0.1,0,0.1,0c0,0,0,0,0,0c0,0,0.1,0,0-0.1c0,0,0,0,0,0c0,0,0,0,0.1,0c0,0,0,0,0,0c0,0,0,0,0,0c0,0,0,0,0.1-0.1c0,0,0,0,0,0
			c0,0,0,0-0.1,0c0,0,0.1,0,0-0.1c0,0,0,0-0.1,0c0,0,0,0,0-0.1C64.6,15.5,64.6,15.5,64.6,15.4c0,0.1,0,0.1,0,0.1
			C64.6,15.5,64.6,15.5,64.6,15.4C64.6,15.4,64.5,15.4,64.6,15.4C64.5,15.4,64.6,15.4,64.6,15.4z"/>
		<path class="st5" d="M63.7,15.9C63.7,15.8,63.6,15.8,63.7,15.9C63.7,15.8,63.7,15.8,63.7,15.9C63.7,15.8,63.7,15.8,63.7,15.9
			c0-0.1,0-0.1,0-0.1c0,0,0.1,0,0.1,0c0,0,0,0,0,0c0,0,0,0-0.1,0c0,0,0.1,0,0.1-0.1c0,0,0,0,0,0c0,0,0.1,0,0.1-0.1c0,0,0,0,0,0
			c0,0,0,0,0,0c-0.1,0-0.1,0-0.2,0c0,0,0,0,0,0c0,0-0.1,0-0.1,0c0,0,0,0,0-0.1c0,0-0.1,0-0.1,0c0,0,0,0,0,0c0,0,0,0,0,0
			c0,0,0,0-0.1,0c0,0,0,0,0,0c0,0-0.1,0-0.1,0c0,0,0,0,0,0c-0.1,0-0.1,0-0.2,0.1c0,0,0,0.1,0,0.1c0,0,0,0.1,0,0.1c0,0.1,0,0.1,0,0.2
			c0,0,0,0.1,0.1,0c0.1,0,0.1-0.1,0.2-0.1c0.1,0,0.1,0,0.2,0C63.6,15.9,63.7,15.9,63.7,15.9z"/>
		<path class="st5" d="M63.9,15.8C63.9,15.8,64,15.7,63.9,15.8C63.9,15.8,63.9,15.8,63.9,15.8z"/>
		<path class="st5" d="M63.9,15.8C63.9,15.8,63.9,15.8,63.9,15.8C63.9,15.8,63.9,15.8,63.9,15.8C63.9,15.8,63.8,15.9,63.9,15.8
			c-0.1,0.1-0.1,0.1-0.1,0.1c0,0,0,0.1-0.1,0.1c0,0.1,0,0.1-0.1,0.2c0,0-0.1,0.1,0,0.1c0,0,0.1,0,0.1,0c0,0,0,0,0,0c0,0,0,0,0-0.1
			c0,0,0,0,0,0c0,0,0,0,0,0c0,0,0,0,0,0c0,0.1,0,0.1,0.1,0.2c0,0,0.1,0,0.1-0.1c0,0,0.1,0,0.1-0.1c0,0,0,0,0,0c0,0,0,0,0-0.1
			c0,0,0,0-0.1,0c0,0,0,0,0-0.1c0,0,0,0,0,0c0,0,0,0,0,0c0,0,0.1,0,0-0.1c0,0,0,0-0.1,0c0,0,0,0,0-0.1c0,0-0.1,0-0.1,0
			C64,15.9,64,15.9,63.9,15.8C63.9,15.9,63.9,15.9,63.9,15.8C63.9,15.8,63.9,15.8,63.9,15.8z"/>
		<path class="st5" d="M63.7,15.9C63.6,15.9,63.6,16,63.7,15.9C63.6,16,63.6,16,63.7,15.9c0,0.1-0.1,0.1-0.1,0.2
			C63.6,16.1,63.7,16,63.7,15.9C63.7,16,63.7,16,63.7,15.9C63.7,16,63.7,15.9,63.7,15.9z"/>
		<path class="st5" d="M63.6,16.2C63.6,16.1,63.7,16.1,63.6,16.2C63.6,16.1,63.6,16.1,63.6,16.2z"/>
		<path class="st5" d="M63,16.2C63,16.2,63,16.2,63,16.2C63,16.2,63,16.2,63,16.2C63,16.2,63,16.2,63,16.2
			C63.1,16.2,63,16.2,63,16.2c0.1,0.1,0.1,0.1,0.1,0.1c0,0,0,0,0,0c0,0,0,0,0,0c0,0,0,0,0,0c0-0.1,0.2,0,0.1-0.1c0,0-0.1,0-0.1,0.1
			c0,0,0,0,0,0c0,0,0,0-0.1,0.1c0,0,0,0,0,0c0,0,0,0-0.1,0c0,0,0,0,0-0.1C63.1,16.1,63.1,16.1,63,16.2C63.1,16.1,63.1,16.1,63,16.2
			C63,16.1,63,16.1,63,16.2z"/>
		<path class="st5" d="M63.3,16.2C63.4,16.2,63.4,16.2,63.3,16.2C63.3,16.1,63.3,16.1,63.3,16.2z"/>
		<path class="st5" d="M63.5,16.1C63.4,16.1,63.4,16.2,63.5,16.1C63.5,16.2,63.5,16.2,63.5,16.1C63.5,16.1,63.5,16.1,63.5,16.1z"/>
		<path class="st5" d="M64.2,16.2C64.2,16.2,64.2,16.2,64.2,16.2C64.2,16.1,64.2,16.1,64.2,16.2C64.2,16.1,64.1,16.2,64.2,16.2z"/>
		<path class="st5" d="M64.3,16.2C64.2,16.2,64.2,16.2,64.3,16.2C64.2,16.2,64.2,16.2,64.3,16.2C64.2,16.2,64.2,16.2,64.3,16.2
			C64.3,16.2,64.3,16.2,64.3,16.2C64.3,16.1,64.3,16.2,64.3,16.2z"/>
		<path class="st5" d="M64.3,16.2C64.4,16.2,64.4,16.2,64.3,16.2C64.4,16.2,64.4,16.2,64.3,16.2C64.4,16.2,64.4,16.2,64.3,16.2
			c0.1,0,0.1,0,0.1,0c0,0,0,0,0,0c0,0,0.1,0,0.1-0.1c0,0,0,0,0,0c0,0,0,0,0,0C64.5,16.2,64.4,16.2,64.3,16.2
			C64.4,16.1,64.3,16.2,64.3,16.2z"/>
		<path class="st5" d="M63.6,16.2C63.6,16.2,63.6,16.2,63.6,16.2C63.6,16.1,63.5,16.2,63.6,16.2z"/>
		<path class="st5" d="M64.5,16.3C64.6,16.3,64.6,16.3,64.5,16.3C64.6,16.2,64.6,16.2,64.5,16.3C64.6,16.2,64.5,16.2,64.5,16.3z"/>
		<path class="st5" d="M64.6,16.3C64.6,16.3,64.7,16.2,64.6,16.3C64.6,16.2,64.6,16.3,64.6,16.3z"/>
		<path class="st5" d="M63.4,16.3C63.5,16.3,63.5,16.3,63.4,16.3C63.5,16.2,63.4,16.3,63.4,16.3z"/>
		<path class="st5" d="M63.6,16.4C63.6,16.4,63.6,16.4,63.6,16.4C63.7,16.4,63.7,16.4,63.6,16.4C63.6,16.4,63.6,16.4,63.6,16.4z"/>
		<path class="st5" d="M63.8,16.4C63.7,16.4,63.7,16.4,63.8,16.4C63.7,16.5,63.8,16.5,63.8,16.4C63.8,16.5,63.8,16.4,63.8,16.4z"/>
		<path class="st5" d="M63.8,16.5C63.8,16.5,63.8,16.5,63.8,16.5C63.9,16.5,63.9,16.5,63.8,16.5C63.9,16.5,63.9,16.5,63.8,16.5
			C63.9,16.4,63.8,16.5,63.8,16.5z"/>
		<path class="st5" d="M63.6,16.5C63.6,16.5,63.6,16.6,63.6,16.5C63.6,16.6,63.7,16.5,63.6,16.5C63.7,16.5,63.7,16.5,63.6,16.5
			C63.7,16.5,63.7,16.5,63.6,16.5C63.6,16.4,63.6,16.5,63.6,16.5z"/>
		<path class="st5" d="M63.7,16.6C63.7,16.6,63.7,16.6,63.7,16.6C63.8,16.5,63.6,16.5,63.7,16.6z"/>
		<path class="st5" d="M63.8,16.6C63.9,16.6,63.9,16.6,63.8,16.6C63.9,16.5,63.8,16.6,63.8,16.6z"/>
		<path class="st5" d="M64,16.6C64,16.6,64,16.6,64,16.6C64,16.5,63.9,16.6,64,16.6z"/>
		<path class="st5" d="M63.9,16.1C63.9,16.1,63.9,16.1,63.9,16.1C63.8,16.1,63.8,16.1,63.9,16.1C63.8,16.1,63.8,16.1,63.9,16.1z"/>
		<path class="st5" d="M63.3,16.3C63.3,16.3,63.3,16.3,63.3,16.3C63.3,16.3,63.3,16.3,63.3,16.3C63.3,16.3,63.3,16.3,63.3,16.3z"/>
		<path class="st5" d="M63.8,17c0,0-0.1,0-0.1,0c0,0-0.1,0-0.1,0c0,0-0.1,0-0.1,0c0,0,0,0,0,0c0,0,0,0-0.1,0c0,0,0,0,0,0
			c0,0-0.1,0-0.1,0c0,0,0,0,0,0c0,0-0.1,0-0.1,0c0,0,0,0,0,0c0,0-0.1,0-0.1,0c0,0,0,0,0,0c0,0-0.1,0-0.1,0c0,0,0,0,0,0
			c0,0,0,0-0.1,0c0,0-1.5-0.6-1.5-0.6c0,0,0,0,0,0c0,0-0.1-0.1-0.1-0.1c0,0,0,0,0,0c0,0,0,0,0,0c0,0-0.1,0-0.1,0c0,0,0,0,0,0
			c-0.1,0-0.1,0-0.2,0c0,0,0,0,0,0c0,0,0,0,0,0c0,0,0.1,0,0.1,0c0,0,0.1,0,0.1,0c0,0,0,0,0,0c0,0,0,0,0.1,0c0,0,0,0,0,0
			c0,0,0,0,0.1,0c0,0,0,0,0,0c0,0,0,0,0.1,0c0,0.1,1.5,0.7,1.5,0.7c0,0,0,0,0,0c0,0,0.1,0,0.1,0c0,0.1,0.1,0,0.1,0c0,0,0,0,0.1,0
			c0,0.1,0,0,0.1,0c0,0,0,0,0,0c0,0,0,0,0.1,0c0,0,0,0,0,0c0,0,0,0,0.1,0c0,0,0,0,0,0c0,0,0.1,0,0.1,0c0,0-0.1,0.1-0.1,0
			c0,0-0.1,0-0.1-0.1c-0.1,0-0.2-0.1-0.3-0.1c-0.1,0-1.7-0.7-1.8-0.8c-0.1,0-0.1,0.1-0.2,0c0,0-0.1-0.1-0.1-0.2c0,0,0.1-0.1,0.1-0.1
			c0,0-0.1,0-0.1,0.1c0,0,0,0,0.1,0c0,0-0.1,0-0.1,0.1c0,0,0,0,0.1,0c0,0,0,0,0,0c0,0,0.1,0,0-0.1c0,0-0.1-0.1,0-0.2
			c0,0,0.1,0,0.1,0c0,0,0.1,0,0.1,0c0,0,0,0.1,0.1,0.1c0,0,0.1,0.1,0.1,0.1c0.1,0.1,1.6,0.8,1.7,0.9c0.1,0,0.2,0.1,0.2,0.1
			C63.5,16.9,63.6,17,63.8,17z"/>
		<path class="st5" d="M61.1,15.9C61.1,15.9,61.1,15.9,61.1,15.9C61.1,15.9,61.2,15.9,61.1,15.9C61.1,15.8,61,15.8,61.1,15.9z"/>
		<path class="st5" d="M61.1,15.9C61.1,16,61.1,15.9,61.1,15.9C61.1,16,61.1,16,61.1,15.9C61.1,16,61.1,16,61.1,15.9
			c0,0.1,0,0.1,0,0.1C61.1,16.1,61.2,16.1,61.1,15.9C61.2,16,61.2,15.9,61.1,15.9C61.1,15.9,61.1,15.9,61.1,15.9z"/>
		<path class="st5" d="M61,16.2C61,16.2,61,16.2,61,16.2C61,16.1,61,16.1,61,16.2z"/>
		<path class="st5" d="M66.6,15.9C66.5,15.9,66.5,15.9,66.6,15.9C66.5,15.9,66.5,15.9,66.6,15.9C66.5,15.9,66.5,15.9,66.6,15.9
			c0,0.1,0.1,0.1,0.1,0.1c0,0,0,0.1,0.1,0.1c0,0,0,0,0,0.1c0,0.1-0.2,0-0.2,0c-0.1,0-0.1,0-0.2,0c0,0-0.1,0-0.1,0
			c-0.3,0.1-1.8,0.9-2.1,1c-0.1,0-0.1,0-0.2,0.1c0,0-0.1,0-0.1,0c-0.1,0-0.2,0.1-0.3,0.1c-0.1,0-0.1,0.1-0.2,0.1
			c-0.1,0-0.1,0.1-0.2,0.1c0,0-0.1,0.1-0.1,0.2c0,0,0,0,0,0c0,0-0.1,0.1-0.2,0.1c-0.1,0-0.2,0-0.2,0c0-0.1,0-0.2,0.1-0.2
			c0,0,0,0,0,0c0,0,0,0,0,0c0,0,0,0,0,0c0,0,0,0,0,0c0,0,0,0-0.1,0c0,0,0,0-0.1,0.1c0,0,0,0,0.1,0c0,0,0,0,0,0.1c0,0-0.1,0-0.1-0.1
			c0,0,0-0.1,0-0.1c0,0,0,0,0-0.1c0,0,0.2,0,0.2,0c0,0,0.1,0,0.2,0c0.1,0,0.2,0,0.3-0.1c0,0,0.1,0,0.1,0c0.1,0,0.2-0.1,0.3-0.1
			c0.1,0,0.3-0.1,0.4-0.2c0.1,0,0.1,0,0.2-0.1c0.2-0.1,0.3-0.1,0.5-0.2c0,0,0.1,0,0.1,0c0.1,0,1.5-0.8,1.5-0.8
			c0.1,0,0.1-0.1,0.1-0.2c0,0,0.1,0,0.2,0C66.6,15.8,66.6,15.8,66.6,15.9C66.6,15.8,66.6,15.9,66.6,15.9z"/>
		<path class="st5" d="M66.4,15.8C66.4,15.9,66.4,15.9,66.4,15.8C66.4,15.9,66.3,15.9,66.4,15.8C66.4,15.9,66.4,15.9,66.4,15.8
			C66.4,15.9,66.4,15.9,66.4,15.8C66.4,15.9,66.4,15.9,66.4,15.8C66.4,15.9,66.5,15.8,66.4,15.8C66.4,15.8,66.4,15.8,66.4,15.8z"/>
		<path class="st5" d="M66.3,15.9C66.3,16,66.4,16,66.3,15.9C66.4,15.9,66.3,15.9,66.3,15.9z"/>
		<path class="st5" d="M66.4,16.1C66.4,16.1,66.3,16.1,66.4,16.1C66.4,16.2,66.4,16.2,66.4,16.1C66.4,16.2,66.5,16.2,66.4,16.1
			c0.1,0.1,0.2,0,0.2,0c0,0,0,0,0,0c0,0,0,0,0,0C66.5,16.1,66.5,16.1,66.4,16.1C66.4,16.1,66.4,16.1,66.4,16.1z"/>
		<path class="st5" d="M66.6,16.2C66.6,16.2,66.6,16.2,66.6,16.2c0.1,0,0.1,0,0.1,0c0,0,0-0.1,0,0C66.7,16.1,66.7,16.1,66.6,16.2
			C66.7,16.1,66.7,16.1,66.6,16.2C66.6,16.1,66.6,16.1,66.6,16.2z"/>
		<path class="st5" d="M66.2,16.1C66.2,16.1,66.2,16.2,66.2,16.1c0,0,0.1,0,0.1,0C66.3,16.1,66.2,16.1,66.2,16.1z"/>
		<path class="st5" d="M66.1,16.2C66.2,16.2,66.2,16.2,66.1,16.2C66.2,16.1,66.2,16.1,66.1,16.2C66.1,16.1,66.1,16.2,66.1,16.2
			C66.1,16.2,66.1,16.2,66.1,16.2z"/>
		<path class="st5" d="M64.7,17C64.7,17,64.7,16.9,64.7,17C64.6,17,64.6,17,64.7,17c-0.1,0-0.1,0-0.1,0c0,0,0,0,0,0c0,0,0,0,0,0
			C64.6,17.1,64.6,17,64.7,17C64.7,17,64.8,16.9,64.7,17C64.7,16.9,64.7,16.9,64.7,17z"/>
		<path class="st5" d="M64.4,17C64.4,17,64.4,17.1,64.4,17C64.4,17.1,64.5,17.1,64.4,17C64.4,17,64.4,17,64.4,17z"/>
		<path class="st5" d="M64.3,17.1C64.3,17.1,64.3,17,64.3,17.1C64.3,17.1,64.3,17.1,64.3,17.1C64.3,17.2,64.4,17.1,64.3,17.1z"/>
		<path class="st5" d="M64.2,17.2C64.1,17.2,64.1,17.1,64.2,17.2C64.1,17.1,64.1,17.1,64.2,17.2C64.1,17.2,64.1,17.2,64.2,17.2
			c-0.1,0-0.1,0-0.1,0c0,0,0,0.1-0.1,0.1c0-0.1-0.1,0-0.1,0c0,0,0,0,0,0c0,0-0.1,0.1-0.1,0.1c0,0,0,0,0,0.1c0,0,0.1,0,0.1,0
			c0,0,0.1,0,0.1,0c0,0,0,0,0.1,0C64.1,17.3,64.1,17.2,64.2,17.2C64.2,17.2,64.2,17.2,64.2,17.2C64.2,17.1,64.2,17.1,64.2,17.2z"/>
		<path class="st5" d="M63.7,17.4C63.7,17.3,63.7,17.3,63.7,17.4C63.6,17.3,63.6,17.3,63.7,17.4C63.6,17.4,63.6,17.4,63.7,17.4
			C63.6,17.4,63.7,17.4,63.7,17.4z"/>
		<path class="st5" d="M63.5,17.4C63.5,17.4,63.5,17.4,63.5,17.4C63.4,17.4,63.4,17.5,63.5,17.4C63.4,17.4,63.4,17.4,63.5,17.4
			c-0.1,0-0.1,0-0.2,0.1c0,0,0,0,0,0c0,0,0,0.1,0,0.1c0,0,0,0,0.1,0C63.3,17.5,63.3,17.5,63.5,17.4C63.4,17.5,63.4,17.5,63.5,17.4
			C63.4,17.5,63.4,17.5,63.5,17.4C63.5,17.4,63.5,17.5,63.5,17.4C63.5,17.4,63.6,17.4,63.5,17.4C63.5,17.4,63.5,17.4,63.5,17.4z"/>
		<path class="st5" d="M62.5,17.5C62.5,17.5,62.5,17.5,62.5,17.5C62.5,17.4,62.4,17.5,62.5,17.5z"/>
		<path class="st5" d="M63.2,17.5C63.2,17.5,63.1,17.6,63.2,17.5C63.2,17.6,63.2,17.5,63.2,17.5z"/>
		<path class="st5" d="M62.5,17.6C62.5,17.6,62.5,17.6,62.5,17.6C62.5,17.6,62.5,17.6,62.5,17.6C62.5,17.5,62.5,17.6,62.5,17.6z"/>
		<path class="st5" d="M63.1,17.6C63.1,17.5,63,17.5,63.1,17.6C63,17.6,63,17.6,63.1,17.6C63.1,17.6,63.1,17.6,63.1,17.6z"/>
		<path class="st5" d="M63,17.7C62.9,17.7,62.9,17.7,63,17.7C63,17.7,63,17.6,63,17.7C63,17.6,63,17.6,63,17.7z"/>
		<path class="st5" d="M62.7,17.7C62.7,17.6,62.7,17.7,62.7,17.7C62.6,17.7,62.6,17.7,62.7,17.7C62.7,17.7,62.7,17.7,62.7,17.7z"/>
		<path class="st5" d="M62.6,17.8C62.6,17.8,62.7,17.8,62.6,17.8C62.6,17.7,62.6,17.8,62.6,17.8z"/>
		<path class="st5" d="M62.6,17.9C62.6,17.9,62.6,17.9,62.6,17.9C62.6,17.9,62.6,17.9,62.6,17.9C62.6,17.9,62.6,17.9,62.6,17.9
			C62.7,17.9,62.7,17.9,62.6,17.9c0.1,0,0.1,0,0.1,0c0,0,0,0,0,0C62.7,17.8,62.7,17.8,62.6,17.9C62.7,17.8,62.7,17.8,62.6,17.9
			C62.7,17.8,62.5,17.9,62.6,17.9z"/>
		<path class="st5" d="M62.9,17.9C62.8,17.8,62.8,17.9,62.9,17.9C62.8,17.9,62.9,17.9,62.9,17.9z"/>
		<path class="st5" d="M63.4,16.6C63.4,16.6,63.4,16.6,63.4,16.6C63.4,16.6,63.4,16.6,63.4,16.6C63.4,16.6,63.4,16.6,63.4,16.6z"/>
		<path class="st5" d="M63.6,16.7C63.6,16.7,63.6,16.7,63.6,16.7C63.6,16.7,63.5,16.7,63.6,16.7C63.5,16.7,63.5,16.7,63.6,16.7
			C63.5,16.7,63.5,16.7,63.6,16.7C63.5,16.6,63.5,16.6,63.6,16.7C63.5,16.6,63.5,16.6,63.6,16.7C63.5,16.6,63.5,16.6,63.6,16.7
			C63.5,16.6,63.5,16.6,63.6,16.7z"/>
		<path class="st5" d="M64.3,16.6C64.3,16.6,64.3,16.7,64.3,16.6C64.3,16.7,64.3,16.7,64.3,16.6C64.3,16.6,64.3,16.6,64.3,16.6z"/>
		<path class="st5" d="M64.2,16.6c0,0,0,0.1,0,0.1C64.2,16.7,64.2,16.6,64.2,16.6z"/>
		<path class="st5" d="M63.4,16.6C63.4,16.6,63.4,16.7,63.4,16.6C63.4,16.7,63.4,16.7,63.4,16.6C63.4,16.6,63.4,16.6,63.4,16.6z"/>
		<path class="st5" d="M63.7,16.7C63.7,16.7,63.7,16.7,63.7,16.7C63.7,16.7,63.7,16.7,63.7,16.7C63.6,16.7,63.6,16.7,63.7,16.7
			C63.6,16.7,63.6,16.7,63.7,16.7C63.6,16.7,63.6,16.7,63.7,16.7C63.6,16.7,63.6,16.7,63.7,16.7C63.6,16.7,63.6,16.7,63.7,16.7
			C63.6,16.6,63.6,16.6,63.7,16.7C63.7,16.6,63.7,16.7,63.7,16.7z"/>
		<path class="st5" d="M63.8,16.7C63.8,16.7,63.8,16.7,63.8,16.7c0,0.1,0,0.1-0.1,0.1C63.7,16.7,63.7,16.7,63.8,16.7
			C63.7,16.7,63.7,16.7,63.8,16.7C63.7,16.6,63.8,16.6,63.8,16.7z"/>
		<path class="st5" d="M63.5,16.6C63.5,16.6,63.5,16.6,63.5,16.6C63.4,16.7,63.4,16.7,63.5,16.6C63.4,16.7,63.4,16.6,63.5,16.6z"/>
		<path class="st5" d="M64.2,16.7C64.2,16.7,64.2,16.7,64.2,16.7C64.1,16.7,64.1,16.7,64.2,16.7C64.1,16.7,64.1,16.7,64.2,16.7
			C64.1,16.6,64.2,16.6,64.2,16.7z"/>
		<path class="st5" d="M64.1,16.7C64,16.7,64,16.7,64.1,16.7C64,16.7,64,16.8,64,16.8c0,0,0,0,0-0.1C64,16.7,64,16.6,64.1,16.7z"/>
		<path class="st5" d="M65.1,17.8C65.1,17.8,65.1,17.9,65.1,17.8C65.1,17.8,65.1,17.8,65.1,17.8c0.1-0.1,0.1,0,0.1-0.1c0,0,0,0,0,0
			c0.1,0,0.1,0,0.1,0.1C65.2,17.9,65.2,17.9,65.1,17.8c0.1,0.1,0,0.1,0,0.1c0,0-0.1,0-0.2,0c0,0-0.1-0.1-0.1-0.1c0,0,0-0.1,0-0.1
			c0,0-0.1-0.1-0.1-0.1c0,0-0.1,0-0.1-0.1c-0.1-0.1-0.3-0.1-0.4-0.2c0,0,0,0,0,0c0,0,0,0,0,0c0,0,0,0,0,0c0,0,0,0,0.1,0
			c0,0.1,0,0,0.1,0c0,0,0,0,0,0c0,0,0.1,0,0.1,0c0,0,0,0,0,0c0,0,0.1,0,0.1,0c0,0,0,0.1,0.1,0.1c0,0,0,0,0,0.1c0,0,0,0,0.1,0
			c0,0,0,0,0,0c0,0,0,0.1,0,0.1c0,0,0-0.1,0-0.1c0,0,0,0-0.1,0c0-0.1,0-0.1-0.1,0c0,0,0,0,0,0c0,0-0.1,0-0.1,0c0,0,0,0,0,0
			c0,0-0.1,0-0.1,0c0-0.1-0.1,0-0.1,0c0,0,0,0,0,0c0,0,0,0-0.1,0c0,0,0,0-0.1,0c0,0,0,0,0,0c0,0,0,0,0,0c0,0,0.1-0.1,0.1-0.1
			c0,0,0.1,0,0.2,0.1c0.1,0,0.2,0.1,0.3,0.1c0.1,0,0.1,0,0.2,0c0.1,0,0.1,0,0.2,0c0,0,0.1,0,0.1,0.1c0,0,0.1,0.1,0.1,0.1
			c0,0,0,0,0,0.1c0,0-0.1,0-0.2,0.1C65.1,17.7,65,17.8,65.1,17.8z"/>
		<path class="st5" d="M65,17.5C65,17.5,65,17.5,65,17.5C65.1,17.5,65.1,17.5,65,17.5C65,17.5,65,17.5,65,17.5z"/>
		<path class="st5" d="M65,17.5c0,0-0.1,0-0.1,0c0,0,0,0,0,0C64.8,17.6,64.9,17.6,65,17.5c-0.1,0.1-0.2,0.1-0.2,0.1
			C64.8,17.6,64.9,17.6,65,17.5C64.9,17.6,64.9,17.6,65,17.5C64.9,17.6,65,17.6,65,17.5z"/>
		<path class="st5" d="M64.8,17.7C64.8,17.7,64.8,17.7,64.8,17.7C64.9,17.7,64.8,17.7,64.8,17.7C64.8,17.7,64.8,17.7,64.8,17.7
			c0.1,0.1,0.1,0.1,0.1,0.1c0,0,0,0,0,0C64.9,17.7,64.9,17.7,64.8,17.7C65,17.7,64.8,17.6,64.8,17.7z"/>
		<path class="st5" d="M64.9,17.8C64.9,17.7,64.9,17.8,64.9,17.8C64.9,17.8,64.9,17.8,64.9,17.8c-0.1,0.1-0.1,0.1,0,0.1c0,0,0,0,0,0
			c0,0,0.1,0,0.1,0c0,0,0,0,0,0c0,0,0,0,0,0C65,17.9,65,17.9,64.9,17.8C65,17.9,65,17.9,64.9,17.8C65,17.8,65,17.8,64.9,17.8z"/>
		<path class="st5" d="M65.1,17.9C65.1,17.9,65.1,17.9,65.1,17.9C65.1,17.9,65.1,17.9,65.1,17.9C65.1,17.9,65,17.9,65.1,17.9z"/>
	</g>
	<path class="st6" d="M64,15.4c0,0,0.1,0,0.1,0c0,0,0.1,0.1,0.2,0c0.1-0.1,0.3-0.2,0.3-0.1c0.1,0,0.1,0.3,0.1,0.4
		c0,0.2-0.2,0.2-0.2,0.2l-0.4-0.3C64.1,15.6,63.9,15.5,64,15.4z"/>
	<path class="st6" d="M63.8,14.2c0,0,0.1,0,0,0.2c-0.1,0.2-0.3,0.1-0.5,0.3c-0.2,0.1-0.3,0.4-0.2,0.7c0.1,0.2,0,0.2,0,0.3
		c0,0.1,0,0.2,0,0.3c0,0.1,0,0.1,0,0.2c0,0,0,0.1,0.2,0c0.2-0.1,0.2,0,0.2,0.1c0,0.1,0,0.1,0.1,0.1c0.1,0,0.1,0.1,0.1,0.1
		c0.1,0,0.2,0,0.2,0.1c0,0.1,0,0.1,0,0.1l0,0l-0.1,0l-0.1,0l0,0h0l0,0.1l-0.1,0l-0.1,0l0,0l-0.1,0c0,0,0,0,0-0.1c0-0.1,0-0.2,0-0.2
		l-0.1-0.1l-0.1,0l-0.1,0c0,0-0.1-0.1-0.1-0.1c0,0,0-0.2,0-0.2l0.1,0l0-0.1c0,0-0.1-0.2-0.1-0.2c0,0,0-0.4,0-0.6
		c0.1-0.2,0.2-0.4,0.4-0.5c0.2-0.1,0.2-0.2,0.2-0.2L63.8,14.2z"/>
	<path class="st6" d="M64,14.3c0,0,0.1,0,0.1,0c0,0,0,0.1,0,0.1c0,0,0,0.1-0.1,0.1C64.1,14.5,64,14.5,64,14.3z"/>
	<path class="st6" d="M63.3,15.4C63.3,15.4,63.2,15.3,63.3,15.4c0.2,0,0.4,0,0.5,0c0.1,0,0.1,0,0,0.1c-0.1,0.1-0.1,0.3-0.1,0.4
		c0,0.1-0.1,0.2-0.1,0.3c0,0.1-0.1,0.1-0.1,0.1c0,0,0,0,0,0s0.1,0,0.1-0.1c0-0.1,0-0.1,0-0.2c0-0.1,0-0.1,0-0.1s-0.3-0.2-0.3-0.2
		C63.3,15.6,63.3,15.4,63.3,15.4z"/>
	<path class="st7" d="M64.1,15.3C64.1,15.2,64.1,15.2,64.1,15.3c-0.1-0.1-0.1-0.2-0.2-0.1c-0.1,0.1-0.1,0.1-0.2,0.1
		c-0.1,0-0.4-0.1-0.2-0.4c0.2-0.3,0.6-0.2,0.7-0.2c0.1,0.1,0.2,0.2,0.3,0.3c0,0.1-0.1,0.3-0.2,0.3C64.2,15.3,64.1,15.3,64.1,15.3z"
		/>
	<path class="st6" d="M64.3,16.5c0,0-0.2-0.1-0.1-0.2c0.1-0.1,0.1,0,0.1,0L64.3,16.5z"/>
	<path class="st6" d="M64.2,16.2C64.2,16.2,64.1,16.2,64.2,16.2c0-0.1,0.1-0.1,0.2-0.1c0.1,0,0.2,0.1,0.3,0.1c0.1,0,0,0.1,0,0.1
		s-0.2,0-0.2,0C64.4,16.2,64.2,16.2,64.2,16.2z"/>
	<path class="st6" d="M63.8,16.6c0,0,0,0.1,0,0.2c0,0,0,0,0-0.1C63.7,16.7,63.7,16.6,63.8,16.6z"/>
	<path class="st6" d="M64.8,15.5c0,0,0.1-0.1,0.1,0c0,0.1,0,0.2-0.1,0.2c0,0-0.1,0.1-0.1,0.1c0,0-0.1-0.1,0-0.1
		C64.8,15.6,64.8,15.5,64.8,15.5z"/>
	<path class="st6" d="M61.2,15.8c0,0,0,0.1,0,0.2c0,0.1,0,0.1,0,0.1c-0.1,0,0.1,0,0.1,0c0,0,0.1,0,0.2,0.1c0.1,0,1.7,0.8,1.7,0.8
		c0.1,0,0.1,0,0.2,0.1c0.1,0,0.2,0,0.2,0.1c0,0,0.1,0.1,0.1,0.1l-0.2,0c0,0-0.1-0.1-0.2-0.1C63.3,17.1,63,17,63,17
		c-0.1,0-1.7-0.8-1.8-0.8c0,0-0.1,0.1-0.2,0c-0.1-0.1-0.1-0.1-0.1-0.2c0,0,0-0.2,0.1-0.1c0.1,0,0,0.1,0,0.1s0,0,0,0c0,0,0,0,0-0.1
		C61.1,15.9,61,15.8,61.2,15.8z"/>
	<path class="st6" d="M64.1,17.3c0,0,0.2,0.1,0.3,0.1c0.1,0,0.2,0.1,0.3,0.1c0.1,0,0.1,0,0.2,0c0,0,0.1,0,0.1,0.1c0,0.1,0,0.2,0,0.2
		c0,0,0.1,0.1,0.1,0c0,0,0.2-0.1,0.2-0.1c0,0,0,0.1-0.1,0.1c-0.1,0-0.1,0.1-0.2,0.1c-0.1,0-0.1-0.2-0.1-0.2c0,0-0.1-0.1-0.1-0.1
		c0,0-0.3-0.1-0.3-0.2C64.3,17.4,64.1,17.4,64.1,17.3C64.1,17.3,64.1,17.3,64.1,17.3z"/>
	<path class="st6" d="M62.4,17.4c0,0,0.1,0,0.1,0.1c0,0.1,0.1,0,0.1,0.1c0,0.1,0,0.1,0,0.2c0,0.1,0.1,0.1,0.1,0.1c0,0,0,0.1-0.2,0.1
		c-0.2,0-0.1-0.2-0.1-0.2l-0.1-0.1c0,0-0.1-0.1-0.1-0.1C62.4,17.6,62.4,17.4,62.4,17.4z"/>
	<path class="st6" d="M63,17.7C63,17.7,62.9,17.7,63,17.7c0.1-0.1,0.2-0.2,0.3-0.3c0.1,0,0.4-0.1,0.4-0.2c0,0,0.4-0.1,0.4-0.2
		c0,0,0.4-0.2,0.5-0.2c0,0,1.6-0.8,1.6-0.8s0.1,0,0.2,0c0.2,0,0.2,0,0.3,0c0,0,0.1,0,0.1,0.1c0,0-0.1,0-0.1,0
		c-0.5,0-1.2,0.6-1.9,0.8c-0.2,0.1-0.4,0.2-0.5,0.2c0,0-0.2,0-0.3,0.1c-0.1,0.1-0.3,0.1-0.4,0.1c-0.1,0-0.3,0.1-0.4,0.1
		C63.2,17.6,63,17.7,63,17.7z"/>
	<path class="st6" d="M66.5,15.9c0,0-0.1,0-0.1,0c-0.1,0-0.1,0-0.1,0c0.1-0.1,0.1-0.1,0.1-0.1C66.5,15.7,66.6,15.8,66.5,15.9
		C66.6,15.9,66.5,16,66.5,15.9z"/>
	<path class="st7" d="M65,17.5c0,0,0.1,0,0.2,0c0,0,0.1,0.1,0,0.1c-0.1,0-0.1,0-0.2,0.1c0,0-0.1,0-0.1,0S64.9,17.6,65,17.5z"/>
	<path class="st7" d="M64.2,17.3c0,0,0.1,0,0.2,0.1c0.1,0,0.4,0.1,0.4,0.1c0.1,0,0.1,0,0.1,0s-0.1,0-0.2,0c-0.1-0.1-0.3-0.1-0.3-0.1
		C64.4,17.4,64.2,17.3,64.2,17.3C64.1,17.3,64.2,17.3,64.2,17.3z"/>
	<path class="st7" d="M62.7,17.6c0,0,0,0.1,0,0.1c0,0.1,0,0.1,0.1,0.1c0-0.1,0.3-0.2,0.4-0.3c0.1,0,0.3-0.1,0.5-0.2
		c0.1-0.1,0.4-0.1,0.5-0.2c0.1,0,0.3-0.1,0.4-0.1c0.1,0,1.7-0.9,1.8-0.9c0.1,0,0.3,0,0.3,0c0.1,0,0-0.1-0.1-0.1
		c-0.1,0-0.2,0-0.3,0.1s-1.8,1-1.9,1c-0.1,0-0.6,0.2-0.7,0.3c-0.1,0-0.6,0.2-0.6,0.2C62.8,17.5,62.6,17.6,62.7,17.6z"/>
	<path class="st7" d="M61.2,15.9C61.2,15.9,61.2,16,61.2,15.9c0,0.1-0.1,0.2,0,0.2c0.1,0,0.1,0,0.2,0c0.1,0,1.6,0.8,1.7,0.8
		c0.1,0,0,0-0.1-0.1C62.8,16.7,61.3,16,61.2,15.9C61.2,15.9,61.2,15.9,61.2,15.9z"/>
	<path class="st7" d="M63.2,15.9c0,0,0,0.1,0,0.1c0.1,0,0.2,0,0.2,0c0,0,0.1,0,0.1,0c0,0,0,0,0,0c0,0-0.1,0-0.1,0
		C63.4,16,63.3,16,63.2,15.9C63.2,15.9,63.2,15.9,63.2,15.9z"/>
	<path class="st7" d="M63.9,15.6c0,0,0,0.1-0.1,0.1c0,0,0,0.1-0.1,0.1c0,0-0.1,0.2-0.1,0.2c0,0-0.1,0.1-0.1,0.1c0,0-0.1,0.1-0.1,0.1
		c0,0,0.1,0,0.2,0.1c0.1,0,0.1,0,0.1,0c0.1,0,0.1,0,0.1,0c0,0,0.1,0,0.1,0c0,0,0.1,0,0.1,0c0,0,0.1,0,0.1,0c0,0,0-0.1,0-0.1
		c0,0,0-0.1,0-0.1c0,0,0-0.1,0-0.1s-0.1-0.1,0-0.2c0.1-0.1,0.3,0,0.3,0c0.1,0.1,0.1,0.1,0.2,0.1c0.1,0,0.2-0.1,0.2-0.1
		s-0.1-0.1-0.1-0.2c0-0.1-0.1-0.2-0.1-0.3c0,0,0,0.1,0,0.2c0,0.1,0,0.2,0,0.2c0,0-0.1,0.1-0.2,0c-0.1-0.1-0.4-0.2-0.4-0.2L64,15.6
		c0,0-0.1,0.1-0.1,0.2c0,0.1,0,0.1,0,0.1C63.9,15.9,63.9,15.7,63.9,15.6z"/>
	<path class="st6" d="M63.9,15.7c0,0,0,0.1,0,0.1c0,0,0,0.2,0,0.2c0,0,0,0.1,0,0.2c0,0,0.1,0.1,0.1,0.1l0.1,0.1
		c0.2,0,0.1-0.3,0.1-0.4C64,15.9,63.9,15.8,63.9,15.7C63.9,15.7,63.9,15.7,63.9,15.7z"/>
	<path class="st8" d="M64.4,16.4C64.4,16.4,64.4,16.3,64.4,16.4c-0.1,0,0,0.1,0,0.2c0,0,0,0,0,0c0,0.1,0,0.1-0.1,0.2c0,0,0,0,0,0
		c0,0,0,0,0,0.1c0,0,0,0,0,0c0,0-0.1,0-0.1,0c0,0,0,0,0,0c0,0-0.1,0-0.1,0c0-0.1,0-0.1,0-0.2c0,0,0,0.1,0,0.1c0,0,0,0,0,0
		c0,0-0.1,0-0.1,0c0,0,0,0-0.1,0c0,0,0,0,0,0c0,0-0.1,0-0.1,0c0,0,0,0,0,0c0,0,0,0,0,0c0,0-0.1,0-0.1,0c0,0,0-0.1,0-0.1
		c0,0,0-0.1,0-0.1c0-0.1-0.1-0.1-0.1-0.2c0,0-0.1,0.1-0.1,0.1c0,0-0.1,0-0.1,0c-0.1-0.1-0.1-0.2-0.1-0.3c0,0,0-0.1,0-0.1
		c0,0,0.1,0,0.1,0c0-0.2-0.1-0.3-0.2-0.4c0,0,0-0.1,0-0.1c0-0.1,0-0.3,0.1-0.4c0-0.2,0.1-0.3,0.2-0.4c0,0,0.1-0.1,0.1-0.1
		c0,0,0.1-0.1,0.2-0.1c0,0,0.1,0,0.1-0.1c0.1,0,0.2-0.1,0.3-0.1c0,0,0.1,0,0.1,0c0,0,0.1-0.1,0.2,0c0,0,0,0,0.1,0
		c0.1,0,0.2,0,0.3,0.1c0,0,0.1,0,0.1,0.1c0,0,0.1,0,0.1,0.1c0.1,0.1,0.2,0.1,0.2,0.2c0.1,0.1,0.1,0.1,0.1,0.2c0,0.1,0.1,0.2,0.1,0.3
		c0,0.2-0.1,0.4,0,0.6c0,0.1-0.1,0.1-0.1,0.2c0,0-0.1,0.1-0.1,0.1c0,0.1,0.1,0.1,0.1,0.1c0.1,0,0,0.1-0.1,0.2c0,0,0,0,0,0.1
		c0,0,0,0.1-0.1,0.1C64.7,16.4,64.6,16.4,64.4,16.4C64.4,16.3,64.4,16.3,64.4,16.4z M62.8,15.5c0,0,0-0.1,0-0.1c0,0,0,0,0,0
		C62.8,15.3,62.9,15.4,62.8,15.5c-0.1-0.2,0-0.2,0-0.2c0,0,0,0,0,0c0-0.1,0.1-0.1,0.1-0.1c0,0,0,0,0,0c0,0,0,0,0,0c0,0,0,0,0.1-0.1
		c0,0,0,0,0,0c0-0.1,0.1-0.1,0.1-0.1c0,0,0,0,0.1,0c0,0-0.1,0-0.1,0.1c0,0,0.1,0,0.1,0c0,0-0.1,0-0.1,0.1c0.1,0,0.1-0.1,0.2,0
		c-0.1,0-0.1,0-0.2,0.1c0,0,0.1,0,0.1,0c0,0,0,0,0,0c0,0-0.1,0-0.1,0.1c0.1,0,0.1-0.1,0.2,0c-0.1,0-0.1,0-0.1,0.1c0,0,0.1,0,0.1,0
		c0.1,0.1-0.1,0.1-0.1,0.1c0,0,0.1,0,0.1,0c0,0,0,0-0.1,0c0.1,0,0,0.1,0,0.1c0,0,0.1,0,0.1,0c0,0,0,0-0.1,0c0,0,0.1,0,0,0
		c0,0,0,0,0,0c0,0,0,0,0,0c0,0,0,0,0,0c0,0,0,0,0,0c0,0,0,0,0,0c0,0,0,0,0,0c0,0,0,0-0.1,0c0,0,0,0,0,0c0,0,0-0.1,0-0.1
		c0,0,0,0-0.1,0c0,0.1,0,0.1,0,0.2c0,0.1,0.1,0.1,0.2,0.1c0.1,0,0.2-0.1,0.3-0.1c0,0,0,0,0,0c0,0,0,0,0,0c0,0-0.1,0-0.1,0.1
		c0,0,0.1,0,0.1,0c0,0,0,0,0,0c0,0,0,0,0.1,0c0,0,0,0,0,0c0,0-0.1,0-0.1,0.1c0,0,0.1,0,0.1,0c0,0-0.1,0-0.1,0.1c0,0,0,0,0,0
		c0,0,0,0,0,0c0,0,0,0,0,0c0,0,0,0,0,0c0,0,0,0,0,0c0,0,0-0.1,0-0.1c0,0,0,0,0,0c0,0,0-0.1,0.1-0.1c0,0,0,0,0,0c0,0,0,0,0,0
		c0,0,0,0,0,0.1c0.1,0,0,0.1-0.1,0.1c0,0,0,0,0,0c0,0,0,0,0.1,0c0,0,0,0,0.1,0.1c0,0,0,0,0.1,0c0,0,0,0,0,0c0,0,0-0.1,0.1,0
		c0,0,0,0,0.1,0c0-0.1,0.1-0.1,0.1,0c0,0,0,0,0.1,0c0,0,0,0,0,0c0,0,0,0,0.1,0c0,0,0,0,0,0c0,0,0.1-0.1,0.1,0c0,0,0,0,0,0
		c0-0.1,0-0.2,0-0.2c0,0,0,0,0,0c0,0,0-0.1,0-0.1c0,0,0,0-0.1,0c0-0.1,0.2-0.1,0.2,0c0.1,0,0.1,0,0.2,0c0.1,0,0.2-0.1,0.2-0.2
		c0,0,0,0,0-0.1c0,0-0.1,0-0.1,0c0,0,0-0.1,0-0.1c0-0.2,0-0.3,0.1-0.4c0,0,0,0,0,0c0,0,0,0,0,0c0,0,0,0,0,0c0,0-0.1,0-0.1,0.1
		c0,0,0.1,0,0.1,0c0,0-0.1,0-0.1,0.1c0-0.1,0.1-0.1,0.1-0.2c0-0.1,0-0.1,0-0.1c0-0.1,0-0.2,0-0.3c0-0.1,0-0.1,0-0.2
		c-0.1-0.2-0.1-0.3-0.2-0.4c0-0.1-0.1-0.1-0.2-0.1c0,0,0,0-0.1,0c-0.1,0-0.2-0.1-0.3-0.1c0,0-0.1,0-0.1,0c0,0,0,0-0.1,0
		c-0.1,0-0.2,0-0.2,0c-0.1,0-0.2,0-0.3,0.1c0,0-0.1,0-0.1,0c0,0-0.1,0-0.1,0c0,0,0,0,0,0.1c0,0-0.1,0.1-0.2,0.1
		c-0.1,0.1-0.2,0.2-0.2,0.3C62.8,15.1,62.7,15.4,62.8,15.5c0,0.1,0.1,0.2,0.1,0.3c0,0,0,0.1,0,0.2c0,0,0-0.1,0-0.1c0,0,0,0,0,0
		c0,0,0,0,0-0.1c0,0,0,0,0,0c0,0,0,0,0,0c0,0,0,0,0,0c0,0,0,0,0-0.1c0,0,0,0,0,0C62.9,15.6,62.9,15.6,62.8,15.5
		C62.9,15.5,62.9,15.5,62.8,15.5C62.8,15.5,62.9,15.5,62.8,15.5C62.9,15.5,62.9,15.5,62.8,15.5z M63.3,16.3
		C63.3,16.3,63.3,16.3,63.3,16.3C63.3,16.3,63.3,16.3,63.3,16.3C63.3,16.3,63.3,16.3,63.3,16.3z M63.4,16.6
		C63.4,16.6,63.4,16.6,63.4,16.6C63.4,16.6,63.4,16.6,63.4,16.6C63.4,16.6,63.4,16.6,63.4,16.6z M63.5,16.6
		C63.5,16.6,63.5,16.6,63.5,16.6C63.5,16.6,63.5,16.6,63.5,16.6C63.5,16.6,63.5,16.6,63.5,16.6C63.5,16.7,63.5,16.7,63.5,16.6
		c0,0.1,0,0.1,0,0.1c0,0,0,0,0,0C63.6,16.7,63.6,16.7,63.5,16.6C63.5,16.6,63.5,16.6,63.5,16.6z M64.3,16.6
		C64.3,16.7,64.3,16.7,64.3,16.6C64.3,16.7,64.3,16.6,64.3,16.6C64.3,16.6,64.3,16.6,64.3,16.6z M64.2,16.7c0,0,0.1-0.1,0-0.1
		C64.2,16.6,64.2,16.7,64.2,16.7z M63.4,16.6C63.4,16.7,63.4,16.7,63.4,16.6C63.4,16.7,63.4,16.6,63.4,16.6
		C63.4,16.6,63.4,16.6,63.4,16.6z M63.7,16.6C63.6,16.6,63.6,16.6,63.7,16.6C63.6,16.7,63.6,16.7,63.7,16.6
		C63.6,16.7,63.6,16.7,63.7,16.6C63.6,16.7,63.6,16.7,63.7,16.6C63.6,16.7,63.6,16.7,63.7,16.6c0,0.1,0,0.1,0,0.1c0,0,0,0,0,0
		C63.7,16.7,63.7,16.7,63.7,16.6C63.7,16.7,63.7,16.6,63.7,16.6z M63.7,16.7C63.7,16.7,63.7,16.7,63.7,16.7
		C63.7,16.7,63.7,16.7,63.7,16.7C63.8,16.8,63.8,16.7,63.7,16.7C63.8,16.7,63.8,16.7,63.7,16.7C63.8,16.6,63.7,16.6,63.7,16.7z
		 M63.4,16.7C63.4,16.7,63.4,16.7,63.4,16.7C63.5,16.6,63.5,16.6,63.4,16.7C63.4,16.6,63.4,16.7,63.4,16.7z M64.1,16.6
		C64.1,16.7,64.1,16.7,64.1,16.6C64.1,16.7,64.1,16.7,64.1,16.6C64.2,16.7,64.2,16.7,64.1,16.6C64.2,16.6,64.1,16.6,64.1,16.6z
		 M64,16.7C64,16.7,63.9,16.7,64,16.7C64,16.8,64,16.7,64,16.7c0.1,0,0.1,0,0.1,0C64,16.6,64,16.7,64,16.7z"/>
	<path class="st8" d="M63.9,14.3c0,0-0.1,0.1-0.1,0c0,0,0,0,0,0c0,0,0,0,0,0C63.8,14.3,63.9,14.2,63.9,14.3z"/>
	<path class="st8" d="M63.6,14.4C63.6,14.3,63.7,14.3,63.6,14.4C63.7,14.3,63.7,14.4,63.6,14.4z"/>
	<path class="st8" d="M63.8,14.4C63.8,14.4,63.8,14.4,63.8,14.4C63.7,14.4,63.8,14.3,63.8,14.4z"/>
	<path class="st8" d="M63.3,14.5C63.3,14.5,63.2,14.5,63.3,14.5C63.2,14.5,63.3,14.5,63.3,14.5z"/>
	<path class="st8" d="M63.2,14.6C63.2,14.6,63.2,14.6,63.2,14.6C63.1,14.6,63.1,14.6,63.2,14.6C63.1,14.6,63.1,14.6,63.2,14.6z"/>
	<path class="st8" d="M63.1,14.7C63.1,14.7,63.1,14.7,63.1,14.7C63.1,14.7,63,14.8,63.1,14.7C63,14.7,63,14.7,63.1,14.7z"/>
	<path class="st8" d="M63.1,14.8C63.1,14.8,63.1,14.8,63.1,14.8C63.1,14.8,63,14.8,63.1,14.8C63,14.8,63.1,14.8,63.1,14.8z"/>
	<path class="st8" d="M63,14.8C63,14.8,63,14.8,63,14.8C63,14.8,63,14.9,63,14.8c-0.1,0.1-0.1,0.1-0.1,0.1
		C62.9,14.8,63,14.8,63,14.8z"/>
	<path class="st8" d="M63,14.9C63,14.9,63,14.9,63,14.9C63,14.9,63,14.9,63,14.9C63.1,14.9,63,15,63,14.9C63,15,63,15,63,15
		c0,0,0,0,0,0c0,0,0,0,0,0c0,0,0-0.1,0-0.1C62.9,14.9,62.9,14.9,63,14.9C63,14.9,63,14.8,63,14.9z"/>
	<path class="st8" d="M64,15.3C64,15.3,63.9,15.3,64,15.3C63.9,15.2,64,15.2,64,15.3z"/>
	<path class="st8" d="M64,15.3C64,15.3,64,15.3,64,15.3c0,0.1-0.1,0.1-0.1,0.1c0,0,0,0,0,0C63.9,15.4,63.9,15.4,64,15.3
		c-0.1,0.1-0.1,0.1-0.1,0.1C63.9,15.3,64,15.3,64,15.3z"/>
	<path class="st8" d="M64.5,15.4C64.5,15.4,64.6,15.4,64.5,15.4C64.6,15.5,64.6,15.5,64.5,15.4C64.6,15.5,64.6,15.5,64.5,15.4
		c0.1,0.1,0.1,0.1,0.1,0.1c0,0,0,0,0,0.1c0,0,0,0,0.1,0c0,0,0,0.1,0,0.1c0,0,0,0,0.1,0c0,0,0,0,0,0c0,0-0.1,0-0.1,0.1c0,0,0,0,0,0
		c0,0,0,0,0,0c0,0,0,0-0.1,0c0,0,0,0,0,0c0,0,0,0.1,0,0.1c0,0,0,0,0,0c0,0-0.1,0-0.1,0c0,0-0.1,0-0.1,0c-0.1,0-0.2,0-0.2,0
		c0,0,0,0-0.1-0.1c0,0,0,0-0.1-0.1c0,0,0-0.1,0-0.1c0,0,0-0.1-0.1-0.1c0,0,0-0.1,0-0.1c0,0,0,0,0.1,0c0,0,0,0,0,0c0,0,0,0,0,0
		c0,0,0,0,0,0c0,0,0,0,0,0.1c0,0,0,0,0,0c0,0,0,0,0,0c0,0,0,0,0,0c0,0,0,0,0.1,0c0,0,0,0,0,0c0,0,0.1,0,0.1-0.1c0,0,0,0,0,0
		C64.4,15.5,64.4,15.4,64.5,15.4C64.4,15.4,64.4,15.4,64.5,15.4C64.5,15.4,64.6,15.4,64.5,15.4C64.6,15.4,64.5,15.4,64.5,15.4z"/>
	<path class="st8" d="M63.6,15.9c0,0-0.1,0-0.2,0c-0.1,0-0.1,0.1-0.2,0.1c0,0-0.1,0-0.1,0c0,0,0-0.1,0-0.2c0,0,0-0.1,0-0.1
		c0,0,0-0.1,0-0.1c0-0.1,0.1-0.1,0.2-0.1c0,0,0,0,0,0c0,0,0.1,0,0.1,0c0,0,0,0,0,0c0,0,0,0,0.1,0c0,0,0,0,0,0c0,0,0,0,0,0
		c0,0,0.1-0.1,0.1,0c0,0,0,0,0,0.1c0,0,0.1-0.1,0.1,0c0,0,0,0,0,0c0.1,0,0.1-0.1,0.2,0c0,0,0,0,0,0c0,0,0,0,0,0c0,0.1,0,0.1-0.1,0.1
		c0,0,0,0,0,0c0,0.1-0.1,0-0.1,0.1c0,0,0,0,0.1,0c0,0,0,0,0,0c0,0-0.1,0-0.1,0c0,0,0,0,0,0c0,0,0,0,0,0
		C63.7,15.8,63.7,15.8,63.6,15.9c0.1,0,0.1-0.1,0.1,0C63.7,15.9,63.6,15.9,63.6,15.9z"/>
	<path class="st8" d="M63.9,15.8C64,15.7,63.9,15.8,63.9,15.8C63.9,15.8,63.9,15.8,63.9,15.8z"/>
	<path class="st8" d="M63.9,15.8C63.9,15.9,63.9,15.9,63.9,15.8C64,15.9,64,15.9,63.9,15.8C63.9,15.9,64,15.9,63.9,15.8
		C64,16,64,16,64,16c0,0,0,0,0.1,0c0,0,0,0,0,0.1c0,0,0,0,0,0c0,0,0,0,0,0c0,0,0,0,0,0.1c0,0,0,0,0.1,0c0,0,0,0,0,0.1c0,0,0.1,0,0,0
		c0,0,0,0-0.1,0.1c0,0,0,0.1-0.1,0.1c-0.1,0-0.1-0.1-0.1-0.2c0,0,0,0,0,0c0,0,0,0,0,0c0,0,0,0,0,0c0,0,0,0.1,0,0.1c0,0,0,0,0,0
		c0,0-0.1,0-0.1,0c0-0.1,0-0.1,0-0.1c0-0.1,0-0.1,0.1-0.2c0,0,0.1-0.1,0.1-0.1c0,0,0,0,0,0C63.8,15.9,63.9,15.8,63.9,15.8
		C63.9,15.8,63.9,15.8,63.9,15.8C63.9,15.8,63.9,15.8,63.9,15.8C63.9,15.8,63.9,15.8,63.9,15.8z M63.8,16.1
		C63.8,16.1,63.8,16.1,63.8,16.1C63.9,16.1,63.9,16.1,63.8,16.1C63.8,16.1,63.8,16.1,63.8,16.1z"/>
	<path class="st8" d="M63.7,16C63.7,16,63.7,16,63.7,16c0,0.1,0,0.1-0.1,0.1C63.6,16,63.6,16,63.7,16C63.6,16,63.6,16,63.7,16
		C63.6,16,63.6,15.9,63.7,16C63.7,15.9,63.7,16,63.7,16z"/>
	<path class="st8" d="M63.6,16.1C63.7,16.1,63.6,16.1,63.6,16.1C63.6,16.1,63.6,16.1,63.6,16.1z"/>
	<path class="st8" d="M63.1,16.1C63.1,16.1,63.1,16.1,63.1,16.1C63.1,16.1,63.1,16.1,63.1,16.1C63.1,16.1,63.1,16.2,63.1,16.1
		C63.1,16.2,63.1,16.2,63.1,16.1c0.1,0.1,0.1,0.1,0.1,0.1c0,0,0,0,0.1-0.1c0,0,0,0,0,0c0,0,0-0.1,0.1-0.1c0,0.1-0.1,0.1-0.1,0.1
		c0,0,0,0,0,0c0,0,0,0,0,0c0,0,0,0,0,0c0,0,0,0,0,0c0,0,0,0,0,0c0,0,0,0-0.1,0C63,16.2,63,16.2,63.1,16.1C63,16.2,63,16.2,63.1,16.1
		C63,16.1,63,16.1,63.1,16.1z"/>
	<path class="st8" d="M63.4,16.1C63.4,16.2,63.4,16.2,63.4,16.1C63.3,16.1,63.3,16.1,63.4,16.1z"/>
	<path class="st8" d="M63.5,16.2C63.5,16.2,63.5,16.2,63.5,16.2C63.4,16.2,63.4,16.1,63.5,16.2C63.5,16.1,63.5,16.1,63.5,16.2z"/>
	<path class="st8" d="M64.2,16.1C64.2,16.1,64.2,16.1,64.2,16.1C64.2,16.2,64.2,16.2,64.2,16.1C64.1,16.2,64.2,16.1,64.2,16.1z"/>
	<path class="st8" d="M64.3,16.1C64.3,16.2,64.3,16.2,64.3,16.1c-0.1,0.1-0.1,0.1-0.1,0.1c0,0,0,0,0,0
		C64.2,16.2,64.2,16.2,64.3,16.1C64.3,16.2,64.3,16.1,64.3,16.1z"/>
	<path class="st8" d="M64.4,16.2C64.4,16.2,64.5,16.2,64.4,16.2C64.5,16.2,64.5,16.2,64.4,16.2c0.1,0,0.1,0,0.1,0
		C64.5,16.2,64.5,16.3,64.4,16.2C64.5,16.3,64.5,16.3,64.4,16.2C64.4,16.2,64.4,16.3,64.4,16.2C64.4,16.2,64.4,16.2,64.4,16.2
		C64.4,16.2,64.4,16.2,64.4,16.2C64.4,16.2,64.4,16.2,64.4,16.2C64.3,16.2,64.4,16.1,64.4,16.2z"/>
	<path class="st8" d="M63.6,16.2C63.6,16.2,63.6,16.2,63.6,16.2C63.5,16.2,63.6,16.1,63.6,16.2z"/>
	<path class="st8" d="M64.6,16.2C64.6,16.2,64.6,16.2,64.6,16.2C64.6,16.3,64.6,16.3,64.6,16.2C64.5,16.2,64.6,16.2,64.6,16.2z"/>
	<path class="st8" d="M64.7,16.2C64.7,16.2,64.6,16.3,64.7,16.2C64.6,16.3,64.6,16.2,64.7,16.2z"/>
	<path class="st8" d="M63.5,16.3C63.5,16.3,63.5,16.3,63.5,16.3C63.4,16.3,63.5,16.2,63.5,16.3z"/>
	<path class="st8" d="M63.7,16.4C63.7,16.4,63.7,16.4,63.7,16.4C63.6,16.4,63.6,16.4,63.7,16.4C63.6,16.4,63.6,16.4,63.7,16.4z"/>
	<path class="st8" d="M66.7,15.9c0.1,0,0.2,0,0.2,0.1c0,0.1,0,0.2,0,0.2c0,0-0.1,0-0.1,0c0,0-0.1,0-0.1,0c0,0-0.1,0-0.1,0
		c-0.1,0-0.3,0-0.4,0c-0.1,0-1.6,0.8-1.7,0.9c0,0-0.1,0.1-0.1,0.1c0.1,0,0.2,0.1,0.3,0.1c0.1,0,0.2,0.1,0.3,0.1c0.1,0,0.2,0,0.3,0
		c0,0,0.1,0.1,0.1,0.1c0,0.1,0,0.2-0.1,0.2c0,0,0,0.1,0,0.1c0,0.1-0.1,0.1-0.1,0.1c0,0,0,0.1-0.1,0.1c0,0-0.1,0-0.1,0
		c-0.1,0-0.1,0-0.2,0c0,0-0.1-0.1-0.1-0.1c0,0,0-0.1-0.1-0.1c0-0.1-0.1-0.1-0.2-0.2c-0.1,0-0.1-0.1-0.2-0.1c0,0,0,0,0,0
		c-0.1,0-0.1,0-0.2-0.1c-0.1,0-0.1-0.1-0.2-0.1c-0.1,0.1-0.3,0.1-0.4,0.2c-0.1,0-0.1,0.1-0.2,0.1c-0.1,0.1-0.2,0.1-0.3,0.2
		c0,0,0,0,0,0.1c0,0.1-0.1,0.1-0.2,0.1c-0.1,0-0.2,0-0.2,0c0,0,0,0,0-0.1c0-0.1,0-0.1,0-0.2c0,0,0-0.1-0.1-0.1c0,0-0.1-0.1-0.1-0.1
		c0,0,0-0.1,0-0.1c0,0,0-0.1,0-0.1c0,0,0.1,0,0.2,0c0,0,0.1,0,0.1,0c0.1,0,0.2,0,0.3,0c0.2,0,0.3-0.1,0.4-0.1
		c-0.1,0-0.2-0.1-0.3-0.1c-0.1,0-1.5-0.7-1.5-0.7c-0.1,0-0.1-0.1-0.2-0.1c0,0,0,0-0.1,0c0,0-0.1,0-0.1,0c-0.1,0-0.1,0.1-0.2,0.1
		c-0.1,0-0.1-0.1-0.1-0.1c0,0-0.1-0.1-0.1-0.1c0-0.1,0-0.1,0-0.1c0,0,0.1-0.1,0.1-0.1c0,0,0-0.1,0-0.1c0-0.1,0.1-0.1,0.2-0.1
		c0.1,0,0.1,0,0.1,0.1c0,0,0,0.1,0.1,0.1c0,0,1.5,0.8,1.6,0.8c0.1,0,0.2,0.1,0.3,0.1c0.1,0,0.1,0.1,0.2,0.1c0.1,0,0.2,0.1,0.3,0.1
		c0,0,0,0,0.1,0c0,0,0.1,0,0.1,0c0.1,0,0.2-0.1,0.4-0.2c0.1,0,0.2-0.1,0.2-0.1c0.1,0,1.5-0.7,1.6-0.8c0,0,0.1-0.1,0.1-0.1
		c0,0,0-0.1,0-0.1c0,0,0.2-0.1,0.2,0C66.6,15.8,66.6,15.9,66.7,15.9z M63.3,16.9c-0.1,0-0.2-0.1-0.2-0.1c-0.1,0-1.6-0.8-1.7-0.9
		c0,0-0.1,0-0.1-0.1c0,0,0-0.1-0.1-0.1c0,0-0.1,0-0.1,0c0,0-0.1,0-0.1,0c0,0.1,0,0.1,0,0.2c0,0,0,0.1,0,0.1c0,0,0,0,0,0
		c0,0,0,0-0.1,0c0,0,0-0.1,0.1-0.1c0,0,0,0-0.1,0c0,0,0,0,0.1-0.1c0,0-0.1,0.1-0.1,0.1c0,0,0.1,0.1,0.1,0.2c0.1,0,0.1,0,0.2,0
		c0.1,0.1,1.7,0.8,1.8,0.8c0.1,0,0.2,0.1,0.3,0.1c0.1,0,0.1,0,0.1,0.1c0.1,0,0.1,0,0.1,0c0,0-0.1,0-0.1,0c0,0,0,0,0,0c0,0,0,0-0.1,0
		c0,0,0,0,0,0c0,0,0,0-0.1,0c0,0,0,0,0,0c0,0-0.1,0-0.1,0c0,0-0.1,0-0.1,0c0,0-0.1,0-0.1,0c0,0-0.1,0-0.1,0c0,0,0,0,0,0
		c0,0-1.5-0.7-1.5-0.7c0,0,0,0-0.1,0c0,0,0,0,0,0c0,0,0,0-0.1,0c0,0,0,0,0,0c0,0,0,0-0.1,0c0,0,0,0,0,0c0,0-0.1,0-0.1,0
		c0,0-0.1,0-0.1,0c0,0,0,0,0,0c0,0,0,0,0,0c0,0,0.1-0.1,0.2,0c0,0,0,0,0,0c0,0,0.1,0,0.1,0c0,0,0,0,0,0c0,0,0,0,0,0
		c0,0,0.1,0.1,0.1,0.1c0,0,0,0,0,0c0,0,1.5,0.5,1.5,0.6c0,0,0,0,0.1,0c0,0,0,0,0,0c0,0,0.1,0,0.1,0c0,0,0,0,0,0
		C63.2,17,63.2,16.9,63.3,16.9C63.2,17,63.2,17,63.2,17C63.2,17,63.3,17,63.3,16.9c0,0.1,0,0.1,0,0.1c0,0,0.1,0,0.1,0c0,0,0,0,0,0
		c0,0,0,0,0.1,0c0,0,0,0,0,0c0,0,0.1,0,0.1,0c0,0,0.1,0,0.1,0c0,0,0.1,0,0.1,0C63.6,17,63.5,16.9,63.3,16.9z M66.6,15.8
		C66.6,15.8,66.6,15.8,66.6,15.8c-0.1-0.1-0.1-0.1-0.2-0.1c-0.1,0-0.1,0.1-0.1,0.2c-0.1,0-1.5,0.8-1.5,0.8c0,0-0.1,0.1-0.1,0.1
		c-0.2,0.1-0.3,0.1-0.5,0.2C64.1,17,64,17,64,17c-0.1,0.1-0.3,0.1-0.4,0.2c-0.1,0-0.2,0.1-0.3,0.1c0,0-0.1,0-0.1,0
		c-0.1,0-0.2,0.1-0.3,0.1c-0.1,0-0.1,0-0.2,0c-0.1,0-0.2,0-0.2,0c0,0,0,0,0,0.1c0,0,0,0.1,0,0.1c0,0,0.1,0,0.1,0.1c0,0,0,0,0-0.1
		c0,0,0,0-0.1,0c0,0,0.1,0,0.1-0.1c0,0,0,0,0.1,0c0,0,0,0,0,0c0,0,0,0,0,0c0,0,0,0,0,0c0,0,0,0,0,0c0,0.1-0.1,0.1-0.1,0.2
		c0,0.1,0.1,0,0.2,0c0.1,0,0.1,0,0.2-0.1c0,0,0,0,0,0c0,0,0.1-0.1,0.1-0.2c0.1,0,0.1-0.1,0.2-0.1c0.1,0,0.1-0.1,0.2-0.1
		c0.1,0,0.2-0.1,0.3-0.1c0,0,0.1,0,0.1,0c0.1,0,0.1,0,0.2-0.1c0.3-0.1,1.8-1,2.1-1c0.1,0,0.1,0,0.1,0c0.1,0,0.1,0,0.2,0
		c0.1,0,0.2,0,0.2,0c0,0,0,0,0-0.1c0,0,0-0.1-0.1-0.1c-0.1-0.1-0.2,0-0.2-0.1C66.5,15.9,66.5,15.9,66.6,15.8
		C66.5,15.9,66.5,15.9,66.6,15.8C66.5,15.9,66.5,15.9,66.6,15.8C66.6,15.9,66.6,15.8,66.6,15.8z M65.1,17.7c0,0,0.1,0,0.2-0.1
		c0,0,0,0,0-0.1c0,0,0-0.1-0.1-0.1c0,0-0.1-0.1-0.1-0.1c-0.1,0-0.1,0-0.2,0c0,0-0.1,0-0.2,0c-0.1,0-0.2-0.1-0.3-0.1
		c0,0-0.1-0.1-0.2-0.1c0,0-0.1,0-0.1,0.1c0,0,0,0,0,0c0,0,0,0,0,0c0,0,0.1,0,0.1,0c0,0,0,0,0.1,0c0,0,0,0,0,0c0,0,0.1,0,0.1,0
		c0,0,0.1,0,0.1,0c0,0,0,0,0,0c0,0,0.1,0,0.1,0c0,0,0,0,0,0c0,0,0.1,0,0.1,0c0,0,0.1,0,0.1,0c0,0,0,0.1,0,0.1c0,0-0.1,0,0-0.1
		c0,0,0,0,0,0c0,0,0,0-0.1,0c0,0,0,0,0-0.1c-0.1,0-0.1,0-0.1-0.1c0,0-0.1,0-0.1,0c0,0,0,0,0,0c0,0-0.1,0-0.1,0c0,0,0,0,0,0
		c0,0-0.1,0-0.1,0c0,0,0,0-0.1,0c0,0,0,0,0,0c0,0,0,0,0,0c0,0,0,0,0,0c0.1,0.1,0.3,0.1,0.4,0.2c0,0,0.1,0,0.1,0.1
		c0,0,0.1,0.1,0.1,0.1c0,0,0,0.1,0,0.1c0,0,0,0.1,0.1,0.1c0.1,0,0.1,0,0.2,0c0,0,0,0,0-0.1c0,0,0-0.1,0.1-0.1
		C65.3,17.8,65.2,17.7,65.1,17.7C65.2,17.8,65.2,17.8,65.1,17.7C65.2,17.8,65.1,17.8,65.1,17.7c0,0.1,0,0.1,0,0.1c0,0-0.1,0-0.1,0
		C65,17.8,65.1,17.7,65.1,17.7z"/>
	<path class="st8" d="M63.8,16.5C63.8,16.5,63.7,16.5,63.8,16.5C63.7,16.4,63.7,16.4,63.8,16.5C63.8,16.4,63.8,16.5,63.8,16.5z"/>
	<path class="st8" d="M63.9,16.4C63.9,16.5,63.9,16.5,63.9,16.4C63.9,16.5,63.9,16.5,63.9,16.4C63.8,16.5,63.8,16.5,63.9,16.4
		C63.8,16.5,63.9,16.4,63.9,16.4z"/>
	<path class="st8" d="M63.7,16.5C63.7,16.5,63.7,16.5,63.7,16.5C63.7,16.5,63.7,16.5,63.7,16.5c0,0.1-0.1,0.1-0.1,0.1
		C63.6,16.6,63.6,16.5,63.7,16.5C63.6,16.5,63.6,16.4,63.7,16.5z"/>
	<path class="st8" d="M63.8,16.5C63.7,16.6,63.7,16.6,63.8,16.5C63.6,16.5,63.8,16.5,63.8,16.5z"/>
	<path class="st8" d="M61.2,15.8C61.2,15.9,61.1,15.9,61.2,15.8C61.1,15.9,61.1,15.9,61.2,15.8C61,15.8,61.1,15.8,61.2,15.8z"/>
	<path class="st8" d="M63.9,16.5C63.9,16.6,63.9,16.6,63.9,16.5C63.8,16.6,63.9,16.5,63.9,16.5z"/>
	<path class="st8" d="M64,16.6C64,16.6,64,16.6,64,16.6C63.9,16.6,64,16.5,64,16.6z"/>
	<path class="st8" d="M66.5,15.8C66.5,15.8,66.4,15.9,66.5,15.8C66.4,15.9,66.4,15.9,66.5,15.8C66.4,15.9,66.4,15.9,66.5,15.8
		c-0.1,0.1-0.1,0.1-0.1,0.1C66.3,15.9,66.4,15.9,66.5,15.8C66.4,15.9,66.4,15.9,66.5,15.8C66.4,15.8,66.4,15.8,66.5,15.8z"/>
	<path class="st8" d="M61.2,15.9c0,0,0,0.1,0,0.1c0,0,0,0.1-0.1,0.1c0,0,0,0,0,0C61.1,16,61.1,16,61.2,15.9
		C61.1,16,61.1,16,61.2,15.9C61.1,15.9,61.1,16,61.2,15.9C61.1,15.9,61.1,15.9,61.2,15.9z"/>
	<path class="st8" d="M66.4,15.9C66.4,16,66.3,16,66.4,15.9C66.3,15.9,66.4,15.9,66.4,15.9z"/>
	<path class="st8" d="M61,16.2C61,16.2,61,16.2,61,16.2C61,16.1,61,16.1,61,16.2z"/>
	<path class="st8" d="M66.4,16.1C66.5,16.1,66.5,16.1,66.4,16.1C66.5,16.1,66.5,16.1,66.4,16.1c0.1,0,0.1,0,0.1,0
		C66.6,16.1,66.5,16.2,66.4,16.1C66.5,16.2,66.4,16.2,66.4,16.1c-0.1,0-0.1,0.1-0.1,0C66.3,16.1,66.4,16.1,66.4,16.1
		C66.4,16.1,66.4,16.1,66.4,16.1z"/>
	<path class="st8" d="M66.7,16.1C66.7,16.1,66.7,16.1,66.7,16.1C66.7,16.1,66.7,16.1,66.7,16.1C66.7,16.1,66.7,16.1,66.7,16.1
		C66.7,16.2,66.7,16.2,66.7,16.1C66.6,16.2,66.6,16.2,66.7,16.1C66.6,16.1,66.6,16.1,66.7,16.1z"/>
	<path class="st8" d="M66.3,16.1c0,0.1-0.1,0.1-0.1,0.1c0,0,0,0,0,0C66.2,16.1,66.3,16.1,66.3,16.1z"/>
	<path class="st8" d="M66.1,16.2C66.1,16.2,66.1,16.1,66.1,16.2C66.2,16.1,66.2,16.1,66.1,16.2C66.2,16.2,66.2,16.2,66.1,16.2
		C66.1,16.2,66.1,16.2,66.1,16.2z"/>
	<path class="st8" d="M64.7,16.9C64.8,16.9,64.7,17,64.7,16.9c-0.1,0.1-0.1,0.2-0.2,0.1c0,0,0,0,0,0c0,0,0,0,0,0c0,0,0-0.1,0.1,0
		C64.6,17,64.6,17,64.7,16.9C64.7,16.9,64.7,17,64.7,16.9C64.7,16.9,64.7,16.9,64.7,16.9z"/>
	<path class="st8" d="M64.4,17C64.5,17.1,64.4,17.1,64.4,17C64.4,17.1,64.4,17,64.4,17C64.4,17,64.4,17,64.4,17z"/>
	<path class="st8" d="M64.3,17.1C64.3,17.1,64.3,17.1,64.3,17.1C64.3,17,64.3,17.1,64.3,17.1C64.4,17.1,64.3,17.2,64.3,17.1z"/>
	<path class="st8" d="M64.3,17.2c0,0.1,0,0.1-0.1,0.1c0,0-0.1,0-0.1,0c0,0,0,0-0.1,0c0,0-0.1,0-0.1,0c0,0-0.1,0.1-0.1,0
		c0,0,0.1,0,0-0.1c0,0,0.1,0,0.1-0.1c0,0,0,0,0,0c0,0,0.1-0.1,0.1,0c0,0,0-0.1,0.1-0.1c0,0,0,0,0,0c0,0,0.1,0,0.1-0.1
		C64.2,17.2,64.2,17.2,64.3,17.2C64.2,17.2,64.2,17.2,64.3,17.2C64.2,17.2,64.2,17.2,64.3,17.2z"/>
	<path class="st8" d="M63.6,17.4C63.6,17.4,63.6,17.4,63.6,17.4C63.6,17.3,63.6,17.3,63.6,17.4C63.7,17.3,63.7,17.3,63.6,17.4
		C63.7,17.4,63.6,17.4,63.6,17.4z"/>
	<path class="st8" d="M63.5,17.4C63.6,17.4,63.5,17.4,63.5,17.4C63.5,17.5,63.5,17.4,63.5,17.4c-0.1,0.1-0.1,0.1-0.1,0.1
		c0,0,0,0,0,0c0,0,0,0,0,0c0,0,0,0-0.1,0c0,0,0-0.1,0-0.1c0,0,0,0,0,0c0,0,0-0.1,0.1-0.1c0,0,0,0,0,0C63.4,17.5,63.4,17.4,63.5,17.4
		C63.5,17.4,63.5,17.4,63.5,17.4C63.5,17.4,63.5,17.4,63.5,17.4z"/>
	<path class="st8" d="M62.5,17.5C62.5,17.5,62.5,17.5,62.5,17.5C62.4,17.5,62.5,17.4,62.5,17.5z"/>
	<path class="st8" d="M65.1,17.5C65.1,17.5,65.1,17.5,65.1,17.5C65,17.5,65,17.5,65.1,17.5C65,17.5,65,17.5,65.1,17.5z"/>
	<path class="st8" d="M64.9,17.6C64.9,17.6,64.9,17.6,64.9,17.6c-0.1,0-0.1,0-0.1,0C64.8,17.6,64.9,17.6,64.9,17.6
		c-0.1,0-0.1,0-0.1-0.1c0,0,0,0,0,0C64.9,17.5,65,17.5,64.9,17.6C65,17.6,64.9,17.6,64.9,17.6z"/>
	<path class="st8" d="M63.1,17.6C63.1,17.6,63.2,17.5,63.1,17.6C63.2,17.5,63.2,17.6,63.1,17.6z"/>
	<path class="st8" d="M62.6,17.5C62.5,17.6,62.5,17.6,62.6,17.5C62.5,17.6,62.5,17.6,62.6,17.5C62.5,17.6,62.5,17.5,62.6,17.5z"/>
	<path class="st8" d="M63,17.6C63,17.6,63,17.6,63,17.6C63,17.5,63.1,17.5,63,17.6C63.1,17.6,63.1,17.6,63,17.6z"/>
	<path class="st8" d="M63,17.6c0,0,0,0.1-0.1,0.1C62.9,17.7,62.9,17.7,63,17.6C63,17.6,63,17.6,63,17.6z"/>
	<path class="st8" d="M64.9,17.7C64.9,17.7,64.9,17.7,64.9,17.7C64.9,17.7,64.9,17.7,64.9,17.7C64.9,17.7,64.9,17.7,64.9,17.7
		C64.8,17.7,64.8,17.7,64.9,17.7C64.8,17.7,64.9,17.7,64.9,17.7C64.8,17.7,64.8,17.7,64.9,17.7C64.8,17.6,65,17.7,64.9,17.7z"/>
	<path class="st8" d="M62.6,17.7C62.6,17.7,62.6,17.7,62.6,17.7C62.7,17.7,62.7,17.6,62.6,17.7C62.7,17.7,62.7,17.7,62.6,17.7z"/>
	<path class="st8" d="M62.7,17.7C62.7,17.8,62.6,17.8,62.7,17.7C62.6,17.8,62.6,17.7,62.7,17.7z"/>
	<path class="st8" d="M65,17.9C65,17.9,65,17.9,65,17.9C65,17.9,65,17.9,65,17.9C65,17.9,65,17.9,65,17.9C65,17.9,65,17.9,65,17.9
		C65,18,64.9,18,65,17.9C64.9,17.9,64.9,17.9,65,17.9C64.9,17.9,64.9,17.8,65,17.9C64.9,17.8,64.9,17.8,65,17.9
		C64.9,17.8,64.9,17.7,65,17.9C65,17.8,65,17.8,65,17.9z"/>
	<path class="st8" d="M62.7,17.8C62.7,17.8,62.7,17.8,62.7,17.8C62.7,17.8,62.7,17.8,62.7,17.8C62.7,17.8,62.8,17.9,62.7,17.8
		c0.1,0.1,0,0.1,0,0.1C62.7,17.9,62.7,17.9,62.7,17.8c0,0.1-0.1,0.1-0.1,0.1C62.6,17.9,62.6,17.9,62.7,17.8
		C62.6,17.9,62.6,17.9,62.7,17.8C62.5,17.9,62.7,17.8,62.7,17.8z"/>
	<path class="st8" d="M62.8,17.9C62.8,17.9,62.8,17.8,62.8,17.9C62.9,17.9,62.8,17.9,62.8,17.9z"/>
	<path class="st8" d="M65.1,17.9C65.1,17.9,65.1,17.9,65.1,17.9C65.1,17.9,65.1,17.9,65.1,17.9C65,17.9,65.1,17.9,65.1,17.9z"/>
</g>
<g>
	<path class="st9" d="M63.6,14.4c-0.1,0.1-0.2,0.1-0.3,0.2c-0.1,0-0.2,0.1-0.3,0.1c0-0.1,0.1-0.1,0.1-0.1c-0.1,0-0.1,0-0.2,0.1
		c0,0,0.1-0.1,0.1-0.1c0,0-0.1,0-0.1,0c0,0,0,0,0,0c0,0-0.1,0-0.1,0c0,0,0,0,0,0c0,0,0,0,0,0c0,0,0,0,0,0c-0.1,0-0.1,0.1-0.1,0.2
		c0,0,0,0.1,0,0.1c0,0,0,0.1,0,0.1c0,0,0,0,0,0.1c0,0,0,0,0,0c0,0,0,0,0,0.1c0,0,0,0,0,0c0,0,0,0.1,0,0.1c0-0.1,0-0.3,0.1-0.4
		c0,0,0-0.1,0-0.1c0,0,0.1-0.1,0.1-0.1c0,0,0.1-0.1,0.1-0.1c0,0,0.1-0.1,0.1-0.1c0,0,0.1-0.1,0.1-0.1c0,0,0.1,0,0.1,0
		c0.1,0,0.2,0,0.3-0.1c0,0,0.1,0,0.1,0c0,0,0.1,0,0.1,0c0,0,0.1,0,0.1,0c0,0,0.1,0,0.1,0.1c0,0-0.1,0-0.1,0.1
		c-0.1,0.1-0.3,0.1-0.4,0.2c0,0,0,0,0,0c0,0,0,0,0,0c0,0,0,0-0.1,0c0,0,0,0,0,0c0,0,0,0-0.1,0c0,0,0,0,0,0c0,0-0.1,0-0.1,0
		c-0.1,0-0.1,0-0.2,0.1c0,0,0,0,0,0c0,0-0.1,0-0.1,0c0,0,0.1-0.1,0.1-0.1c0,0,0.1,0,0.1,0c0,0,0,0,0.1,0
		C63.4,14.5,63.5,14.5,63.6,14.4C63.6,14.4,63.6,14.4,63.6,14.4z M63.7,14.2C63.7,14.2,63.7,14.2,63.7,14.2
		C63.7,14.2,63.7,14.2,63.7,14.2z M63.6,14.3C63.6,14.3,63.7,14.3,63.6,14.3C63.7,14.2,63.6,14.2,63.6,14.3z M63.5,14.3
		C63.6,14.3,63.6,14.3,63.5,14.3C63.6,14.2,63.5,14.2,63.5,14.3z M63.4,14.3C63.5,14.3,63.5,14.3,63.4,14.3
		C63.5,14.3,63.5,14.2,63.4,14.3z M63.3,14.3C63.3,14.3,63.3,14.3,63.3,14.3C63.3,14.3,63.3,14.3,63.3,14.3
		C63.3,14.4,63.3,14.3,63.3,14.3C63.3,14.4,63.4,14.4,63.3,14.3C63.4,14.4,63.4,14.3,63.3,14.3c0.1,0,0.1,0,0.1,0c0,0,0,0,0,0
		C63.4,14.3,63.4,14.3,63.3,14.3z M63.2,14.4C63.2,14.4,63.3,14.4,63.2,14.4C63.3,14.3,63.2,14.3,63.2,14.4z M63.2,14.4
		C63.2,14.4,63.1,14.4,63.2,14.4C63.1,14.5,63.2,14.5,63.2,14.4C63.2,14.4,63.2,14.4,63.2,14.4C63.2,14.4,63.2,14.4,63.2,14.4z"/>
	<path class="st9" d="M64.6,14.4c-0.1,0-0.2,0.1-0.3,0.1c0,0,0,0,0,0c0,0,0,0,0,0c0,0-0.1,0-0.1,0c0,0,0,0,0,0c0,0-0.1,0-0.1,0
		c0,0,0,0,0,0c0,0-0.1,0-0.1,0c0,0,0,0,0,0c0,0,0,0-0.1,0c0,0,0,0,0,0c0,0-0.1,0-0.1,0c0,0,0,0,0,0c0,0,0,0-0.1,0c0,0,0,0,0,0
		c-0.1,0-0.1,0-0.2,0.1c0.1-0.1,0.2-0.1,0.3-0.2c-0.1,0-0.1,0-0.2,0.1c-0.1,0-0.1,0.1-0.2,0.1c0,0,0,0,0.1-0.1
		c-0.2,0.1-0.4,0.1-0.4,0.3c0,0-0.1,0.1-0.1,0.1c0,0,0,0.1,0,0.1c0,0,0,0,0,0c0,0,0,0.1,0,0.1c0,0,0,0,0,0c0,0,0,0.1,0,0.1
		c0-0.2,0.1-0.3,0.2-0.4c0-0.1,0.1-0.1,0.2-0.2c0.1,0,0.2-0.1,0.2-0.1c0.1,0,0.1-0.1,0.2-0.1c0.2-0.1,0.3-0.2,0.4-0.3
		c0,0,0.1-0.1,0.2-0.1c0.1,0,0.1-0.1,0.2-0.1c0,0,0.1,0,0.1,0c0,0,0.1,0,0.1,0.1C64.5,14.3,64.5,14.3,64.6,14.4z"/>
	<path class="st9" d="M62.8,14.9c0-0.1,0-0.1,0.1-0.1c0,0,0,0,0,0C62.9,14.8,62.8,14.9,62.8,14.9z"/>
	<path class="st9" d="M62.9,14.8C62.9,14.8,62.9,14.8,62.9,14.8C62.9,14.8,62.9,14.8,62.9,14.8C62.9,14.8,62.9,14.8,62.9,14.8z"/>
	<path class="st9" d="M63.2,15C63.1,15,63.1,15,63.2,15C63.1,15,63.1,15,63.2,15z"/>
	<path class="st9" d="M63.5,15C63.4,15,63.4,15,63.5,15C63.4,15,63.4,15,63.5,15z"/>
	<path class="st9" d="M62.6,15.5C62.6,15.5,62.5,15.5,62.6,15.5C62.5,15.5,62.5,15.5,62.6,15.5z"/>
	<path class="st9" d="M62.6,15.5c0,0.1-0.1,0.2-0.1,0.3c0,0,0,0,0-0.1c0,0,0-0.1,0-0.1c0,0,0,0,0,0c0,0,0-0.1,0-0.1
		C62.5,15.6,62.6,15.6,62.6,15.5C62.6,15.6,62.6,15.6,62.6,15.5C62.6,15.5,62.6,15.5,62.6,15.5C62.6,15.5,62.6,15.5,62.6,15.5z"/>
	<path class="st9" d="M62.5,15.5C62.5,15.6,62.5,15.6,62.5,15.5C62.5,15.6,62.5,15.6,62.5,15.5z"/>
	<path class="st9" d="M62.9,15.6C62.8,15.6,62.8,15.6,62.9,15.6C62.8,15.6,62.8,15.6,62.9,15.6z"/>
	<path class="st9" d="M62.5,15.6C62.5,15.6,62.5,15.6,62.5,15.6C62.5,15.6,62.5,15.6,62.5,15.6z"/>
	<path class="st9" d="M62.8,15.6C62.8,15.6,62.8,15.6,62.8,15.6C62.8,15.6,62.8,15.6,62.8,15.6C62.7,15.6,62.8,15.6,62.8,15.6z"/>
	<path class="st9" d="M62.3,15.6c0.1,0,0.1,0.1,0,0.1c0,0-0.1,0-0.1,0c0,0-0.1,0-0.1,0.1c0,0,0,0-0.1,0c0,0,0,0,0,0
		c0,0,0.1,0.1,0.1,0c0,0,0,0,0.1,0c0,0,0,0,0-0.1c0,0,0,0.1,0,0.1c-0.1,0.1-0.3,0-0.4,0c0-0.1,0.1-0.2,0.2-0.2c0,0,0,0,0,0
		c0,0,0,0,0.1,0c0,0,0,0,0,0c0,0,0,0,0.1,0c0,0,0,0,0,0C62.2,15.7,62.2,15.7,62.3,15.6C62.3,15.7,62.2,15.7,62.3,15.6
		C62.3,15.6,62.3,15.7,62.3,15.6z M62,15.9C62,15.9,62,15.9,62,15.9C62,15.9,62,15.9,62,15.9z M62.2,15.9
		C62.2,15.9,62.2,15.9,62.2,15.9C62.2,16,62.2,15.9,62.2,15.9z"/>
	<path class="st9" d="M62.6,15.7C62.6,15.7,62.7,15.7,62.6,15.7C62.6,15.7,62.6,15.7,62.6,15.7C62.6,15.7,62.6,15.7,62.6,15.7z"/>
	<path class="st9" d="M62.7,15.7C62.7,15.7,62.7,15.8,62.7,15.7C62.7,15.8,62.6,15.8,62.7,15.7C62.6,15.7,62.7,15.7,62.7,15.7
		C62.7,15.7,62.7,15.7,62.7,15.7z"/>
	<path class="st9" d="M62.8,15.7c0,0,0,0.1-0.1,0.1c-0.1,0-0.1,0.1-0.2,0c0,0,0.1-0.1,0.2-0.1C62.8,15.8,62.8,15.8,62.8,15.7
		c-0.1,0.1-0.1,0.1-0.1,0.1C62.7,15.8,62.7,15.8,62.8,15.7C62.8,15.8,62.8,15.7,62.8,15.7z"/>
	<path class="st9" d="M62.3,15.8C62.3,15.8,62.4,15.8,62.3,15.8C62.4,15.8,62.4,15.8,62.3,15.8C62.3,15.8,62.3,15.8,62.3,15.8z"/>
	<path class="st9" d="M62.4,15.8C62.4,15.8,62.4,15.8,62.4,15.8C62.4,15.8,62.4,15.8,62.4,15.8C62.4,15.8,62.4,15.8,62.4,15.8z"/>
	<path class="st9" d="M62.7,15.8C62.7,15.8,62.6,15.8,62.7,15.8C62.6,15.8,62.7,15.8,62.7,15.8z"/>
	<path class="st9" d="M62.3,15.8C62.3,15.8,62.3,15.8,62.3,15.8c0.1,0,0,0.1,0,0.1C62.3,15.9,62.3,15.9,62.3,15.8z"/>
	<path class="st9" d="M62.4,15.9C62.4,15.9,62.4,15.9,62.4,15.9C62.4,15.9,62.4,15.9,62.4,15.9z"/>
	<path class="st9" d="M62.4,15.9C62.4,15.9,62.4,15.9,62.4,15.9C62.4,15.9,62.4,15.9,62.4,15.9C62.4,15.9,62.4,15.9,62.4,15.9z"/>
	<path class="st9" d="M62.5,15.9C62.5,15.9,62.5,15.9,62.5,15.9C62.5,16,62.5,16,62.5,15.9C62.5,15.9,62.5,15.9,62.5,15.9z"/>
	<path class="st9" d="M62.4,16c0,0,0,0.1,0,0.1c0,0,0,0,0,0c0,0,0.1,0,0.1-0.1c0,0,0,0,0,0c0,0,0,0,0,0c0,0,0,0,0.1,0
		c0,0.1,0,0.1,0,0.2c-0.1,0.1-0.2,0.1-0.3,0.1c0,0,0-0.1,0-0.1c0,0,0,0,0,0c0,0,0-0.1,0.1-0.1c0,0,0,0,0,0c0,0,0,0-0.1,0
		C62.3,16.1,62.3,16.1,62.4,16C62.3,16,62.3,16,62.4,16C62.3,16,62.4,16,62.4,16z M62.4,16.2C62.4,16.2,62.5,16.2,62.4,16.2
		C62.4,16.2,62.4,16.2,62.4,16.2z"/>
	<path class="st9" d="M62.5,16C62.5,16,62.5,16,62.5,16C62.5,16,62.5,16,62.5,16z"/>
	<path class="st9" d="M64.7,14.4C64.7,14.4,64.7,14.4,64.7,14.4C64.8,14.4,64.8,14.4,64.7,14.4c0.1,0.1,0.1,0.1,0.2,0.2
		c0,0.1,0.1,0.1,0.1,0.2c0,0,0,0.1,0,0.1c0,0,0,0.1,0,0.1c-0.2,0-0.4,0-0.6,0.1c-0.1,0-0.2,0-0.3,0c-0.1,0-0.2,0-0.2,0.1
		c-0.1,0-0.2,0.1-0.2,0.1c-0.2,0.1-0.4,0.1-0.5,0.2c-0.1,0.1-0.2,0.2-0.4,0.3c0,0,0.1-0.1,0.1-0.1c0,0,0-0.1,0-0.1c0,0,0,0,0,0
		c0,0,0,0,0-0.1c0,0,0-0.1,0-0.1c0,0-0.1,0-0.1,0.1c0,0,0,0,0,0.1c0,0,0,0,0,0c0,0,0,0,0,0.1c0,0,0,0,0,0c0,0,0,0,0,0.1
		c0,0-0.1,0-0.1,0.1c0.1-0.1,0.2-0.3,0.3-0.4c0,0,0.1-0.1,0.1-0.1c0,0,0.1,0,0.1-0.1c0.1,0,0.2-0.1,0.3-0.2c0.1,0,0.1-0.1,0.2-0.1
		c0.1,0,0.1-0.1,0.2-0.1c0.1-0.1,0.3-0.1,0.4-0.1C64.5,14.5,64.6,14.4,64.7,14.4z M63.4,14.9C63.4,14.9,63.4,14.9,63.4,14.9
		c-0.1,0-0.1,0-0.1,0.1c0,0-0.1,0-0.1,0.1c0,0-0.1,0.1-0.1,0.2c0.1,0,0.1-0.1,0.2-0.1c0,0,0,0,0,0.1c0,0-0.1,0.1-0.1,0.1
		c0.1,0,0.1-0.1,0.2-0.1c0,0,0-0.1,0-0.1c0,0,0,0.1,0,0.1c-0.1,0-0.2,0.1-0.2,0.1c0,0,0.1-0.1,0.2-0.1c0,0-0.1,0-0.1,0.1
		c0.1,0,0.1-0.1,0.2-0.1c0,0,0.1,0,0.1,0c0,0,0.1,0,0.1,0c0,0,0.1,0,0.1-0.1c-0.1,0-0.1,0-0.2,0.1c0,0,0.1,0,0.1-0.1
		c0,0,0.1,0,0.1,0c0.1,0,0.1-0.1,0.2-0.1c-0.1,0-0.2,0-0.2,0.1c0,0-0.1,0-0.1,0c-0.1,0-0.1,0.1-0.2,0.1c0,0,0.1-0.1,0.1-0.1
		c0,0,0.1,0,0.1,0c0,0,0-0.1,0.1-0.1c0,0,0.1,0,0.1-0.1c0,0,0,0,0,0c-0.1,0-0.2,0-0.2,0.1c0,0,0,0,0,0c0,0,0,0-0.1,0
		c0.1-0.1,0.2-0.1,0.3-0.2c-0.1,0-0.2,0-0.2,0.1C63.5,14.9,63.5,14.9,63.4,14.9C63.5,14.9,63.5,14.9,63.4,14.9
		C63.4,15,63.4,15,63.4,14.9C63.4,15,63.4,15,63.4,14.9c0.1,0,0.1,0,0.1,0C63.5,14.9,63.5,14.9,63.4,14.9z M62.9,15.3
		C62.9,15.3,62.9,15.3,62.9,15.3C63,15.3,63,15.3,62.9,15.3C63,15.3,62.9,15.3,62.9,15.3z"/>
	<path class="st9" d="M63,14.8C63,14.8,63,14.8,63,14.8c-0.1,0.2-0.2,0.3-0.3,0.5c0,0,0-0.1,0-0.1c0-0.1,0-0.1,0.1-0.2
		c0,0,0,0,0-0.1c0,0,0,0,0.1-0.1C62.9,14.9,62.9,14.8,63,14.8C63,14.8,63,14.8,63,14.8C63,14.9,63,14.8,63,14.8z"/>
	<path class="st9" d="M63.1,14.9C63.1,15,63.1,15,63.1,14.9C63,15,63.1,15,63.1,14.9C63.1,15,63.1,15,63,15c0,0,0,0,0,0
		C63,15,63.1,15,63.1,14.9z"/>
	<path class="st10" d="M63.9,14.1C63.9,14.1,63.9,14.2,63.9,14.1c0.1,0.1,0.1,0.1,0.1,0.1s-0.1,0.1-0.2,0.1c-0.1,0-0.2,0.1-0.2,0.1
		c0,0-0.1,0-0.1,0s0.1-0.1,0.2-0.2c0.1,0-0.2,0.1-0.2,0.1s-0.2,0.1-0.3,0.1c-0.1,0-0.1,0,0-0.1c0.2-0.1,0.5-0.2,0.5-0.2
		c0,0-0.1,0-0.2,0c-0.1,0-0.4,0.1-0.5,0.2c-0.1,0.1-0.3,0.2-0.3,0.2l-0.1,0.1l-0.1,0.2l0,0.4l0,0.1l0.1,0l0.1-0.2l0.1-0.2l0.2-0.1
		l0.3-0.1l0.3-0.2l0.2-0.1l0.2-0.1l-0.1-0.1L63.9,14.1L63.9,14.1z"/>
	<path class="st10" d="M64.1,14.2c0,0,0.2,0.1,0.2,0.1c0,0,0.1,0,0,0.1c-0.1,0-0.2,0.1-0.3,0.1c-0.1,0-0.2,0.1-0.3,0.1
		c-0.1,0-0.2,0.1-0.2,0.1c0,0-0.1,0.1-0.1,0.1s0.1-0.1,0.2-0.1c0.1,0,0.2-0.1,0.2-0.1l0.2-0.1l0.2-0.1l0.3-0.1l-0.1-0.1l-0.2-0.1
		C64.3,14.2,64.2,14.2,64.1,14.2z"/>
	<path class="st10" d="M63.2,14.9c0,0-0.1,0-0.1,0c0,0-0.3,0.2-0.3,0.2c0,0-0.1,0.2-0.1,0.2c0,0.1,0,0.1,0,0.1s0.1-0.1,0.1-0.2
		c0-0.1,0.1-0.1,0.1-0.2c0,0,0.1-0.1,0.1-0.1C63.1,15,63.2,14.9,63.2,14.9z"/>
	<path class="st10" d="M64.7,14.4c0,0,0.1,0.1,0.1,0.2c0,0,0.1,0.3,0.1,0.3c0,0-0.2,0-0.3,0c-0.1,0-0.4,0-0.5,0
		C64,15,63.9,15,63.9,15l-0.2,0.1c0,0,0.3-0.2,0.3-0.2c0,0-0.2,0.1-0.3,0.1c-0.1,0,0.3-0.2,0.3-0.2c0,0-0.2,0.1-0.2,0.1s0.1,0,0,0
		c-0.1,0-0.3,0.1-0.3,0.1s-0.3,0.2-0.4,0.2c0,0-0.2,0.2-0.2,0.3c-0.1,0-0.1,0.1-0.1,0.1l-0.1,0.1l0.1,0.1l0,0c0,0,0.1-0.1,0.2-0.1
		c0,0,0.1-0.2,0.2-0.2c0.1,0,0.1-0.1,0.2-0.1c0.1,0,0.1-0.1,0.2-0.1c0.1,0,0.3-0.1,0.3-0.1s0.2-0.1,0.3-0.1c0.1,0,0.3,0,0.3,0
		c0.1,0,0.2,0,0.3,0c0.1,0,0.3,0,0.3,0c0,0,0.1,0,0.1,0s0-0.1,0-0.1c0,0-0.1-0.2-0.1-0.3c-0.1-0.1-0.1-0.2-0.1-0.2
		C64.8,14.4,64.7,14.3,64.7,14.4L64.7,14.4z"/>
	<path class="st10" d="M61.9,15.8c0,0,0.2-0.1,0.3-0.1c0.1,0,0.2,0,0.2,0c0,0,0.1,0,0.1,0l0.1,0.1c0,0,0-0.1,0-0.2
		c0-0.1,0-0.2,0.1-0.2c0,0,0,0-0.1,0c-0.1,0-0.1,0.1-0.1,0.1s0,0.1-0.1,0c-0.1-0.1-0.3,0.1-0.3,0.1S61.9,15.8,61.9,15.8z"/>
	<path class="st10" d="M62.1,15.9C62.1,15.9,61.9,15.9,62.1,15.9c0,0.1,0.2,0,0.2,0.1C62.3,16,62,16,62,16l0.2,0l0.1,0l0,0.1l0,0.2
		c0,0,0.1-0.1,0.1-0.1c0-0.1,0.1-0.3,0.1-0.3s0,0,0,0.1c0,0,0,0.2,0,0.2c0,0,0.2-0.1,0.2-0.1l0-0.2l-0.1-0.2l-0.1,0l-0.1,0
		L62.1,15.9z"/>
	<path class="st10" d="M62.8,15.7c0,0,0,0.1,0,0.2l-0.1,0l-0.1,0l0-0.1l0-0.1c0,0,0-0.1,0-0.1C62.6,15.6,62.8,15.7,62.8,15.7z"/>
	<path class="st8" d="M63.7,14.2C63.7,14.2,63.7,14.2,63.7,14.2C63.7,14.2,63.7,14.2,63.7,14.2z"/>
	<path class="st8" d="M63.7,14.3C63.7,14.3,63.6,14.3,63.7,14.3C63.6,14.2,63.7,14.2,63.7,14.3z"/>
	<path class="st8" d="M63.6,14.3C63.6,14.3,63.6,14.3,63.6,14.3C63.5,14.2,63.6,14.2,63.6,14.3z"/>
	<path class="st8" d="M63.5,14.3C63.5,14.3,63.5,14.3,63.5,14.3C63.5,14.2,63.5,14.3,63.5,14.3z"/>
	<path class="st8" d="M63.4,14.3C63.4,14.3,63.4,14.3,63.4,14.3C63.4,14.3,63.4,14.3,63.4,14.3C63.4,14.3,63.4,14.4,63.4,14.3
		c-0.1,0-0.1,0-0.1,0c0,0-0.1,0-0.1,0c0,0,0.1,0,0.1,0c0,0,0,0,0,0C63.4,14.3,63.4,14.3,63.4,14.3z"/>
	<path class="st8" d="M63.3,14.4C63.3,14.4,63.2,14.4,63.3,14.4C63.2,14.3,63.3,14.3,63.3,14.4z"/>
	<path class="st8" d="M63.2,14.4C63.2,14.4,63.2,14.4,63.2,14.4c0,0-0.1,0-0.1,0C63.1,14.4,63.2,14.4,63.2,14.4
		C63.2,14.4,63.2,14.4,63.2,14.4z"/>
	<path class="st8" d="M63,15.3C63,15.3,63,15.3,63,15.3C62.9,15.3,62.9,15.3,63,15.3C62.9,15.3,63,15.3,63,15.3z"/>
	<path class="st8" d="M62,15.9C62,15.9,62,15.9,62,15.9C62,15.9,62,15.9,62,15.9z"/>
	<path class="st8" d="M62.2,16C62.2,15.9,62.2,15.9,62.2,16C62.2,15.9,62.2,16,62.2,16z"/>
	<path class="st8" d="M62.5,16.2C62.5,16.2,62.4,16.2,62.5,16.2C62.4,16.2,62.4,16.2,62.5,16.2z"/>
	<path class="st8" d="M64.1,14.2c0.2-0.1,0.4,0.1,0.5,0.2c0,0,0.1,0,0.1-0.1c0,0,0.1,0.1,0.1,0.1c0,0.1,0.1,0.2,0.1,0.2
		c0,0.1,0.1,0.1,0.1,0.2c0,0,0,0.1,0,0.1c0,0,0,0-0.1,0.1c0,0,0,0,0,0c-0.1,0-0.1,0-0.2,0c-0.1,0-0.2,0-0.3,0c-0.1,0-0.2,0-0.3,0
		c-0.1,0-0.1,0-0.2,0c0,0-0.1,0-0.1,0.1c0,0-0.1,0-0.1,0.1c0,0-0.1,0-0.1,0c-0.1,0-0.1,0-0.2,0c-0.1,0-0.2,0.1-0.3,0.1
		c-0.1,0.1-0.1,0.2-0.2,0.2c0,0.1,0,0.2-0.1,0.2c0,0,0,0-0.1,0c-0.1,0-0.1,0-0.2,0c0,0.1,0,0.1,0,0.2c0,0.1,0,0.1-0.1,0.1
		c-0.1,0-0.2,0.1-0.2,0.1c0,0,0,0,0,0.1c0,0-0.1-0.1-0.1-0.1c0-0.1,0-0.2,0-0.3c0,0,0,0-0.1,0c-0.1,0-0.2,0-0.3,0c0,0-0.1,0-0.1,0
		c0,0,0-0.1,0-0.1c0,0,0.1-0.1,0.1-0.1c0,0,0,0,0-0.1c0,0,0,0,0,0c0.1-0.1,0.2-0.1,0.2-0.1c0,0,0.1,0,0.1,0c0,0,0,0,0.1,0
		c0,0,0-0.1,0-0.1c0,0,0-0.1,0-0.1c0,0,0.1,0,0.2,0c-0.1-0.1,0-0.3,0-0.4c0-0.1,0-0.3,0.1-0.3c0,0,0,0,0,0c0.1-0.1,0.2-0.2,0.3-0.2
		c0.1-0.1,0.2-0.1,0.3-0.2c0.2,0,0.3-0.1,0.5-0.1c0,0,0.1,0,0.1,0c0,0,0.1,0,0.1,0C64,14.1,64.1,14.2,64.1,14.2z M63.6,14.4
		c-0.1,0.1-0.2,0.1-0.2,0.2c0,0,0,0-0.1,0c0,0-0.1,0-0.1,0c0,0-0.1,0.1-0.1,0.1c0,0,0.1,0,0.1,0c0,0,0,0,0,0c0.1,0,0.1,0,0.2-0.1
		c0,0,0.1,0,0.1,0c0,0,0,0,0,0c0,0,0.1,0,0.1,0c0,0,0,0,0,0c0,0,0.1,0,0.1,0c0,0,0,0,0,0c0,0,0,0,0,0c0.1-0.1,0.2-0.2,0.4-0.2
		c0,0,0.1,0,0.1-0.1c0,0-0.1,0-0.1-0.1c0,0-0.1,0-0.1,0c0,0-0.1,0-0.1,0c0,0-0.1,0-0.1,0c-0.1,0-0.2,0-0.3,0.1c0,0-0.1,0-0.1,0
		c0,0-0.1,0.1-0.1,0.1c0,0-0.1,0.1-0.1,0.1c0,0-0.1,0.1-0.1,0.1c0,0-0.1,0.1-0.1,0.1c0,0,0,0.1,0,0.1c0,0.1-0.1,0.3-0.1,0.4
		c0,0,0-0.1,0-0.1c0,0,0,0,0,0c0,0,0,0,0-0.1c0,0,0,0,0,0c0,0,0,0,0-0.1c0,0,0-0.1,0-0.1c0,0,0-0.1,0-0.1c0-0.1,0.1-0.1,0.1-0.2
		c0,0,0,0,0,0c0,0,0,0,0,0c0,0,0,0,0,0c0,0,0.1,0,0.1,0c0,0,0,0,0,0c0,0,0.1,0,0.1,0c0,0-0.1,0.1-0.1,0.1c0,0,0.1-0.1,0.2-0.1
		c0,0.1-0.1,0.1-0.1,0.1c0.1,0,0.2-0.1,0.3-0.1C63.4,14.5,63.5,14.5,63.6,14.4C63.6,14.4,63.6,14.4,63.6,14.4z M64.5,14.3
		c0,0-0.1-0.1-0.1-0.1c0,0-0.1,0-0.1,0c-0.1,0-0.1,0.1-0.2,0.1c-0.1,0-0.1,0.1-0.2,0.1c-0.2,0.1-0.3,0.2-0.4,0.3
		c-0.1,0-0.1,0.1-0.2,0.1c-0.1,0-0.2,0.1-0.2,0.1c-0.1,0-0.1,0.1-0.2,0.2c-0.1,0.1-0.2,0.3-0.2,0.4c0,0,0-0.1,0-0.1c0,0,0,0,0,0
		c0,0,0-0.1,0-0.1c0,0,0,0,0,0c0,0,0-0.1,0-0.1c0,0,0-0.1,0.1-0.1c0.1-0.2,0.2-0.3,0.4-0.3c0,0,0,0-0.1,0.1c0.1,0,0.1-0.1,0.2-0.1
		c0.1,0,0.1-0.1,0.2-0.1c-0.1,0.1-0.2,0.1-0.3,0.2c0.1,0,0.1,0,0.2-0.1c0,0,0,0,0,0c0,0,0.1,0,0.1,0c0,0,0,0,0,0c0,0,0.1,0,0.1,0
		c0,0,0,0,0,0c0,0,0.1,0,0.1,0c0,0,0,0,0,0c0,0,0.1,0,0.1,0c0,0,0,0,0,0c0,0,0.1,0,0.1,0c0,0,0,0,0,0c0,0,0.1,0,0.1,0c0,0,0,0,0,0
		c0,0,0,0,0,0c0.1,0,0.2-0.1,0.3-0.1C64.5,14.3,64.5,14.3,64.5,14.3z M64.3,14.5c-0.1,0-0.3,0.1-0.4,0.1c-0.1,0-0.1,0.1-0.2,0.1
		c-0.1,0-0.1,0.1-0.2,0.1c-0.1,0-0.2,0.1-0.3,0.2c0,0-0.1,0-0.1,0.1c0,0-0.1,0.1-0.1,0.1c-0.1,0.1-0.2,0.3-0.3,0.4c0,0,0,0,0.1-0.1
		c0,0,0,0,0-0.1c0,0,0,0,0,0c0,0,0,0,0-0.1c0,0,0,0,0,0c0,0,0,0,0-0.1c0,0,0.1,0,0.1-0.1c0,0,0,0.1,0,0.1c0,0,0,0,0,0.1c0,0,0,0,0,0
		c0,0,0,0.1,0,0.1c0,0-0.1,0-0.1,0.1c0.2-0.1,0.2-0.2,0.4-0.3c0.1-0.1,0.3-0.1,0.5-0.2c0.1,0,0.2-0.1,0.2-0.1c0.1,0,0.1-0.1,0.2-0.1
		c0.1,0,0.2,0,0.3,0c0.2,0,0.4,0,0.6-0.1c0,0,0-0.1,0-0.1c0,0,0-0.1,0-0.1c0-0.1,0-0.1-0.1-0.2c0,0-0.1-0.1-0.1-0.1c0,0,0,0,0,0
		c0,0,0,0,0,0C64.6,14.4,64.5,14.5,64.3,14.5z M62.9,14.7C62.9,14.7,62.9,14.7,62.9,14.7c0,0-0.1,0.1-0.1,0.1
		C62.8,14.9,62.9,14.8,62.9,14.7z M62.9,14.9C62.9,14.8,62.9,14.8,62.9,14.9C62.9,14.8,62.9,14.8,62.9,14.9
		C62.9,14.8,62.9,14.8,62.9,14.9z M63,14.9C63,14.8,63,14.8,63,14.9C62.9,14.8,62.9,14.9,63,14.9C62.9,14.9,62.9,14.9,63,14.9
		c-0.1,0.1-0.1,0.1-0.1,0.1c0,0.1-0.1,0.1-0.1,0.2c0,0,0,0.1,0,0.1C62.8,15.1,62.9,15,63,14.9C63,14.8,63,14.8,63,14.9
		C63,14.8,63,14.9,63,14.9z M63,15C63,15,63,15,63,15C63.1,15,63.1,15,63,15C63.1,15,63,15,63,15c0.1-0.1,0.1-0.1,0.1-0.1
		C63.1,15,63,15,63,15z M63.1,15C63.1,15,63.1,15,63.1,15C63.1,15,63.1,15,63.1,15z M62.5,15.5C62.5,15.5,62.6,15.5,62.5,15.5
		C62.5,15.5,62.5,15.5,62.5,15.5z M62.6,15.5C62.6,15.5,62.6,15.5,62.6,15.5C62.6,15.6,62.6,15.6,62.6,15.5c0,0.1,0,0.1,0,0.1
		c0,0-0.1,0,0,0.1c0,0,0,0,0,0c0,0,0,0,0,0.1c0,0,0,0,0,0.1C62.6,15.7,62.6,15.6,62.6,15.5C62.6,15.5,62.6,15.5,62.6,15.5z
		 M62.5,15.6C62.5,15.6,62.5,15.6,62.5,15.6C62.5,15.6,62.5,15.6,62.5,15.6z M62.8,15.6C62.8,15.6,62.8,15.6,62.8,15.6
		C62.8,15.6,62.8,15.6,62.8,15.6z M62.5,15.7C62.5,15.6,62.5,15.6,62.5,15.7C62.5,15.6,62.5,15.6,62.5,15.7z M62.8,15.6
		C62.8,15.6,62.8,15.6,62.8,15.6C62.8,15.6,62.8,15.6,62.8,15.6C62.8,15.6,62.7,15.6,62.8,15.6z M62.2,15.7
		C62.2,15.7,62.3,15.7,62.2,15.7C62.2,15.7,62.2,15.7,62.2,15.7C62.2,15.7,62.2,15.7,62.2,15.7c-0.1,0.1-0.1,0.1-0.1,0.1
		c0,0,0,0,0,0c0,0,0,0-0.1,0c0,0,0,0,0,0c-0.1,0-0.1,0.1-0.2,0.2c0.1,0,0.3,0,0.4,0c0,0,0-0.1,0-0.1c0,0,0,0.1,0,0.1
		c0,0,0-0.1-0.1,0c0,0.1-0.1,0-0.1,0c0,0,0,0,0,0c0,0,0,0,0.1,0c0,0,0.1,0,0.1-0.1c0,0,0.1,0,0.1,0C62.4,15.7,62.4,15.6,62.2,15.7
		C62.3,15.7,62.3,15.6,62.2,15.7z M62.6,15.7C62.6,15.7,62.6,15.7,62.6,15.7C62.7,15.7,62.6,15.7,62.6,15.7
		C62.6,15.7,62.6,15.7,62.6,15.7z M62.7,15.7C62.7,15.7,62.6,15.7,62.7,15.7C62.6,15.8,62.7,15.8,62.7,15.7
		C62.7,15.8,62.7,15.7,62.7,15.7C62.7,15.7,62.7,15.7,62.7,15.7z M62.8,15.7C62.7,15.8,62.7,15.8,62.8,15.7
		C62.8,15.8,62.8,15.8,62.8,15.7C62.8,15.8,62.8,15.8,62.8,15.7c-0.1,0.1-0.1,0.1-0.2,0.2c0.1,0,0.1,0,0.2,0
		C62.8,15.8,62.8,15.8,62.8,15.7C62.8,15.7,62.8,15.8,62.8,15.7z M62.4,15.8C62.4,15.8,62.4,15.8,62.4,15.8
		C62.4,15.8,62.3,15.8,62.4,15.8C62.3,15.8,62.3,15.8,62.4,15.8z M62.4,15.8C62.4,15.8,62.4,15.8,62.4,15.8
		C62.4,15.8,62.4,15.8,62.4,15.8C62.4,15.8,62.4,15.8,62.4,15.8z M62.6,15.8C62.6,15.8,62.7,15.8,62.6,15.8
		C62.7,15.8,62.6,15.8,62.6,15.8z M62.3,15.9c0,0,0.1-0.1,0-0.1c0,0,0,0,0,0C62.3,15.9,62.3,15.9,62.3,15.9z M62.4,15.9
		C62.4,15.9,62.4,15.9,62.4,15.9C62.4,15.9,62.4,15.9,62.4,15.9z M62.4,15.9C62.4,15.9,62.4,15.9,62.4,15.9
		C62.4,15.9,62.4,15.9,62.4,15.9C62.4,15.9,62.4,15.9,62.4,15.9z M62.5,16C62.5,16,62.5,16,62.5,16C62.5,15.9,62.5,15.9,62.5,16
		C62.5,15.9,62.5,15.9,62.5,16z M62.3,16C62.3,16,62.3,16,62.3,16C62.3,16.1,62.3,16.1,62.3,16C62.3,16.1,62.3,16.1,62.3,16
		c0,0.1,0,0.1,0,0.1c0,0-0.1,0-0.1,0.1c0,0,0,0,0,0c0,0,0,0.1,0,0.1c0.1,0,0.2-0.1,0.3-0.1c0,0,0-0.1,0-0.2c0,0-0.1,0-0.1,0
		c0,0,0,0,0,0c0,0,0,0,0,0c0,0-0.1,0-0.1,0.1C62.4,16.1,62.4,16.1,62.3,16C62.4,16.1,62.4,16,62.3,16C62.4,16,62.3,16,62.3,16z
		 M62.5,16C62.5,16,62.5,16,62.5,16C62.5,16,62.5,16,62.5,16z"/>
	<path class="st8" d="M63.5,14.9C63.5,14.9,63.5,14.9,63.5,14.9C63.4,15,63.4,15,63.3,15C63.4,15,63.4,15,63.5,14.9
		C63.5,14.9,63.5,14.9,63.5,14.9C63.5,14.9,63.5,14.9,63.5,14.9c0.1,0,0.2,0,0.3,0c-0.1,0.1-0.2,0.1-0.3,0.2c0,0,0,0,0.1,0
		C63.6,15,63.6,15,63.5,14.9c0.1,0,0.2,0,0.3,0c0,0,0,0,0,0c0,0-0.1,0-0.1,0.1c0,0-0.1,0-0.1,0.1c-0.1,0-0.1,0-0.1,0
		c0,0-0.1,0-0.1,0.1c0,0,0.1,0,0.2-0.1c0,0,0.1,0,0.1,0c0.1,0,0.1-0.1,0.2-0.1c0,0.1-0.1,0.1-0.2,0.1c-0.1,0-0.1,0-0.1,0
		c0,0-0.1,0-0.1,0.1c0.1,0,0.1,0,0.2-0.1c0,0,0,0-0.1,0.1c0,0-0.1,0-0.1,0c0,0-0.1,0-0.1,0c-0.1,0-0.1,0.1-0.2,0.1c0,0,0,0,0.1-0.1
		c-0.1,0-0.1,0.1-0.2,0.1c0-0.1,0.1-0.1,0.2-0.1c0,0,0.1-0.1,0-0.1c0,0,0,0,0,0.1c0,0-0.1,0.1-0.2,0.1c0-0.1,0.1-0.1,0.1-0.1
		c0,0,0,0,0-0.1c-0.1,0-0.1,0.1-0.2,0.1c0,0,0.1-0.1,0.1-0.2c0,0,0.1,0,0.1-0.1c0,0,0.1-0.1,0.1-0.1c0,0,0,0,0,0
		C63.5,14.9,63.5,14.9,63.5,14.9z M63.4,15C63.4,15,63.4,15,63.4,15C63.4,15,63.4,15,63.4,15z"/>
</g>
</svg>
