<?xml version="1.0" encoding="utf-8"?>
<!-- Generator: Adobe Illustrator 19.1.0, SVG Export Plug-In . SVG Version: 6.00 Build 0)  -->
<svg version="1.1" id="Layer_1" xmlns="http://www.w3.org/2000/svg" xmlns:xlink="http://www.w3.org/1999/xlink" x="0px" y="0px"
	 viewBox="0 0 100 100" style="enable-background:new 0 0 100 100;" xml:space="preserve">
<style type="text/css">
	.st0{fill:url(#SVGID_1_);stroke:#3A3A3A;stroke-width:0.2;stroke-miterlimit:10;}
	.st1{fill:url(#SVGID_2_);stroke:#3A3A3A;stroke-width:0.2;stroke-miterlimit:10;}
	.st2{fill:url(#SVGID_3_);stroke:#3A3A3A;stroke-width:0.2;stroke-miterlimit:10;}
	.st3{fill:url(#SVGID_4_);stroke:#3A3A3A;stroke-width:0.2;stroke-miterlimit:10;}
	.st4{fill:url(#SVGID_5_);stroke:#3A3A3A;stroke-width:0.2;stroke-miterlimit:10;}
</style>
<g>
	<g>
		<g>
			
				<radialGradient id="SVGID_1_" cx="52.065" cy="50.585" r="29.7793" gradientTransform="matrix(0.8829 0.4695 -0.446 0.8388 28.6551 -16.2887)" gradientUnits="userSpaceOnUse">
				<stop  offset="0" style="stop-color:#919191"/>
				<stop  offset="1" style="stop-color:#525252"/>
			</radialGradient>
			<path class="st0" d="M34.1,81.8c0.1,0.1,0.2,0.3,0.3,0.4c0.3,0.5,0.7,0.9,1.1,1.4C35,83,34.5,82.4,34.1,81.8z M35.5,83.6
				c0.1,0.1,0.1,0.1,0.2,0.2c0.1,0.1,0.2,0.2,0.3,0.3C35.8,83.9,35.6,83.8,35.5,83.6z M46.4,88.7c0,0,0.1,0,0.1,0c0.2,0,0.5,0,0.7,0
				C46.9,88.7,46.7,88.7,46.4,88.7z M50.3,88.4c0.1,0,0.2,0,0.3,0c0.1,0,0.2,0,0.3-0.1C50.7,88.3,50.5,88.3,50.3,88.4z M50.9,86.3
				C50.9,86.3,50.9,86.3,50.9,86.3c0.2,0,0.3-0.1,0.3-0.1C51.1,86.2,51,86.3,50.9,86.3z M56.4,15.4c0.1-0.8,0.4-1.5,0.8-2.2
				C56.8,13.9,56.5,14.6,56.4,15.4z M59.9,16.3v0.2C59.9,16.3,59.9,16.3,59.9,16.3C59.9,16.2,59.9,16.2,59.9,16.3z M62.1,26.2
				c0-0.1-0.1-0.1-0.1-0.2c0.1,0.1,0.1,0.2,0.2,0.3C62.2,26.3,62.2,26.2,62.1,26.2z M59.7,83.3c2.7-2.9,4.2-6.3,4.4-10.3
				C63.8,76.9,62.3,80.5,59.7,83.3z M64,25.7c0,0,0-0.1-0.1-0.1c0,0.1,0.1,0.2,0.1,0.3C64.1,25.8,64,25.7,64,25.7z M64.1,72.7
				c0-0.1,0-0.1,0-0.1v-0.3C64.1,72.4,64.1,72.5,64.1,72.7z M64.7,25.1c0,0,0-0.1-0.1-0.1c0,0.1,0.1,0.2,0.1,0.3
				C64.8,25.3,64.7,25.2,64.7,25.1z M64.8,25.3c0.3,0.7,0.4,1.6,0.5,2.4C65.2,26.9,65.1,26.1,64.8,25.3z M65.2,27.7
				c0,0.1,0,0.2,0,0.4v-0.2C65.3,27.8,65.3,27.8,65.2,27.7z M69.4,12.5c0.2,0.3,0.4,0.7,0.6,1.1C69.9,13.2,69.7,12.8,69.4,12.5z"/>
			
				<radialGradient id="SVGID_2_" cx="49.095" cy="54.835" r="23.2611" gradientTransform="matrix(0.8829 0.4695 -0.446 0.8388 30.203 -14.2093)" gradientUnits="userSpaceOnUse">
				<stop  offset="0" style="stop-color:#919191"/>
				<stop  offset="1" style="stop-color:#525252"/>
			</radialGradient>
			<path class="st1" d="M34.1,81.8c0.1,0.1,0.2,0.3,0.3,0.4c0.3,0.5,0.7,0.9,1.1,1.4C35,83,34.5,82.4,34.1,81.8z M35.5,83.6
				c0.1,0.1,0.1,0.1,0.2,0.2c0.1,0.1,0.2,0.2,0.3,0.3C35.8,83.9,35.6,83.8,35.5,83.6z M62.1,26.2c0-0.1-0.1-0.1-0.1-0.2
				c0.1,0.1,0.1,0.2,0.2,0.3C62.2,26.3,62.2,26.2,62.1,26.2z M64,25.7c0,0,0-0.1-0.1-0.1c0,0.1,0.1,0.2,0.1,0.3
				C64.1,25.8,64,25.7,64,25.7z"/>
			
				<radialGradient id="SVGID_3_" cx="50.087" cy="49.5541" r="31.7567" gradientTransform="matrix(0.8829 0.4695 -0.446 0.8388 27.9638 -15.5263)" gradientUnits="userSpaceOnUse">
				<stop  offset="0" style="stop-color:#919191"/>
				<stop  offset="1" style="stop-color:#525252"/>
			</radialGradient>
			<path class="st2" d="M70.6,15.6c0-0.1,0-0.3-0.1-0.4s0-0.3-0.1-0.4c0,0,0,0,0-0.1c0-0.2-0.1-0.4-0.2-0.6
				c-0.1-0.2-0.1-0.4-0.2-0.6c-0.2-0.4-0.4-0.8-0.6-1.1c-0.1-0.2-0.3-0.3-0.4-0.5c-0.1-0.1-0.2-0.2-0.3-0.3
				c-0.1-0.1-0.2-0.2-0.3-0.3c-0.1-0.1-0.3-0.2-0.4-0.3c-0.1,0-0.1-0.1-0.2-0.1c-0.1-0.1-0.3-0.2-0.4-0.3c0,0-0.1-0.1-0.2-0.1
				c0,0,0,0,0,0c-0.1-0.1-0.3-0.2-0.4-0.2c-1.3-0.6-2.8-0.8-4.2-0.6c-2,0.3-3.6,1.2-4.9,2.7c-0.2,0.3-0.4,0.5-0.5,0.8
				c-0.4,0.7-0.7,1.4-0.8,2.2v0c0,0.1,0,0.3,0,0.4v0c-0.1,1.4,0.2,2.7,0.8,4c0.4,1,1,1.9,1.6,2.7c0.6,0.8,1.2,1.6,1.8,2.5
				c0.2,0.2,0.3,0.5,0.5,0.8c0.2,0.3,0.3,0.5,0.4,0.8c0,0,0,0,0,0c0,0.1,0.1,0.2,0.1,0.2c0.1,0.2,0.1,0.3,0.1,0.5c0,0,0,0,0,0
				c0,0.1,0,0.2,0,0.2v0.2c0,0.4,0,0.9,0,1.3c0,4.5-0.1,9-0.1,13.5c0,4.5-0.1,9-0.1,13.5c0,5.2-0.1,10.5-0.1,15.7
				c0,0.8-0.1,1.6-0.2,2.4c-0.2,1.4-0.7,2.8-1.3,4.1c-0.2,0.4-0.4,0.7-0.6,1c0,0-0.1,0.1-0.1,0.1c-0.2,0.3-0.3,0.5-0.5,0.8
				c0,0.1-0.1,0.1-0.1,0.2c-0.1,0.2-0.3,0.4-0.5,0.6c-0.1,0.1-0.2,0.3-0.4,0.4c-0.1,0.1-0.2,0.3-0.4,0.4c-0.1,0.1-0.3,0.3-0.4,0.4
				c-0.1,0.1-0.2,0.2-0.3,0.3c-0.2,0.2-0.4,0.3-0.5,0.4c-0.2,0.2-0.4,0.3-0.5,0.4c-0.1,0-0.1,0.1-0.2,0.1c-0.3,0.2-0.5,0.4-0.8,0.5
				c-0.1,0-0.1,0.1-0.2,0.1c-0.3,0.2-0.6,0.3-1,0.5c0,0,0,0,0,0c-0.2,0.1-0.5,0.2-0.7,0.3c-0.3,0.1-0.5,0.2-0.8,0.3
				c-0.2,0.1-0.4,0.2-0.6,0.2c-0.1,0-0.2,0.1-0.3,0.1c-0.2,0.1-0.4,0.1-0.6,0.1c-0.2,0.1-0.4,0.1-0.6,0.1c-0.1,0-0.1,0-0.1,0
				c-0.3,0.1-0.7,0.1-1,0.1c-0.2,0-0.3,0-0.5,0c-1.6,0.1-3.2,0-4.7-0.5c-2.6-0.8-4.8-2.2-6.5-4.4c-1.3-1.6-2.1-3.3-2.7-5.2
				c0,0,0-0.1,0-0.2c0.1,0.1,0.2,0.1,0.3,0.2c1.3,0.7,2.6,1.1,4,1.3c0.1,0,0.1-0.1,0.1-0.1c0,0-6.5-15.8-7.4-17.9c0,0,0,0,0,0
				c0,0,0,0,0,0c0,0,0-0.1,0-0.1l0,0c-0.2,0-0.3,0.1-0.4,0.3c0,0,0,0,0,0.1c-0.7,2.4-1.1,4.8-1.2,7.3c-0.1,1.6,0,3.2,0.2,4.8
				c0.2,1.3,0.4,2.7,0.7,4c0.5,2.1,1.3,4.2,2.4,6c1,1.8,2.3,3.3,4,4.6c2.8,2.2,6,3.3,9.6,3.5c2,0.1,4-0.2,6-0.8
				c3.5-1.1,6.5-3,8.8-5.9c2.4-3,3.6-6.4,3.8-10.3c0-0.7,0-1.4,0-2c0-4.5,0.1-9,0.1-13.5c0.1-9.6,0.1-19.2,0.2-28.9v-0.1
				c0-0.1,0-0.2,0-0.4c0-0.7-0.2-1.7-0.5-2.4c-0.1-0.1-0.1-0.2-0.1-0.3c0-0.1-0.1-0.2-0.1-0.3c0-0.1-0.1-0.2-0.1-0.2
				c-0.1-0.2-0.2-0.4-0.3-0.5c-0.3-0.4-0.5-0.8-0.8-1.2c-0.6-0.8-1.2-1.7-1.9-2.5c-0.1-0.2-0.3-0.4-0.4-0.6
				c-0.1-0.1-0.2-0.2-0.2-0.4c-0.1-0.2-0.2-0.3-0.3-0.5c-0.1-0.1-0.1-0.3-0.2-0.4c0,0,0,0,0-0.1s0,0,0,0c0,0,0-0.1,0-0.1
				c0,0,0-0.1,0-0.1c-0.1-0.4-0.2-0.7-0.3-1.1c0-0.2,0-0.4,0-0.5v-0.2c0,0,0-0.1,0-0.1c0,0,0-0.1,0-0.1v0c0-0.1,0-0.3,0.1-0.4
				c0-0.1,0-0.3,0.1-0.4c0-0.1,0.1-0.2,0.1-0.3c0-0.1,0.1-0.2,0.1-0.2c0,0,0-0.1,0.1-0.1c0-0.1,0.1-0.2,0.2-0.3c0,0,0,0,0,0
				c0.1-0.1,0.2-0.2,0.3-0.3c0.1-0.1,0.2-0.2,0.3-0.3c0.1-0.1,0.3-0.1,0.4-0.2c0.9-0.4,1.8-0.5,2.8-0.3c1.4,0.3,2.5,1.4,2.5,2.8
				c0,1.1-0.3,2-1.1,2.7c-0.3,0.3-0.6,0.5-1,0.6c-0.8,0.3-1.3,1.2-1.1,2.1c0.2,1,1.5,1.7,2.5,1.2c0.8-0.4,1.6-0.9,2.3-1.6
				c0.7-0.7,1.3-1.5,1.6-2.4c0.2-0.5,0.3-1.1,0.4-1.7C70.6,16.5,70.6,16.1,70.6,15.6z M35.5,83.6 M50.8,88.3 M50.9,86.3 M64.1,72.7
				 M64,25.5 M64.1,73 M62,26"/>
			
				<radialGradient id="SVGID_4_" cx="62.03" cy="25.97" r="0" gradientTransform="matrix(0.8829 0.4695 -0.446 0.8388 18.8433 -24.935)" gradientUnits="userSpaceOnUse">
				<stop  offset="0" style="stop-color:#919191"/>
				<stop  offset="1" style="stop-color:#525252"/>
			</radialGradient>
			<path class="st3" d="M62,26"/>
			
				<radialGradient id="SVGID_5_" cx="63.98" cy="25.55" r="0" gradientTransform="matrix(0.8829 0.4695 -0.446 0.8388 18.8843 -25.9181)" gradientUnits="userSpaceOnUse">
				<stop  offset="0" style="stop-color:#919191"/>
				<stop  offset="1" style="stop-color:#525252"/>
			</radialGradient>
			<path class="st4" d="M64,25.5"/>
		</g>
	</g>
</g>
</svg>
